<?xml version="1.0" encoding="UTF-8"?>
<svg xmlns="http://www.w3.org/2000/svg" xmlns:xlink="http://www.w3.org/1999/xlink" version="1.1" id="Layer_1" x="0px" y="0px" viewBox="0 0 850.4 850.4" style="enable-background:new 0 0 850.4 850.4;" xml:space="preserve">
<style type="text/css">
	.st0{fill:#005A96;}
</style>
<g>
	<path class="st0" d="M425.6,797.5c-18.9,0-37.9,0.7-56.8-0.1c-41.3-1.8-70.8-31.7-71.7-73c-0.7-33.8-0.7-67.7-0.1-101.5   c0.6-36.5-13.8-64.3-42.1-87.6c-89.3-73.6-123.8-168.9-96.4-280.8c27-110.5,101-179.5,212.2-203.9c122.7-27,249.6,38.5,303.7,152.8   c54.4,114.8,24.1,250.6-75.6,330.7c-30.3,24.3-45.4,53-44.5,91.6c0.8,31.5-0.3,63.1-0.7,94.6c-0.7,46.4-30.2,76.3-76.3,77.4   c-17.2,0.4-34.4,0.1-51.6,0.1C425.6,797.6,425.6,797.5,425.6,797.5z M444.2,595.6c23.5,0,45.2,0.5,66.8-0.5   c3.7-0.2,9.4-5.8,10.4-9.9c8.1-31.8,25.3-56.9,50.9-77.4c84.8-67.6,114.1-178,74.2-276.8C606.3,131.7,507.7,72.8,399.3,83.3   c-94,9.1-175.3,77-202.9,169.3c-27.2,91.1,3.4,191.9,77.7,250.7c27.6,21.8,47.6,47.4,55.5,82.2c0.9,3.9,5.8,9.5,9.1,9.7   c22.1,0.9,44.3,0.4,67.4,0.4c0-37.5,0-72.7,0-109.9c-16.3,0-31.6-0.1-47,0c-13.4,0.1-25.4-3.3-25.2-18.9   c0.2-15.6,12.1-18.4,25.6-18.3c43.6,0.3,87.2,0.1,130.8,0.1c18.2,0,28,6.7,26.7,19.1c-1.7,15.6-13.2,18.3-26.4,18.1   c-15.2-0.2-30.4,0-46.4,0C444.2,523.2,444.2,558,444.2,595.6z M334.9,706.6c-4.2,34.1,9.2,53.3,38.1,54c34.9,0.8,70,0.9,104.9,0   c29.6-0.8,45.1-24.4,36.3-54C454.9,706.6,395.4,706.6,334.9,706.6z M516,667.9c0-12,0-23.1,0-34.7c-61.1,0-121,0-181.6,0   c0,12.3,0,23.3,0,34.7C395.6,667.9,455.5,667.9,516,667.9z"></path>
</g>
</svg>
