<?xml version="1.0" encoding="UTF-8"?>
<svg xmlns="http://www.w3.org/2000/svg" xmlns:xlink="http://www.w3.org/1999/xlink" version="1.1" id="Layer_1" x="0px" y="0px" viewBox="0 0 850.39 850.39" style="enable-background:new 0 0 850.39 850.39;" xml:space="preserve">
<style type="text/css">
	.st0{fill:#005A96;}
</style>
<g>
	<path class="st0" d="M718.25,637.85c-1.43-20.74-2.86-41.48-5.02-72.72C657.9,652.95,589.51,714.5,492.89,733.37   c-97.19,18.98-188.07,1.35-265.31-63.85c-88.32-74.55-138.4-195.54-99.98-268.18c16.96,85.89,25.18,165.06,89.01,219.69   c37.12-16.21,74.92-32.4,112.44-49.19c34.4-15.4,39.74-46.83,19.68-70.15c-54.44-63.3-43.8-137.78-44.96-210.41   c-0.65-40.65,19.87-71.89,57.78-87.64c39.5-16.41,77.21-16.68,118.73,4.3c67.1,33.91,64.56,86.48,65.54,150.39   c0.9,58.54-19.28,100.8-47.17,146.84c-14.18,23.39-9.78,52.94,23.15,67.53c32.59,14.43,63.97,31.67,96.92,45.12   c7.31,2.99,22.41-1.7,27.99-8.06c14.74-16.8,26.23-36.46,44.14-62.41c-30.28,6.25-51.69,10.68-73.1,15.1c-2-5.55-4-11.11-6-16.66   c41.05-17.14,82.1-34.28,130.36-54.43c-0.48,54.28,5.79,101.3-4.59,147.21C731.11,638.32,724.68,638.09,718.25,637.85z    M605.54,642.52c-33.64-16.72-67.22-32.25-99.67-49.86c-36.06-19.57-54.36-64.03-34.62-97.87c24.22-41.51,41.87-79.54,44.57-131.48   c3-57.59,7.2-99.59-52.41-131.2c-49.08-26.02-125.27-6.32-130.03,48.45c-5.55,63.89-10.85,130.2,28.03,189.79   c43.79,67.12,30.87,103.88-43,135.87c-25.31,10.96-50.22,22.88-77.31,35.28C339.35,734.75,517.67,733.86,605.54,642.52z"></path>
	<path class="st0" d="M720.56,444.93c-23.31-193.89-115.09-309.2-313.21-305.38c-110.85,2.14-189.22,59.95-244.72,161.78   c27.71-6.22,48.57-10.9,69.43-15.58c1.47,4.01,2.94,8.01,4.41,12.02c-34.3,32.76-82.23,37.13-129.39,57.79   c5.03-52.23-8.27-99.57,8.78-144.42c4.47-0.24,8.95-0.48,13.42-0.72c2.97,21.12,5.94,42.25,9.95,70.78   c56.33-89.5,129.02-151.09,232.69-167.01c102.36-15.72,191.11,11.09,269.61,79.81C709.05,253.11,762.72,392.39,720.56,444.93z"></path>
</g>
</svg>
