<?xml version="1.0" encoding="UTF-8"?>
<svg xmlns="http://www.w3.org/2000/svg" width="88" height="79" viewBox="0 0 88 79" fill="none">
  <g clip-path="url(#clip0_170_39)">
    <path d="M25.5197 75.4035C25.5197 73.4438 25.5197 71.7247 25.5197 69.8337C24.8365 69.8337 24.2216 69.8337 23.6067 69.8337C18.3802 69.8337 13.1196 69.8681 7.89309 69.8337C3.179 69.7994 0.275391 66.8426 0.275391 62.0979C0.275391 47.4514 0.275391 32.7706 0.275391 18.1241C0.275391 13.0357 3.11068 10.1476 8.20053 10.1476C23.4018 10.1476 38.603 10.1476 53.7701 10.1133C55.7172 10.1133 57.6985 9.8382 59.6456 9.59753C60.6704 9.49438 61.5244 7.60341 61.0462 6.67511C59.4748 3.44326 59.4748 3.44326 62.6175 1.62104C62.8566 1.48352 63.0958 1.31161 63.3349 1.17409C65.6919 -0.20117 65.931 -0.166789 67.2974 2.20553C68.4589 4.16527 70.2352 4.13089 71.3625 2.13676C72.6606 -0.132407 72.9339 -0.20117 75.1884 1.10532C75.3934 1.20847 75.5983 1.34599 75.7691 1.44914C79.0143 3.34011 79.0143 3.34011 77.5796 6.74387C77.0331 8.08475 78.1945 9.59753 79.8 9.63191C83.3868 9.70067 86.632 12.2793 87.4519 15.8206C87.6227 16.4738 87.6227 17.1614 87.6568 17.8491C87.6568 32.6331 87.6568 47.4171 87.6568 62.1667C87.6568 66.7738 84.6849 69.7994 80.0733 69.8337C74.8468 69.8681 69.5862 69.8337 64.3597 69.8337C63.7448 69.8337 63.1299 69.8337 62.4126 69.8337C62.4126 71.7247 62.4126 73.4782 62.4126 75.4035C63.8131 75.4035 65.1795 75.266 66.5118 75.4723C67.1608 75.5754 68.1173 76.2631 68.2539 76.8475C68.493 77.879 67.5707 78.2916 66.6142 78.3259C66.2043 78.3603 65.8286 78.3259 65.4186 78.3259C51.0714 78.3259 36.7242 78.3259 22.4111 78.3259C21.2155 78.3259 19.5075 78.6698 19.5075 76.8475C19.5417 75.0597 21.2497 75.4379 22.4453 75.4035C23.4701 75.3691 24.4266 75.4035 25.5197 75.4035ZM60.9778 19.7057C57.391 23.1438 53.8042 26.5476 50.2516 30.0201C49.2268 31.0171 48.202 31.4985 46.7672 31.4297C44.4102 31.3266 42.019 31.3953 39.662 31.3953C39.662 33.802 39.662 35.9681 39.662 38.2372C42.3948 38.2372 44.9909 38.1341 47.5871 38.306C48.4752 38.3748 49.5684 38.8561 50.1491 39.5437C52.1987 41.916 54.18 44.3915 55.888 47.0045C57.1519 48.9298 58.655 49.2049 60.7729 48.7236C60.7729 47.6921 60.6021 46.6263 60.8412 45.6636C61.012 45.0104 61.7977 44.4946 62.2759 43.9445C62.72 44.4946 63.4374 45.0104 63.574 45.6636C63.779 46.6951 63.6423 47.7953 63.6423 48.8611C64.633 48.8611 65.3503 48.8611 66.2043 48.8611C66.2043 46.7638 66.2043 44.8041 66.2043 42.81C66.2043 41.7441 66.0335 40.4033 67.6049 40.3689C69.3471 40.3345 69.0738 41.7785 69.1079 42.8787C69.1421 44.8728 69.1079 46.8326 69.1079 48.8611C70.0986 48.8611 70.8501 48.8611 71.7041 48.8611C71.7041 45.4229 71.7041 42.088 71.7041 38.7873C71.7041 37.7559 71.8749 36.6901 73.1388 36.6557C74.4369 36.6213 74.6419 37.6528 74.6419 38.7186C74.6419 40.4376 74.6419 42.1567 74.6419 43.8758C74.6419 45.5605 74.6419 47.2452 74.6419 48.8611C75.7691 48.8611 76.589 48.8611 77.5113 48.8611C77.5113 44.2196 77.5113 39.6813 77.5113 35.1773C77.5113 34.1115 77.6821 33.0456 78.9119 33.0113C80.2783 32.9769 80.4491 34.0771 80.4491 35.2117C80.4491 36.9995 80.4491 38.753 80.4491 40.5408C80.4491 43.3257 80.4491 46.1106 80.4491 48.8955C81.713 49.033 83.0452 48.9298 82.9769 50.5114C82.9086 52.1961 81.5422 51.8179 80.5174 51.8179C72.9339 51.8523 65.3845 51.8179 57.8009 51.8523C56.6395 51.8523 55.7513 51.5772 55.034 50.5802C52.9844 47.8296 50.9006 45.1135 48.7827 42.4318C48.4069 41.9504 47.8945 41.2972 47.4163 41.2972C44.8201 41.194 42.2581 41.2284 39.7303 41.2284C39.6278 41.6066 39.5936 41.7441 39.5936 41.8473C39.5936 43.4976 39.5936 45.1823 39.5595 46.8326C39.5253 49.033 38.603 49.9957 36.4509 49.9957C27.296 49.9957 18.1069 49.9957 8.95205 49.9957C6.9366 49.9957 5.87764 48.9986 5.87764 46.9357C5.84348 38.581 5.84348 30.192 5.87764 21.8373C5.87764 19.6713 6.90244 18.7086 9.05453 18.7086C18.1753 18.7086 27.2618 18.7086 36.3826 18.7086C38.6713 18.7086 39.5595 19.6369 39.5595 21.9405C39.5595 24.1409 39.5595 26.3757 39.5595 28.6792C42.019 28.6792 44.2394 28.748 46.4256 28.6448C47.1772 28.6104 48.0995 28.2666 48.646 27.7509C51.9937 24.6222 55.2389 21.4247 58.5183 18.2273C58.7233 18.021 58.8941 17.7459 58.9965 17.6084C57.8693 17.3333 56.4004 17.3677 55.8538 16.6801C55.2048 15.8893 55.4097 14.4453 55.2048 13.1732C54.7607 13.1388 54.3166 13.07 53.8725 13.07C38.5688 13.07 23.231 13.07 7.92725 13.07C4.57956 13.0357 3.0082 14.686 3.0082 18.1585C3.0082 30.4327 3.0082 42.6724 3.0082 54.9466C3.0082 55.4967 3.07652 56.0468 3.11068 56.6657C30.4046 56.6657 57.596 56.6657 84.7532 56.6657C84.8216 56.3906 84.924 56.2531 84.924 56.0812C84.924 43.1882 84.9582 30.2951 84.8899 17.4021C84.8899 16.3363 84.2067 15.2705 83.8309 14.239C83.0452 17.299 83.0452 17.4365 80.1075 17.2646C78.5019 17.1614 77.7846 17.9866 77.5796 19.1556C77.443 19.8776 78.0237 20.8059 78.4336 21.5623C79.1168 22.8 78.9802 23.7283 77.6821 24.4159C76.7939 24.8973 75.9058 25.4474 75.0176 25.9631C73.0363 27.0977 72.5923 27.0633 71.5675 25.0348C70.9184 23.7283 69.9961 23.1094 68.7663 23.5908C68.0148 23.8658 67.3658 24.7597 66.9217 25.5161C66.1702 26.7882 65.3162 26.9945 64.1206 26.2725C63.779 26.0662 63.4374 25.8599 63.0958 25.6536C59.4748 23.4532 59.4748 23.4532 60.9778 19.7057ZM84.9924 59.6912C57.4593 59.6912 30.2679 59.6912 3.11068 59.6912C2.56412 64.6421 3.79388 67.0145 9.60109 66.9801C32.7275 66.8426 55.8197 66.9113 78.946 66.9113C79.6976 66.9113 80.4149 66.9113 81.1664 66.8426C83.0111 66.6363 84.2408 65.6048 84.6508 63.817C84.924 62.5105 84.8899 61.1352 84.9924 59.6912ZM36.6559 47.0389C36.6559 38.3404 36.6559 29.8826 36.6559 21.5279C27.2277 21.5279 17.9361 21.5279 8.74709 21.5279C8.74709 30.1576 8.74709 38.581 8.74709 47.0389C18.1753 47.0389 27.3643 47.0389 36.6559 47.0389ZM59.3723 69.9713C48.9876 69.9713 38.7738 69.9713 28.5599 69.9713C28.5599 71.8279 28.5599 73.5813 28.5599 75.266C38.9104 75.266 49.1243 75.266 59.3723 75.266C59.3723 73.4438 59.3723 71.7591 59.3723 69.9713ZM80.4832 12.348C78.297 12.5543 76.6573 12.5887 75.3934 10.1133C74.3003 7.94722 74.0953 6.46882 75.6667 4.61223C74.9151 4.23403 74.4027 3.95898 73.6854 3.5464C73.0363 5.88434 71.7383 6.36568 69.4154 6.43444C66.9558 6.5032 65.7602 5.71243 64.9404 3.58078C64.223 3.99336 63.7106 4.26841 63.0274 4.64661C64.633 6.43444 64.3938 7.87846 63.369 10.0445C62.1734 12.5199 60.4996 12.5199 58.3817 12.4512C58.3817 13.1732 58.3817 13.7921 58.3817 14.4797C60.363 14.5485 62.071 14.239 63.2666 16.7145C64.2914 18.8805 64.7013 20.3933 62.9933 22.2499C63.6765 22.6281 64.1889 22.9375 64.9746 23.3501C65.6578 21.0809 66.9558 20.4964 69.347 20.3933C71.9091 20.2901 72.8997 21.3903 73.822 23.2813C74.4711 22.9031 74.9493 22.5937 75.5983 22.2155C74.0611 20.3933 74.3003 18.8805 75.3251 16.7489C76.589 14.1703 78.4678 14.5484 80.4149 14.4453C80.4832 13.7233 80.4832 13.2076 80.4832 12.348Z" fill="#005B97"></path>
    <path d="M14.9983 63.2658C13.9394 63.8846 13.3587 64.5035 12.8463 64.4347C12.368 64.4003 11.5823 63.5064 11.6507 63.197C11.7873 62.6469 12.4705 61.9249 12.9829 61.8561C13.427 61.7873 14.0077 62.5094 14.9983 63.2658Z" fill="#005B97"></path>
    <path d="M9.29404 63.2662C8.33755 63.8507 7.68851 64.5039 7.21027 64.4352C6.73203 64.3664 6.11715 63.5069 6.08299 62.9911C6.04883 62.6129 6.93699 61.8222 7.34691 61.8566C7.89347 61.8909 8.37171 62.5786 9.29404 63.2662Z" fill="#005B97"></path>
    <path d="M18.6536 65.1579C18.0045 64.2296 17.3555 63.6795 17.3555 63.1638C17.3555 62.6824 18.1412 61.7885 18.4486 61.8573C19.0293 61.9604 19.815 62.5793 19.9175 63.0606C19.9858 63.542 19.3026 64.1608 18.6536 65.1579Z" fill="#005B97"></path>
    <path d="M22.4794 29.9517C25.3147 29.9517 28.1841 29.9517 31.0194 29.9517C32.0101 29.9517 32.9665 30.1236 33.0007 31.2926C33.0349 32.5647 32.0442 32.771 30.9852 32.771C25.178 32.7366 19.3708 32.771 13.5978 32.771C12.6071 32.771 11.6848 32.6334 11.6507 31.3957C11.5482 30.0548 12.573 29.9173 13.5978 29.9517C16.5697 29.9517 19.5075 29.9517 22.4794 29.9517Z" fill="#005B97"></path>
    <path d="M22.1375 38.2724C19.2338 38.2724 16.3302 38.2724 13.4266 38.2724C12.4018 38.2724 11.4112 37.9973 11.6503 36.8284C11.7528 36.2783 12.7776 35.5563 13.3925 35.5219C19.3022 35.4187 25.2119 35.4875 31.1216 35.4531C32.1805 35.4531 33.0004 35.7626 32.9662 36.9315C32.932 37.9973 32.1464 38.2724 31.1557 38.2724C28.1496 38.238 25.1435 38.2724 22.1375 38.2724Z" fill="#005B97"></path>
    <path d="M22.1373 43.8419C19.3021 43.8419 16.4668 43.8419 13.5973 43.8419C12.5725 43.8419 11.5477 43.7044 11.5819 42.3635C11.616 41.1602 12.5384 40.9883 13.529 40.9883C19.3362 40.9883 25.1093 40.9883 30.9165 40.9883C32.0096 40.9883 32.9661 41.229 32.9661 42.5011C32.9319 43.67 31.9754 43.8763 30.9848 43.8763C28.047 43.8419 25.0751 43.8419 22.1373 43.8419Z" fill="#005B97"></path>
    <path d="M16.911 24.3466C18.1066 24.3466 19.3363 24.1747 20.4636 24.4154C21.0785 24.5185 21.5226 25.3093 22.0692 25.7906C21.5226 26.272 21.0102 27.0971 20.4295 27.1315C18.0041 27.269 15.5446 27.269 13.1192 27.1315C12.5727 27.0971 12.0944 26.2376 11.5479 25.7218C12.0944 25.2405 12.5727 24.4841 13.1875 24.381C14.3831 24.2091 15.6812 24.3466 16.911 24.3466Z" fill="#005B97"></path>
    <path d="M74.4024 13.413C74.4366 16.0948 72.1478 18.4327 69.4492 18.5015C66.7164 18.5702 64.291 16.1979 64.291 13.4474C64.291 10.6969 66.6822 8.2902 69.415 8.32458C72.0453 8.39335 74.3682 10.7313 74.4024 13.413ZM69.4492 15.6478C70.6448 15.6134 71.6013 14.6164 71.6013 13.413C71.6013 12.2097 70.4398 11.0407 69.2784 11.1782C68.0145 11.3158 67.1946 12.0378 67.1605 13.413C67.1605 14.7195 68.1511 15.6822 69.4492 15.6478Z" fill="#005B97"></path>
  </g>
  <defs>
    <clipPath id="clip0_170_39">
      <rect width="87.4498" height="78.0802" fill="white" transform="translate(0.275391 0.246094)"></rect>
    </clipPath>
  </defs>
</svg>
