<?xml version="1.0" encoding="UTF-8"?>
<svg xmlns="http://www.w3.org/2000/svg" width="92" height="87" viewBox="0 0 92 87" fill="none">
  <g clip-path="url(#clip0_1_49)">
    <path d="M81.1161 45.2196C81.1161 39.3054 81.1161 33.4974 81.1161 27.5478C55.476 27.5478 29.9067 27.5478 4.08957 27.5478C4.08957 28.079 4.08957 28.6457 4.08957 29.2123C4.08957 39.1992 4.05416 49.1507 4.12499 59.1375C4.12499 60.2708 4.33747 61.5103 4.76245 62.5728C5.54157 64.6976 7.0998 65.8663 9.50799 65.8309C12.5891 65.7601 15.6347 65.7601 18.7158 65.8663C19.4241 65.9017 20.274 66.1496 20.7698 66.61C21.7968 67.637 21.0177 69.3369 19.4595 69.3369C15.493 69.4078 11.5266 69.514 7.59561 69.1953C3.73543 68.8765 0.61895 64.556 0.61895 59.9875C0.583536 51.3818 0.61895 42.7406 0.61895 34.1349C0.61895 25.9896 0.583536 17.8442 0.61895 9.6989C0.548121 5.16584 3.27504 1.37649 7.24146 0.420295C8.09141 0.207808 8.97677 0.207808 9.86214 0.207808C31.465 0.207808 53.0678 0.349466 74.6707 0.101564C81.5057 0.0307354 84.7992 5.09501 84.7992 10.2655C84.7992 22.0586 84.7992 33.887 84.7992 45.68C84.7992 46.9904 84.9055 48.1236 85.9325 49.2215C87.3137 50.7089 87.172 52.4796 85.9325 54.2149C85.0471 55.419 86.1096 58.0397 87.5616 58.2522C89.9343 58.6417 91.1738 60.0583 91.2447 62.4311C91.2801 63.3873 91.2801 64.3081 91.2447 65.2643C91.1738 67.46 89.9697 68.912 87.8095 69.3369C86.0387 69.6557 85.118 71.993 86.0033 73.5158C86.4637 74.295 86.9241 75.2866 86.8179 76.1365C86.4991 78.9343 84.3388 80.4925 82.1786 81.8028C80.4078 82.9007 78.6725 82.0153 77.2205 80.6342C76.4768 80.9529 75.6977 81.1654 75.0957 81.5904C74.5999 81.9445 74.104 82.5111 73.9624 83.0778C73.4666 85.3443 72.1208 86.5484 69.7835 86.6192C68.721 86.6546 67.6586 86.6546 66.5962 86.6192C64.8255 86.513 63.2318 85.5922 63.0901 83.9277C62.9131 81.9091 61.6381 81.4841 60.257 80.9529C60.0445 80.8821 59.832 80.7758 59.6195 80.705C56.6801 82.9361 55.1573 82.8299 52.5366 80.2446C52.0408 79.7488 51.5096 79.253 51.0492 78.7218C49.7035 77.1635 49.668 75.2512 50.7305 73.5158C51.0492 73.02 51.1555 72.2763 51.0846 71.7097C50.7659 69.8681 49.6326 69.3015 47.7202 69.3723C43.8246 69.5494 39.9291 69.4432 36.0335 69.4078C34.7939 69.4078 33.4836 69.3369 33.4482 67.7079C33.4128 65.9725 34.7231 65.8309 36.0335 65.8309C39.0791 65.8309 42.1602 65.8309 45.4891 65.8309C45.4891 64.6268 45.4537 63.5289 45.4891 62.4311C45.56 60.0229 46.8349 58.6417 49.2077 58.2522C50.5888 58.0397 51.6867 55.4544 50.8721 54.3566C49.3847 52.3025 49.491 50.4964 51.2617 48.6549C51.97 47.9466 52.6429 47.2029 53.3866 46.53C54.874 45.2197 56.7864 45.078 58.4154 46.1758C60.0799 47.2737 62.3464 46.2821 62.736 44.2635C62.7714 44.0156 62.8068 43.8031 62.8777 43.5906C63.6922 41.4303 65.9233 40.6158 69.9606 41.0053C72.0854 41.2178 73.4312 42.4573 73.7853 44.5468C74.0332 46.105 76.6185 47.2029 77.8934 46.3529C78.3892 46.0342 78.9204 45.7509 79.4516 45.5738C79.9829 45.3613 80.5141 45.3259 81.1161 45.2196ZM4.08957 23.8293C4.93952 23.8293 5.57698 23.8293 6.21444 23.8293C30.4734 23.8293 54.6969 23.8293 78.9558 23.8293C79.31 23.8293 79.735 23.9355 80.0183 23.7939C80.4787 23.546 81.1515 23.0856 81.1515 22.7314C81.2224 18.3046 81.3286 13.8778 81.1161 9.45099C80.9391 5.51998 78.7433 3.71384 74.7769 3.71384C53.2449 3.71384 31.7129 3.71384 10.1809 3.71384C6.56859 3.71384 4.23123 5.73247 4.12499 9.34475C3.98333 14.0903 4.08957 18.8004 4.08957 23.8293ZM53.3866 51.5234C53.6699 51.913 53.7761 52.1255 53.9178 52.3025C55.8302 54.4274 55.8302 54.4274 54.5552 56.9773C54.4136 57.296 54.2011 57.6147 54.1303 57.9335C53.599 60.5541 52.572 62.5728 49.2431 61.7228C49.2431 63.1748 49.2431 64.3789 49.2431 65.8309C52.6074 65.0164 53.5991 67.0704 54.1657 69.6557C54.2011 69.7619 54.2365 69.8681 54.3073 69.9744C55.8656 72.0993 55.901 74.0471 53.7053 75.747C53.6345 75.7824 53.6699 75.9594 53.6699 76.4907C54.0949 76.8448 54.8031 77.3052 55.3698 77.9072C56.0781 78.6509 56.6447 78.6509 57.2467 77.8718C58.4154 76.3136 59.7258 76.3136 61.2486 77.3406C61.8152 77.7302 62.4881 78.0843 63.161 78.1906C65.7108 78.5801 66.8441 79.9967 66.4899 82.582C66.4899 82.6528 66.5962 82.759 66.7024 82.9007C67.8711 82.9007 69.0752 82.9007 70.4564 82.9007C70.4564 82.0862 70.2439 81.307 70.4918 80.705C70.8105 79.9967 71.3417 79.1822 72.0146 78.828C73.4312 78.0489 74.9894 77.4114 76.5476 76.951C77.2205 76.7386 78.2475 76.774 78.7788 77.1635C80.939 78.6509 81.1161 78.7218 82.6389 76.6677C82.8868 76.349 82.8514 75.3574 82.5681 75.1095C80.939 73.7992 80.939 72.418 82.0723 70.7889C82.391 70.3285 82.6744 69.7265 82.7806 69.1953C83.1702 66.5746 84.5867 65.4059 87.2428 65.6892C87.3137 65.6892 87.4199 65.5476 87.5261 65.5122C87.5261 64.3081 87.5261 63.104 87.5261 61.6874C84.4805 62.4665 83.2764 60.8729 82.7806 58.323C82.7098 57.9689 82.5681 57.6147 82.3556 57.3668C80.8328 55.3128 80.9391 53.5066 83.0639 51.913C83.1347 51.8776 83.1347 51.7005 83.1702 51.5234C82.3556 50.6735 81.5057 49.8235 80.4432 48.7965C78.6725 51.8422 76.5122 50.9214 74.2811 49.5756C74.0686 49.4694 73.8561 49.3631 73.6082 49.3277C71.0584 48.9736 69.9251 47.557 70.2439 44.9717C70.2439 44.9009 70.1022 44.7947 69.9251 44.5114C69.1814 44.5114 68.2961 44.4051 67.4461 44.5468C67.0211 44.6176 66.3837 45.2196 66.3837 45.503C66.6316 47.8403 65.4275 48.8319 63.338 49.2215C62.8422 49.3277 62.2756 49.5048 61.886 49.8235C59.832 51.4172 58.0259 51.1693 56.4322 49.1152C56.3968 49.0444 56.2197 49.0798 56.2197 49.0798C55.2281 49.9652 54.3073 50.7443 53.3866 51.5234Z" fill="#005B97"></path>
    <path d="M40.4249 46.6008C38.9375 44.9363 37.6271 43.4135 36.3168 41.9261C35.5377 41.0407 35.3252 40.1199 36.246 39.3054C37.2376 38.3846 38.1938 38.7034 39.0083 39.6241C40.5665 41.3949 42.1248 43.1302 43.683 44.9363C44.6392 46.0342 44.71 47.1674 43.7538 48.2653C42.1602 50.1068 40.5665 51.8776 38.9729 53.6837C38.1938 54.5691 37.2376 54.7816 36.3522 54.0024C35.3252 53.1171 35.5731 52.1609 36.3876 51.2401C37.698 49.7173 39.0083 48.2299 40.4249 46.6008Z" fill="#005B97"></path>
    <path d="M14.5722 46.6008C15.9534 48.1236 17.1929 49.5402 18.4324 50.9213C19.2824 51.8775 19.849 52.9754 18.6803 53.967C17.6179 54.8877 16.6263 54.3211 15.8117 53.3649C14.4306 51.7713 12.9786 50.213 11.5974 48.6194C10.3579 47.2028 10.3579 45.9633 11.5974 44.5467C13.0494 42.9176 14.5014 41.324 15.9534 39.6595C16.7679 38.7387 17.6887 38.2783 18.7157 39.1637C19.7782 40.0845 19.4594 41.1469 18.6095 42.1031C17.2637 43.5551 15.9888 45.0071 14.5722 46.6008Z" fill="#005B97"></path>
    <path d="M31.1817 38.8805C30.6859 40.8283 30.3317 42.3865 29.9422 43.9093C29.1631 47.2029 28.3839 50.5318 27.6048 53.8608C27.3215 55.0649 26.7195 56.0565 25.3383 55.7024C24.0634 55.3482 23.7801 54.3566 24.1342 53.0463C25.3029 48.4424 26.3653 43.8031 27.4632 39.1638C27.7111 38.0659 28.3485 37.1806 29.5172 37.4639C30.1547 37.641 30.6859 38.4555 31.1817 38.8805Z" fill="#005B97"></path>
    <path d="M26.8611 69.6202C26.4361 68.9119 25.657 68.2036 25.6924 67.5307C25.7632 66.9287 26.8257 65.8663 27.2506 65.9371C27.9589 66.0787 28.9151 66.9287 28.9859 67.6016C29.0922 68.2036 28.136 68.9473 27.6756 69.6202C27.4277 69.6202 27.1444 69.6202 26.8611 69.6202Z" fill="#005B97"></path>
    <path d="M61.6382 7.89281C64.2234 7.89281 66.8087 7.8574 69.4294 7.89281C72.8646 7.96364 75.4144 10.4781 75.4852 13.7362C75.5207 16.9943 73.0416 19.6504 69.571 19.7213C64.2234 19.8275 58.8404 19.8275 53.4928 19.7213C50.0222 19.6504 47.5786 16.9943 47.6494 13.7008C47.7203 10.4072 50.1993 7.96364 53.7053 7.89281C56.326 7.8574 58.9821 7.89281 61.6382 7.89281ZM61.4611 16.2152C64.011 16.2152 66.5254 16.2506 69.0752 16.2152C70.846 16.1798 71.8021 15.3653 71.8376 13.9133C71.873 12.4259 70.8814 11.5051 69.0398 11.4697C64.0464 11.4343 59.0175 11.4343 54.0241 11.4697C52.3242 11.4697 51.2617 12.3905 51.2263 13.7362C51.1909 15.1528 52.2533 16.1444 54.0595 16.1798C56.5031 16.2506 58.9821 16.2152 61.4611 16.2152Z" fill="#005B97"></path>
    <path d="M17.0513 7.8927C20.3803 7.8927 23.0364 10.478 23.1072 13.7715C23.178 17.0651 20.4157 19.8274 17.0159 19.792C13.6869 19.7566 11.1371 17.1713 11.1371 13.8069C11.1371 10.478 13.7223 7.92811 17.0513 7.8927ZM17.0513 11.505C15.7056 11.5404 14.7139 12.532 14.7139 13.8423C14.7139 15.2235 15.8118 16.2505 17.2284 16.1797C18.5387 16.1089 19.5657 15.011 19.5303 13.7361C19.4595 12.4966 18.3616 11.4696 17.0513 11.505Z" fill="#005B97"></path>
    <path d="M32.6691 7.8927C35.9626 7.92811 38.6187 10.5488 38.6187 13.8423C38.6187 17.1359 35.9626 19.7566 32.6691 19.7566C29.2693 19.7566 26.684 17.1359 26.7194 13.7007C26.7194 10.4071 29.3047 7.8927 32.6691 7.8927ZM32.5628 16.1797C33.9086 16.2151 34.9356 15.2589 34.971 13.9132C35.0064 12.5674 34.0856 11.5404 32.7399 11.4696C31.2879 11.3987 30.2609 12.3903 30.2255 13.8069C30.2255 15.1881 31.2171 16.1443 32.5628 16.1797Z" fill="#005B97"></path>
    <path d="M68.2961 74.6491C62.2402 74.6137 57.4947 69.7973 57.5301 63.706C57.5655 57.5793 62.4173 52.8692 68.6503 52.94C74.5645 53.0108 79.2746 57.8626 79.2746 63.8831C79.2038 69.939 74.352 74.7199 68.2961 74.6491ZM75.6269 63.8831C75.6623 59.775 72.5104 56.5523 68.4732 56.4814C64.4005 56.446 61.107 59.6333 61.0361 63.6352C60.9653 67.8141 64.1526 71.0722 68.2961 71.0722C72.4396 71.1076 75.6269 67.9558 75.6269 63.8831Z" fill="#005B97"></path>
  </g>
  <defs>
    <clipPath id="clip0_1_49">
      <rect width="90.6611" height="86.5176" fill="white" transform="translate(0.512695 0.101562)"></rect>
    </clipPath>
  </defs>
</svg>
