<?xml version="1.0" encoding="UTF-8"?>
<svg xmlns="http://www.w3.org/2000/svg" width="92" height="104" viewBox="0 0 92 104" fill="none">
  <g clip-path="url(#clip0_1_60)">
    <path d="M24.7891 69.1264C25.1771 68.7828 25.4789 68.2673 25.91 68.1385C26.4705 68.0096 27.3327 67.9667 27.6345 68.2673C27.9363 68.568 28.0225 69.7277 27.7638 69.9425C26.298 71.1022 27.074 72.3049 27.3758 73.5505C28.1949 76.9437 26.3411 80.5947 23.1509 82.098C19.9175 83.6443 16.0806 82.7853 13.8388 80.0363C11.5539 77.2444 11.4677 73.4646 13.6664 70.5438C15.7357 67.7519 19.6589 66.7211 22.8922 68.1385C23.5389 68.3962 24.1425 68.7828 24.7891 69.1264ZM22.8491 71.3599C20.1331 69.7277 17.5033 70.0714 15.9513 72.0901C14.4424 74.023 14.5717 76.8149 16.253 78.5759C17.9775 80.337 20.6935 80.5947 22.7198 79.1773C24.4873 77.9317 25.134 75.827 24.2287 74.023C23.2802 75.0538 22.418 76.0847 21.3833 76.9867C20.9091 77.3733 20.0469 77.7598 19.5726 77.5451C18.4517 77.1156 17.4171 76.3854 16.5117 75.6122C16.1668 75.3116 15.9513 74.2377 16.1668 74.023C16.5548 73.6364 17.3739 73.4216 17.9344 73.5075C18.5811 73.5935 19.1846 74.1518 20.0037 74.5814C20.3917 74.1089 20.7366 73.6794 21.1246 73.2498C21.642 72.6485 22.2024 72.0901 22.8491 71.3599Z" fill="#005B97"></path>
    <path d="M24.7891 27.6344C25.134 27.3337 25.3927 26.9471 25.7807 26.8183C26.3843 26.6465 27.0309 26.7324 27.6776 26.6894C27.6776 27.3337 27.9794 28.2357 27.6776 28.6223C26.9016 29.5672 26.7723 30.2974 27.1603 31.4571C28.3243 34.9363 26.7723 38.6731 23.5389 40.4342C20.4349 42.1093 16.4255 41.4221 14.0975 38.845C11.6401 36.096 11.4677 32.0585 13.6232 29.1807C15.865 26.2169 19.6589 25.229 23.0216 26.7324C23.582 26.9901 24.1425 27.3337 24.7891 27.6344ZM24.4011 32.3591C23.7976 33.0034 23.3664 33.4329 22.9353 33.9054C20.3055 36.8262 19.8744 36.8691 16.8566 34.3779C16.3824 33.9913 16.3393 33.0893 16.0806 32.445C16.8135 32.3591 17.5895 32.1014 18.3224 32.1873C18.8397 32.2303 19.314 32.7028 19.9175 33.0464C20.4349 32.488 20.9091 32.0155 21.3833 31.4571C21.8575 30.9417 22.2887 30.3833 22.7198 29.8679C20.3055 28.2787 17.9775 28.4934 16.2099 30.3404C14.5717 32.0585 14.4424 34.7215 15.8219 36.6544C17.2015 38.5443 19.8313 39.1886 21.9869 38.1577C24.1425 37.0839 25.0909 34.9363 24.4011 32.3591Z" fill="#005B97"></path>
    <path d="M24.746 48.4234C25.2203 47.9939 25.5652 47.5643 25.9963 47.3925C26.4705 47.2207 27.2896 47.1348 27.5052 47.3925C27.8501 47.7791 28.0656 48.8529 27.8501 49.0247C26.2981 50.2703 27.1172 51.6019 27.419 53.0623C28.1518 56.4984 26.1687 60.0635 22.9354 61.4809C19.702 62.8984 15.9082 61.9534 13.6664 59.1185C11.4677 56.3266 11.5108 52.3321 13.7957 49.6261C16.0375 46.8771 19.9175 45.9751 23.1509 47.5214C23.6683 47.7361 24.1425 48.0368 24.746 48.4234ZM24.358 53.0193C23.6683 53.7924 23.2371 54.3508 22.7198 54.8663C20.3056 57.4434 19.1847 57.4864 16.598 54.9951C16.21 54.6085 15.9944 53.5777 16.21 53.2341C16.4686 52.8475 17.4171 52.6757 17.9775 52.7616C18.6242 52.8904 19.2278 53.4059 19.9175 53.8354C20.9091 52.7186 21.8576 51.6878 22.806 50.614C20.1331 48.9818 17.8051 49.2395 16.0806 51.2153C14.6148 52.8904 14.4855 55.5964 15.822 57.3575C17.2446 59.2904 19.8313 59.9346 21.9438 58.9038C24.0994 57.8729 25.0478 55.7683 24.358 53.0193Z" fill="#005B97"></path>
    <path d="M46.2587 37.8571C41.9475 37.8571 37.6364 37.943 33.3252 37.8141C32.5492 37.7712 31.1696 37.041 31.0834 36.5256C30.911 35.0652 32.2474 35.0222 33.3683 35.0222C41.9906 35.0222 50.5698 35.0222 59.1921 35.0222C60.2699 35.0222 61.5633 34.9363 61.5633 36.4826C61.5202 38.0289 60.1837 37.8571 59.149 37.8571C54.8379 37.8571 50.5698 37.8571 46.2587 37.8571Z" fill="#005B97"></path>
    <path d="M46.3449 58.5172C41.9906 58.5172 37.5933 58.6031 33.239 58.4742C32.5061 58.4313 31.7732 57.6152 30.9972 57.1427C31.687 56.7132 32.3768 55.94 33.1097 55.94C41.9044 55.8541 50.7423 55.8541 59.5801 55.94C60.2699 55.94 61.477 56.6702 61.5633 57.1857C61.7788 58.646 60.5286 58.5601 59.4939 58.5601C55.0965 58.5172 50.6992 58.5172 46.3449 58.5172Z" fill="#005B97"></path>
    <path d="M46.2587 31.1135C41.9044 31.1135 37.507 31.1564 33.1528 31.0705C32.4199 31.0705 31.687 30.3403 30.9972 29.9108C31.7301 29.4383 32.4199 28.5363 33.1528 28.4934C41.9475 28.4075 50.7854 28.4075 59.5801 28.4934C60.2699 28.4934 60.9166 29.3095 61.6064 29.782C60.9597 30.2115 60.2699 31.0276 59.6232 31.0705C55.1828 31.1564 50.6992 31.1135 46.2587 31.1135Z" fill="#005B97"></path>
    <path d="M42.8098 49.1106C46.0432 49.1106 49.2765 49.0247 52.4668 49.1965C53.1997 49.2394 53.8895 50.1414 54.6224 50.6569C53.9326 51.0864 53.1997 51.9454 52.5099 51.9454C46.0863 52.0314 39.6195 52.0743 33.1959 51.9454C32.463 51.9454 31.7732 51.0005 31.0403 50.4851C31.7301 50.0555 32.463 49.2394 33.1528 49.1965C36.3431 49.0247 39.5764 49.1106 42.8098 49.1106Z" fill="#005B97"></path>
    <path d="M41.3871 72.6486C38.671 72.6486 35.9119 72.7345 33.1959 72.5627C32.4199 72.5197 31.7301 71.6607 30.9972 71.1453C31.687 70.7157 32.4199 69.8996 33.1097 69.8996C38.6279 69.8137 44.1462 69.8137 49.6645 69.8996C50.3543 69.8996 51.0441 70.7587 51.7338 71.1882C51.0009 71.6607 50.3112 72.5197 49.5352 72.5627C46.8191 72.7774 44.1031 72.6486 41.3871 72.6486Z" fill="#005B97"></path>
    <path d="M40.0075 79.2203C37.6364 79.2203 35.2652 79.3062 32.9372 79.1774C32.2905 79.1344 31.6439 78.4042 30.9972 78.0176C31.6439 77.5452 32.2905 76.6432 32.9372 76.6432C37.6364 76.5143 42.3786 76.5143 47.1209 76.6432C47.7676 76.6432 48.3711 77.5022 48.9747 77.9317C48.3711 78.3613 47.7676 79.1344 47.1209 79.1774C44.7498 79.3062 42.3786 79.2203 40.0075 79.2203Z" fill="#005B97"></path>
    <path d="M69.4527 87.7678C72.5136 84.4175 75.4452 81.239 78.4199 78.0176C79.1528 77.2015 80.0581 76.1706 81.0497 77.2445C81.3946 77.631 80.9635 79.2203 80.403 79.8645C77.687 83.0001 74.7554 85.9638 72.0825 89.0993C70.5736 90.8604 69.2802 91.247 67.4264 89.7866C66.09 88.7128 64.4948 88.0255 63.1153 86.9517C62.5979 86.5222 62.4686 85.6202 62.1237 84.9329C62.9428 84.847 63.8913 84.5034 64.538 84.8041C66.1762 85.5772 67.6851 86.651 69.4527 87.7678Z" fill="#005B97"></path>
    <path d="M21.9438 9.50844C21.8144 6.88834 23.2371 6.41586 25.2634 6.63062C25.91 6.71653 26.5567 6.58767 27.2034 6.63062C29.0572 6.80243 30.3936 6.54472 31.3421 4.44005C32.463 1.9488 34.9634 0.83204 37.7657 1.00385C40.4817 1.17566 42.4649 2.55014 43.8013 4.91252C44.06 5.42795 44.2755 5.94338 44.5773 6.63062C46.2156 6.63062 47.94 6.71653 49.6645 6.58767C51.6476 6.45881 52.8978 7.01719 52.7685 9.50844C56.6054 9.50844 60.313 9.7232 64.0206 9.46548C70.8322 8.99301 75.1865 13.5889 74.7985 20.2895C74.6692 22.4801 74.7985 24.7136 74.7985 27.4626C76.6954 25.7015 78.2474 24.2841 79.7994 22.8667C81.9981 20.8479 83.4208 20.8479 85.4902 22.9096C89.7151 27.1619 89.672 27.8921 85.3177 31.9296C82.1706 34.8504 78.9803 37.7712 75.9194 40.7778C75.3158 41.3792 74.8416 42.4959 74.8416 43.355C74.7554 49.5831 74.8416 55.8112 74.7554 62.0393C74.7554 63.4138 75.1003 63.9292 76.5661 64.2728C87.0422 66.8929 93.3796 76.6431 91.6982 87.4242C90.1893 97.3033 80.7048 104.82 70.3149 103.918C67.2971 103.66 64.3655 102.114 61.3908 101.212C60.0544 100.782 58.7179 100.181 57.3814 100.181C41.9475 100.095 26.4705 100.138 11.0366 100.138C3.44892 100.095 0 96.616 0 89.0564C0 65.905 0 42.7966 0 19.6882C0 14.1473 3.01781 10.1527 7.67385 9.59434C9.57076 9.37958 11.5539 9.50844 13.4939 9.50844C16.253 9.50844 18.9691 9.50844 21.9438 9.50844ZM66.6504 48.9388C64.15 49.4972 61.9944 50.0556 59.8388 50.4851C58.1143 50.8287 57.4246 50.0985 57.8557 48.3804C58.9766 44.1281 60.2268 40.0047 64.2362 37.3846C64.8828 36.9551 65.4433 36.3537 65.9175 35.7524C66.2624 35.3229 66.5642 34.7645 66.5642 34.292C66.6073 29.2666 66.6504 24.2841 66.5211 19.2586C66.5211 18.7003 65.6157 17.7124 65.1415 17.6694C61.089 17.5405 56.9934 17.5835 52.6823 17.5835C53.0703 20.2895 51.4321 20.2895 49.6214 20.2895C41.5164 20.2466 33.4114 20.2036 25.2634 20.2895C23.3233 20.2895 21.7713 20.1606 21.8575 17.5835C18.0637 17.5835 14.3992 17.6694 10.7779 17.5405C8.75164 17.4546 8.06186 18.056 8.06186 20.1606C8.14808 43.1832 8.14808 66.2486 8.06186 89.2712C8.06186 91.3758 8.70853 91.9772 10.7779 91.9342C24.1425 91.8483 37.507 91.8913 50.8285 91.8913C51.4752 91.8913 52.0787 91.8913 52.8547 91.8913C52.4236 89.9154 51.8201 88.1114 51.6476 86.3074C50.6992 76.1707 55.657 68.3533 65.1846 64.6164C65.7882 64.4017 66.5642 63.6715 66.5642 63.1561C66.6935 58.5601 66.6504 53.9213 66.6504 48.9388ZM89.1977 83.9021C89.1977 74.1948 81.4377 66.3775 71.7807 66.3345C62.2099 66.2916 54.2343 74.1948 54.1912 83.7732C54.1912 93.3516 61.9513 101.212 71.6514 101.298C81.2221 101.427 89.1977 93.5235 89.1977 83.9021ZM21.9438 12.1715C17.8051 12.1715 13.925 12.1715 10.045 12.1715C5.30272 12.1715 2.84536 14.6198 2.84536 19.2586C2.84536 42.8825 2.84536 66.4634 2.84536 90.0873C2.84536 94.8979 5.17338 97.2174 9.95876 97.2174C24.746 97.2174 39.5333 97.2174 54.3205 97.2174C54.9241 97.2174 55.4845 97.1315 56.0019 97.0885C55.3983 94.855 53.9325 94.5973 51.9925 94.5973C38.1537 94.6832 24.2718 94.6402 10.433 94.6402C6.50984 94.6402 5.43205 93.6094 5.43205 89.7007C5.43205 66.3775 5.43205 43.0543 5.43205 19.7311C5.43205 15.9513 6.59606 14.7916 10.4761 14.7916C14.2699 14.7916 18.0637 14.7916 21.9007 14.7916C21.9438 13.8037 21.9438 13.1164 21.9438 12.1715ZM49.8369 17.5405C49.8369 14.7916 49.8369 12.2574 49.8369 9.46548C47.8107 9.46548 45.8707 9.46548 43.9738 9.46548C42.6804 9.46548 42.0337 8.95006 41.7751 7.66148C41.3008 5.12729 39.6626 3.70986 37.4639 3.6669C35.2652 3.62395 33.5839 5.08433 33.1097 7.57558C32.851 8.99301 32.1181 9.50844 30.7385 9.46548C28.8416 9.42253 26.9447 9.46548 25.0478 9.46548C25.0478 12.3433 25.0478 14.8775 25.0478 17.5405C33.3252 17.5405 41.4733 17.5405 49.8369 17.5405ZM82.6448 23.8975C76.135 30.0397 69.7976 36.0101 63.5033 41.8946C64.7104 43.1402 65.7451 44.1711 66.9091 45.3737C73.2465 39.4034 79.5408 33.4759 85.9644 27.4196C84.8004 26.174 83.8519 25.1431 82.6448 23.8975ZM52.8547 14.7486C56.7779 14.7486 60.6579 14.7486 64.4948 14.7486C68.03 14.7486 69.3233 15.9943 69.3233 19.4734C69.3233 23.6398 69.3233 27.8491 69.3233 32.2303C71.2202 31.1994 72.0825 30.0827 71.9963 28.0639C71.8238 24.9284 71.9531 21.7928 71.9531 18.6573C71.91 15.1782 69.7545 12.4292 66.3055 12.2574C61.9082 11.9997 57.4677 12.2144 52.8547 12.2144C52.8547 13.0735 52.8547 13.8037 52.8547 14.7486ZM71.8238 44.2999C70.746 45.7174 69.4527 46.5764 69.4527 47.5214C69.2802 52.8475 69.3664 58.2165 69.3664 63.7144C70.358 63.6715 71.0909 63.6285 71.8669 63.5856C71.8238 57.2286 71.8238 51.1294 71.8238 44.2999Z" fill="#005B97"></path>
  </g>
  <defs>
    <clipPath id="clip0_1_60">
      <rect width="92" height="103" fill="white" transform="translate(0 0.960938)"></rect>
    </clipPath>
  </defs>
</svg>
