<?xml version="1.0" encoding="UTF-8"?>
<svg xmlns="http://www.w3.org/2000/svg" width="95" height="95" viewBox="0 0 95 95" fill="none">
  <g clip-path="url(#clip0_1_122)">
    <path d="M31.3895 77.7427C36.191 77.7427 40.9925 77.7427 45.9394 77.7427C45.9394 75.7057 45.9394 73.8142 45.9394 71.6318C44.1934 71.7773 43.3205 70.6133 42.884 68.8673C42.593 67.7033 41.5745 67.4123 40.7015 68.4308C39.392 70.0313 37.937 69.8858 36.482 68.8673C35.7545 68.2853 34.8815 67.9943 34.0085 67.4123C32.8445 66.6848 32.408 65.6663 32.699 64.2113C33.281 62.3198 32.699 61.7378 30.8075 62.3198C29.3525 62.7563 28.334 62.3198 27.752 61.0103C27.17 60.1373 26.7335 59.1188 26.1515 58.2458C25.2785 56.7908 25.424 55.6268 26.588 54.4628C27.752 53.4443 27.461 52.7168 26.1515 51.9893C25.133 51.4073 24.1145 50.5343 23.096 49.8068C23.2415 49.6613 23.2415 49.3703 23.387 49.2248C21.35 49.2248 19.4585 49.2248 17.4216 49.2248C14.5116 49.2248 14.3661 48.9338 14.3661 46.1694C14.3661 41.8044 14.3661 37.4394 14.3661 33.0744C14.3661 32.4924 14.3661 31.9104 14.2206 31.3284C4.03561 29.5824 -0.474874 21.1435 0.398123 13.5775C1.27112 6.30251 7.96409 0.482536 15.6756 0.337036C23.387 0.337036 30.2255 6.15701 31.0985 13.5775C32.117 22.5984 27.17 29.0004 17.4216 31.3284C17.4216 36.1299 17.4216 41.0769 17.4216 46.0239C19.4585 46.0239 21.35 46.0239 23.5325 46.0239C23.5325 44.1324 24.551 43.2594 26.4425 42.8229C27.461 42.5319 27.8975 41.6589 26.879 40.7859C25.2785 39.4764 25.2785 38.0214 26.4425 36.4209C26.879 35.6934 27.3155 34.9659 27.752 34.2384C28.4795 32.9289 29.498 32.4924 30.953 32.9289C32.699 33.3654 33.4265 32.7834 32.8445 31.0374C32.408 29.4369 32.99 28.4184 34.2995 27.6909C35.1725 27.2544 36.0455 26.6724 36.9185 26.2359C38.228 25.3629 39.392 25.5084 40.556 26.6724C41.8655 27.9819 42.593 27.6909 43.0295 25.9449C43.4659 24.3444 44.3389 23.6169 45.9394 23.7624C45.9394 21.4345 45.9394 19.1065 45.9394 16.924C45.9394 15.0325 46.6669 14.4505 48.4129 14.4505C52.9234 14.4505 57.2884 14.4505 61.7989 14.4505C62.3809 14.4505 62.9629 14.4505 63.6904 14.4505C64.4179 9.649 66.6004 5.86601 70.5288 3.10153C73.8753 0.773534 77.6583 0.191537 81.7323 0.628035C89.0073 1.64653 94.8272 8.776 94.5362 16.342C94.2452 24.6354 88.1343 30.8919 79.6953 31.3284C72.5658 31.7649 64.9999 26.8179 63.5449 17.506C58.7434 17.506 53.9419 17.506 48.9949 17.506C48.9949 19.543 48.9949 21.4345 48.9949 23.6169C50.7409 23.6169 51.4684 24.6354 51.9049 26.2359C52.1959 27.3999 53.2144 27.8364 54.0874 26.8179C55.5424 25.2174 56.8519 25.3629 58.4524 26.3814C59.1799 26.8179 59.9074 27.2544 60.6349 27.6909C61.7989 28.4184 62.3809 29.2914 61.9444 30.7464C61.3624 32.6379 61.9444 33.2199 63.8359 32.7834C65.4364 32.3469 66.3094 32.9289 67.0369 34.0929C67.4734 34.9659 67.9099 35.6934 68.4919 36.5664C69.5103 38.0214 69.5103 39.3309 68.0554 40.6404C67.0369 41.5134 67.3279 42.6774 68.6374 42.9684C70.3833 43.4049 71.2563 44.2779 71.2563 46.1694C73.1478 46.1694 75.0393 46.1694 76.9308 46.1694C80.4228 46.1694 80.5683 46.1694 80.5683 49.6613C80.5683 53.7353 80.5683 57.6638 80.5683 61.7378C80.5683 62.3198 80.5683 62.9018 80.5683 63.4838C88.8618 64.7933 95.7002 71.4863 94.3907 81.6712C93.3722 88.9462 86.3883 94.7662 78.8223 94.4752C70.5288 94.1842 64.2724 88.2187 63.6904 79.7797C63.1084 72.7958 67.9099 64.9388 77.5128 63.4838C77.5128 58.8278 77.5128 54.0263 77.5128 49.0793C75.4758 49.0793 73.5843 49.0793 71.5473 49.0793C71.2563 50.6798 70.2378 51.5528 68.4919 51.8438C67.6189 51.9893 67.1824 53.0078 68.0554 53.8808C69.8013 55.3358 69.6558 56.9363 68.3464 58.5368C67.9099 59.1188 67.4734 59.9918 67.1824 60.5738C66.4549 61.7378 65.4364 62.3198 64.1269 61.8833C62.2354 61.3013 61.6534 61.8833 62.2354 63.7748C62.6719 65.2298 62.2354 66.2483 60.9259 66.9758C60.0529 67.5578 59.0344 67.9943 58.1614 68.5763C56.7064 69.4493 55.5424 69.3038 54.3784 68.1398C53.2144 66.9758 52.3414 67.1213 51.9049 68.8673C51.4684 70.4678 50.5954 71.1953 48.8494 71.1953C48.8494 73.5232 48.8494 75.8512 48.8494 78.1792C48.8494 79.9252 48.2674 80.5072 46.5214 80.5072C41.429 80.5072 36.3365 80.5072 31.0985 80.5072C30.2255 85.7452 27.752 89.8192 23.2415 92.4382C19.895 94.3297 16.2576 94.9117 12.6201 94.1842C5.1996 92.7292 -0.183875 85.8907 0.252623 78.4702C0.689122 70.3223 6.3636 64.3568 14.8026 63.4838C20.768 63.3383 29.3525 66.6848 31.3895 77.7427ZM28.7705 38.4579C29.0615 38.7489 29.3525 39.0399 29.6435 39.4764C31.244 41.2224 30.2255 45.1509 28.043 45.7329C26.7335 46.0239 26.7335 46.7514 26.7335 47.7698C26.7335 48.9338 27.0245 49.3703 28.1885 49.6613C30.371 50.2433 31.3895 54.1718 29.789 55.7723C28.916 56.6453 28.916 57.2273 29.498 58.1003C30.08 58.9733 30.5165 59.4098 31.6805 59.1188C33.863 58.5368 36.773 61.4468 36.191 63.6293C35.9 64.6478 36.191 65.2298 37.064 65.6663C37.937 66.1028 38.519 66.5393 39.5375 65.5208C41.2835 63.7748 45.2119 64.7933 45.7939 67.2668C46.0849 68.4308 46.8124 68.4308 47.6854 68.4308C48.5584 68.4308 49.2859 68.4308 49.5769 67.2668C50.1589 64.7933 54.0874 63.7748 55.8334 65.5208C56.7064 66.2483 57.2884 66.2483 58.0159 65.6663C58.7434 65.2298 59.4709 64.7933 59.1799 63.6293C58.5979 61.0103 61.2169 58.3913 63.8359 58.9733C64.9999 59.2643 65.4364 58.6823 65.8729 57.9548C66.3094 57.0818 66.6004 56.4998 65.7274 55.7723C63.9814 54.0263 64.9999 50.0978 67.3279 49.5158C68.4919 49.2248 68.6374 48.6428 68.4919 47.6244C68.4919 46.7514 68.6374 45.8784 67.3279 45.7329C66.0184 45.5874 65.5819 44.7144 65.1454 43.5504C64.4179 41.5134 64.4179 39.7674 66.3094 38.6034C65.1454 36.1299 65.1454 36.1299 62.8174 36.4209C61.2169 36.5664 58.4524 33.5109 58.8889 31.9104C59.1799 30.7464 59.1799 30.1644 58.0159 29.4369C56.9974 28.8549 56.2699 29.0004 55.5424 29.7279C54.0874 31.1829 50.0134 30.1644 49.5769 28.1274C49.2859 26.9634 48.8494 26.6724 47.6854 26.6724C46.5214 26.6724 45.9394 26.8179 45.6484 28.1274C45.2119 30.1644 41.138 31.1829 39.683 29.7279C38.81 28.8549 38.228 28.7094 37.2095 29.4369C36.0455 30.0189 36.0455 30.7464 36.3365 31.9104C36.773 33.5109 33.863 36.8574 32.408 36.2754C29.9345 35.4024 29.498 36.8574 28.7705 38.4579ZM15.8211 91.7107C22.6595 91.7107 28.1885 86.1817 28.334 79.3432C28.4795 72.5048 22.6595 66.6848 15.8211 66.6848C8.98259 66.6848 3.30811 72.3593 3.30811 79.3432C3.45361 86.1817 8.98259 91.7107 15.8211 91.7107ZM91.6263 79.4887C91.7718 72.6503 86.2428 66.8303 79.2588 66.6848C72.5658 66.5393 66.8914 72.0683 66.6004 78.9067C66.3094 85.5997 71.8383 91.4197 78.8223 91.7107C85.6608 92.0017 91.4808 86.4727 91.6263 79.4887ZM3.45361 16.1965C3.59911 23.1804 9.27359 28.5639 16.1121 28.4184C23.096 28.2729 28.7705 22.4529 28.4795 15.6145C28.1885 8.6305 22.514 3.10153 15.6756 3.39252C8.54609 3.68352 3.16261 9.358 3.45361 16.1965ZM74.6028 17.6515C72.5658 13.723 72.7113 11.104 75.1848 9.067C77.3673 7.17551 80.4228 6.88451 82.6053 8.776C83.6238 9.5035 84.6423 10.813 84.7878 12.1225C84.9333 14.014 84.3513 15.9055 84.0603 18.088C86.2428 19.3975 87.2613 21.871 87.8433 24.9264C92.9358 20.125 92.7903 11.977 87.8433 7.17551C82.7508 2.08303 74.6028 2.37403 69.8013 7.61201C65.2909 12.559 65.5819 20.707 70.3833 24.7809C70.8198 21.7255 72.1293 19.252 74.6028 17.6515ZM73.5843 25.5084C73.1478 26.9634 74.1663 27.5454 75.6213 27.9819C78.3858 28.7094 81.0048 28.7094 83.6238 27.6909C84.0603 27.5454 84.6423 26.9634 84.7878 26.5269C85.3698 23.0349 83.0418 19.834 79.6953 19.543C76.3488 19.1065 73.5843 21.7255 73.5843 25.5084ZM82.1688 13.2865C82.1688 11.686 80.7138 10.3765 79.1133 10.3765C77.5128 10.3765 76.2033 11.8315 76.2033 13.432C76.2033 15.0325 77.5128 16.342 79.2588 16.342C80.8593 16.342 82.1688 15.0325 82.1688 13.2865Z" fill="#005B97"></path>
    <path d="M37.7915 47.6243C37.7915 42.2408 42.011 37.8759 47.3944 37.8759C52.9234 37.8759 57.1429 42.2408 57.1429 47.6243C57.1429 53.0078 52.7779 57.2273 47.3944 57.2273C42.011 57.2273 37.7915 53.0078 37.7915 47.6243ZM47.5399 40.9313C43.757 40.9313 40.847 43.9868 40.847 47.6243C40.847 51.4073 43.9024 54.3173 47.6854 54.3173C51.4684 54.3173 54.3784 51.2618 54.3784 47.4788C54.2329 43.8413 51.3229 40.9313 47.5399 40.9313Z" fill="#005B97"></path>
    <path d="M22.951 84.8722C22.078 84.8722 21.205 84.8722 20.332 84.8722C20.332 80.7982 20.332 76.7242 20.332 72.3593C21.205 72.3593 21.9325 72.3593 22.951 72.3593C22.951 76.4332 22.951 80.5072 22.951 84.8722Z" fill="#005B97"></path>
    <path d="M17.1311 84.8722C16.1126 84.8722 15.3851 84.8722 14.3667 84.8722C14.3667 81.6713 14.3667 78.4703 14.3667 75.2693C15.2396 75.2693 16.1126 75.2693 17.1311 75.2693C17.1311 78.3248 17.1311 81.5258 17.1311 84.8722Z" fill="#005B97"></path>
    <path d="M11.6016 84.8722C10.5831 84.8722 9.71009 84.8722 8.69159 84.8722C8.69159 82.6898 8.69159 80.5073 8.69159 78.3248C11.3106 77.5973 11.6016 77.7428 11.6016 80.2163C11.6016 81.6713 11.6016 83.2718 11.6016 84.8722Z" fill="#005B97"></path>
    <path d="M82.3143 83.8537C82.3143 82.2532 81.1503 81.8167 79.8408 81.8167C77.5128 81.6712 75.4758 80.9437 74.4573 78.6157C73.4388 76.2877 74.4573 73.6687 76.6398 72.3592C77.5128 71.9227 78.2403 71.6317 78.3858 70.4677C78.3858 70.1767 79.4043 69.5947 79.9863 69.5947C80.4228 69.5947 80.8593 70.3222 81.1503 70.7587C81.5868 71.3407 81.8778 71.9227 82.4598 72.5047C83.1873 73.2322 84.2058 73.8142 84.7878 74.6872C85.0788 75.2692 84.7878 76.1422 84.7878 77.0152C84.0603 76.8697 83.3328 76.8697 82.6053 76.5787C81.7323 76.1422 81.0048 75.2692 79.9863 74.9782C78.6768 74.5417 77.5128 75.1237 77.2218 76.5787C76.9308 78.0337 77.9493 78.7612 79.2588 78.9067C79.8408 79.0522 80.5683 78.9067 81.1503 79.0522C83.3328 79.3432 85.0788 80.9437 85.3698 82.9807C85.8063 85.4542 84.9333 87.3457 82.7508 88.6551C82.1688 88.9461 81.8778 89.8191 81.2958 90.2556C80.8593 90.6921 80.4228 91.2741 79.9863 91.2741C79.4043 91.2741 78.9678 90.6921 78.5313 90.2556C77.9493 89.6736 77.5128 88.9461 76.9308 88.2187C76.3488 87.4912 75.3303 87.0547 75.0393 86.3272C74.7483 85.7452 75.0393 84.8722 75.0393 83.9992C75.7668 84.1447 76.6398 84.1447 77.2218 84.4357C78.2403 84.8722 79.2588 85.8907 80.4228 86.0362C81.2958 86.1817 82.1688 85.3087 82.3143 83.8537Z" fill="#005B97"></path>
    <path d="M20.6225 15.9055C22.805 18.2335 22.0775 20.998 22.0775 23.617C22.0775 24.0535 21.059 24.781 20.4771 24.781C17.4216 24.9265 14.2206 24.9265 11.1651 24.781C10.5831 24.781 9.71009 23.908 9.56459 23.326C9.41909 20.998 9.1281 18.67 10.4376 16.4875C10.5831 16.1965 10.5831 15.469 10.4376 15.178C8.9826 13.141 9.41909 10.813 9.41909 8.48501C9.41909 7.46652 10.0011 6.88452 11.1651 6.88452C14.0751 6.88452 17.1306 6.88452 20.0406 6.88452C20.6225 6.88452 21.7865 7.61202 21.7865 8.04852C22.0775 10.813 22.805 13.5775 20.6225 15.9055ZM12.6201 10.0855C12.6201 11.686 12.1836 13.5775 13.7841 14.1595C15.0936 14.596 16.9851 14.596 18.1491 13.8685C19.0221 13.432 19.0221 11.5405 19.4586 10.0855C16.9851 10.0855 14.9481 10.0855 12.6201 10.0855ZM19.1676 21.871C19.1676 20.416 19.7496 18.5245 18.0036 17.9425C16.6941 17.506 14.9481 17.506 13.6386 18.088C12.1836 18.67 12.6201 20.416 12.6201 21.871C14.9481 21.871 16.9851 21.871 19.1676 21.871Z" fill="#005B97"></path>
  </g>
  <defs>
    <clipPath id="clip0_1_122">
      <rect width="94.2836" height="94.2836" fill="white" transform="translate(0.398438 0.482422)"></rect>
    </clipPath>
  </defs>
</svg>
