<?xml version="1.0" encoding="UTF-8"?>
<svg xmlns="http://www.w3.org/2000/svg" width="22" height="22" viewBox="0 0 22 22" fill="none">
  <path d="M17.2924 0.90862H5.15298C3.95641 0.892499 2.8023 1.345 1.94428 2.16669C1.08626 2.98838 0.594525 4.11203 0.577148 5.29068V17.5967C0.583914 18.1792 0.707191 18.7548 0.93993 19.2904C1.17267 19.826 1.5103 20.3112 1.93353 20.7181C2.35676 21.1251 2.85727 21.4459 3.40645 21.6622C3.95564 21.8785 4.54272 21.9861 5.13413 21.9787H17.2594C17.8504 21.9855 18.437 21.8775 18.9856 21.6609C19.5342 21.4443 20.0342 21.1234 20.4569 20.7165C20.8797 20.3096 21.2169 19.8246 21.4493 19.2893C21.6818 18.754 21.8049 18.1788 21.8116 17.5967V5.29068C21.7992 4.12021 21.3168 3.00219 20.47 2.18104C19.6231 1.3599 18.4807 0.90242 17.2924 0.90862ZM20.0162 17.5967C20.0162 18.2849 19.7386 18.9449 19.2446 19.4315C18.7506 19.9182 18.0806 20.1915 17.3819 20.1915H5.15298C4.455 20.2154 3.776 19.9652 3.26522 19.496C2.75445 19.0268 2.45373 18.377 2.42916 17.6895V5.29068C2.42792 4.94997 2.49505 4.61237 2.6267 4.29729C2.75835 3.98222 2.95192 3.69588 3.19628 3.45474C3.44065 3.2136 3.73099 3.0224 4.05061 2.89216C4.37023 2.76191 4.71284 2.69518 5.05873 2.6958H17.2782C17.9762 2.67199 18.6552 2.92217 19.166 3.39136C19.6768 3.86054 19.9775 4.51032 20.002 5.19784V5.29068L20.0162 17.5967Z" fill="white"></path>
  <path d="M11.224 5.96289C10.1251 5.96289 9.05092 6.28387 8.13724 6.88524C7.22355 7.48662 6.51142 8.34138 6.0909 9.34143C5.67038 10.3415 5.56035 11.4419 5.77473 12.5035C5.98911 13.5652 6.51827 14.5404 7.29529 15.3058C8.07232 16.0712 9.06231 16.5924 10.1401 16.8036C11.2178 17.0148 12.335 16.9064 13.3502 16.4922C14.3654 16.0779 15.2332 15.3764 15.8437 14.4764C16.4542 13.5764 16.78 12.5183 16.78 11.4358C16.78 9.98431 16.1947 8.59225 15.1527 7.56588C14.1107 6.5395 12.6976 5.96289 11.224 5.96289ZM11.224 15.0427C10.4895 15.0427 9.77159 14.8281 9.16092 14.4262C8.55025 14.0243 8.07429 13.453 7.79323 12.7846C7.51216 12.1162 7.43862 11.3807 7.58191 10.6711C7.72519 9.96158 8.07886 9.3098 8.5982 8.79823C9.11753 8.28667 9.77921 7.93829 10.4995 7.79714C11.2199 7.656 11.9665 7.72844 12.6451 8.0053C13.3236 8.28216 13.9036 8.751 14.3116 9.35254C14.7197 9.95408 14.9374 10.6613 14.9374 11.3848V11.4358C14.9325 12.4045 14.5397 13.332 13.8443 14.017C13.149 14.7019 12.2073 15.0889 11.224 15.0937V15.0427Z" fill="white"></path>
  <path d="M17.1843 6.97988C17.9052 6.97988 18.4896 6.40419 18.4896 5.69404C18.4896 4.98389 17.9052 4.4082 17.1843 4.4082C16.4633 4.4082 15.8789 4.98389 15.8789 5.69404C15.8789 6.40419 16.4633 6.97988 17.1843 6.97988Z" fill="white"></path>
</svg>
