<?xml version="1.0" encoding="UTF-8"?>
<svg xmlns="http://www.w3.org/2000/svg" width="17" height="24" viewBox="0 0 17 24" fill="none">
  <path d="M16.4642 11.9742C15.9648 12.835 11.3142 19.9679 9.05138 23.4267C7.64686 21.1977 4.43205 16.1862 2.80904 13.9726C0.780275 11.2055 0.858305 8.44613 0.858305 8.05421C0.858305 7.28516 2.10677 0.291114 8.97336 0.752288C18.571 1.44405 17.0884 10.8981 16.4642 11.9742Z" fill="white"></path>
  <path d="M4.91582 8.66831C4.91582 10.7908 6.66256 12.5114 8.81728 12.5114C10.972 12.5114 12.7188 10.7908 12.7188 8.66831C12.7188 6.54582 10.972 4.8252 8.81728 4.8252C6.66256 4.8252 4.91582 6.54582 4.91582 8.66831Z" fill="#005B97"></path>
</svg>
