<?xml version="1.0" encoding="UTF-8"?>
<svg xmlns="http://www.w3.org/2000/svg" width="102" height="103" viewBox="0 0 102 103" fill="none">
  <g clip-path="url(#clip0_1_133)">
    <path d="M79.9676 49.2099C76.8026 49.2099 74.4816 49.2099 72.1606 49.2099C69.4176 49.2099 68.1516 47.9439 68.1516 45.2009C68.1516 39.9259 68.1516 34.6509 68.1516 29.3759C68.1516 26.8439 69.4176 25.5779 71.9496 25.5779C80.6006 25.5779 89.4626 25.5779 98.1136 25.5779C100.646 25.5779 101.701 26.8439 101.912 29.1649C101.912 34.6509 101.912 39.9259 101.912 45.4119C101.912 48.1549 100.646 49.2099 97.9026 49.2099C95.5816 49.2099 93.2606 49.2099 90.9396 49.2099C89.8846 49.2099 89.2516 49.4209 88.8296 50.4759C87.3526 54.4849 84.1876 56.3839 80.1786 57.0169C79.5456 57.0169 78.4906 57.0169 78.2796 56.5949C78.0686 56.1729 78.2796 55.3289 78.4906 54.4849C78.7016 53.0079 79.1236 51.3199 79.9676 49.2099ZM82.0776 53.6409C84.6096 52.5859 86.0866 50.6869 86.2976 48.3659C86.5086 46.8889 87.1416 46.4669 88.6186 46.4669C91.3616 46.4669 94.1046 46.4669 96.8476 46.4669C98.3246 46.4669 98.9576 46.0449 98.9576 44.5679C98.9576 39.9259 98.9576 35.2839 98.9576 30.6419C98.9576 28.9539 98.5356 28.5319 96.8476 28.5319C88.8296 28.5319 80.8116 28.5319 73.0046 28.5319C72.3716 28.5319 71.7386 28.5319 71.3166 28.7429C71.3166 34.8619 71.3166 40.5589 71.3166 46.6779C73.2156 46.6779 74.9036 46.6779 76.8026 46.6779C82.7106 46.6779 83.1326 47.3109 82.0776 53.2189C82.0776 53.0079 82.0776 53.2189 82.0776 53.6409Z" fill="#005B97"></path>
    <path d="M66.0416 102.382C61.6106 101.538 57.1796 100.905 53.1706 99.639C47.6846 97.951 46.2076 94.786 47.4736 89.089C49.5836 79.1719 58.0236 73.2639 68.3626 73.8969C77.2246 74.5299 84.8206 82.5479 85.4536 91.832C85.6646 94.575 84.3986 96.685 82.2886 98.162C78.9126 100.272 75.1146 101.116 71.1056 101.538C69.4176 101.749 67.7296 101.749 66.2526 101.749C66.2526 101.96 66.2526 102.171 66.0416 102.382ZM66.0416 99.428C66.0416 99.217 66.0416 99.217 66.0416 99.006C67.5186 99.006 69.2066 99.006 70.6836 98.795C73.8486 98.162 77.0136 97.318 79.9676 96.263C81.6556 95.63 82.4996 94.153 82.2886 92.254C81.6556 84.447 75.3256 77.6949 67.9406 77.0619C59.0786 76.4289 52.1156 81.4929 50.2166 89.722C49.1616 93.942 50.0056 95.841 54.2256 97.107C58.2346 98.162 62.2436 98.584 66.0416 99.428Z" fill="#005B97"></path>
    <path d="M66.2526 71.9979C60.9776 71.9979 56.7576 67.7779 56.7576 62.2919C56.7576 57.0169 60.9776 52.7969 66.2526 52.7969C71.5276 52.7969 75.9586 57.2279 75.9586 62.5029C75.9586 67.7779 71.5276 71.9979 66.2526 71.9979ZM66.2526 69.0439C69.8396 69.0439 73.0046 66.0899 73.0046 62.5029C73.0046 58.9159 69.8396 55.5399 66.2526 55.5399C62.6656 55.5399 59.5006 58.4939 59.5006 62.2919C59.5006 66.0899 62.4546 69.0439 66.2526 69.0439Z" fill="#005B97"></path>
    <path d="M85.2429 30.642C88.1969 30.642 91.1509 30.642 94.1049 30.642C94.7379 30.642 95.3709 31.486 96.0039 31.908C95.3709 32.33 94.7379 33.385 94.1049 33.385C88.1969 33.596 82.0779 33.596 76.1699 33.385C75.5369 33.385 74.2709 32.541 74.2709 31.908C74.0599 30.642 75.3259 30.642 76.1699 30.642C79.1239 30.642 82.0779 30.642 85.2429 30.642Z" fill="#005B97"></path>
    <path d="M84.8206 43.9349C81.8666 43.9349 78.9126 43.9349 75.9586 43.9349C74.9036 43.9349 73.8486 43.9349 74.0596 42.4579C74.2706 41.8249 75.3256 40.9809 75.9586 40.9809C81.8666 40.7699 87.9856 40.7699 93.8936 40.9809C94.5266 40.9809 95.1597 42.0359 95.7927 42.4579C95.1597 42.8799 94.5266 43.7239 93.8936 43.7239C90.9396 44.1459 87.9856 43.9349 84.8206 43.9349Z" fill="#005B97"></path>
    <path d="M85.0313 38.8709C82.0773 38.8709 79.1233 38.8709 76.1693 38.8709C75.1143 38.8709 73.8483 38.8709 73.8483 37.3939C73.8483 35.9169 75.1143 35.9169 76.1693 35.9169C82.0773 35.9169 87.7743 35.9169 93.6823 35.9169C94.3153 35.9169 95.5813 36.5499 95.7923 37.1829C96.0033 38.6599 94.7373 38.6599 93.6823 38.6599C90.9393 38.8709 87.9853 38.8709 85.0313 38.8709Z" fill="#005B97"></path>
    <path d="M31.2271 45.6229C30.3831 45.6229 29.7501 45.6229 28.6951 45.6229C28.6951 47.5219 28.6951 49.6319 28.6951 51.5309C28.6951 53.4299 28.0621 54.4849 26.1631 54.2739C24.8971 54.0629 24.0531 54.4849 23.4201 55.7509C22.1541 57.8609 19.6221 58.7049 17.3011 57.8609C15.1911 57.2279 13.7141 55.1179 13.9251 52.7969C13.9251 50.4759 15.4021 48.5769 17.7231 47.9439C19.8331 47.3109 22.1541 48.1549 23.6311 50.2649C24.0531 50.8979 24.8971 51.3199 25.5301 51.7419C25.7411 51.5309 25.7411 51.5309 25.9521 51.3199C25.9521 49.6319 25.9521 47.7329 25.9521 46.0449C24.0531 44.5679 20.4661 47.5219 19.8331 43.3019C15.6131 43.3019 11.6041 43.3019 7.38406 43.3019C7.38406 43.9349 7.17306 44.3569 7.17306 44.7789C7.17306 54.0629 7.17306 63.1359 7.17306 72.4199C7.17306 73.4749 7.59506 74.1079 8.43906 74.7409C10.5491 76.0069 11.3931 78.3279 10.5491 80.6489C9.70506 82.9699 7.80606 84.4469 5.48506 84.4469C3.37506 84.4469 1.05405 82.7589 0.632053 80.6489C-0.00094722 78.3279 0.843053 76.0069 3.16406 74.7409C4.21906 74.1079 4.43006 73.4749 4.43006 72.4199C4.43006 62.7139 4.43006 53.0079 4.43006 43.3019C4.43006 40.5589 4.64106 40.3479 7.38406 40.3479C11.6041 40.3479 15.8241 40.3479 20.0441 40.3479C20.0441 38.2379 20.0441 36.3389 20.0441 34.0179C17.3011 34.0179 14.5581 34.0179 11.8151 34.0179C11.3931 34.0179 10.7601 34.4399 10.5491 35.0729C8.86106 37.3939 6.75106 38.4489 4.43006 37.6049C2.32005 36.9719 0.843054 35.0729 0.632053 32.7519C0.632053 30.4309 2.10905 28.3209 4.43006 27.6879C6.75106 27.0549 9.07206 27.8989 10.5491 30.2199C10.7601 30.6419 11.1821 31.0639 11.6041 31.0639C14.3471 31.0639 17.3011 31.0639 20.2551 31.0639C20.2551 27.8989 20.2551 25.1559 20.2551 22.2019C20.2551 19.6699 20.4661 19.4589 22.9981 19.4589C24.0531 19.4589 25.1081 19.4589 26.3741 19.4589C26.3741 17.5599 26.3741 15.6609 26.3741 13.1289C25.3191 13.7619 24.6861 14.1839 24.2641 14.8169C22.7871 16.9269 20.4661 17.9819 18.1451 17.3489C15.1911 16.7159 13.5031 14.6059 13.7141 12.2849C13.7141 9.96388 15.1911 8.06488 17.3011 7.43188C19.6221 6.79888 22.1541 7.64288 23.2091 9.75288C23.8421 10.8079 24.4751 11.0189 25.5301 11.0189C28.2731 11.0189 28.4841 11.2299 28.4841 13.9729C28.4841 15.6609 28.4841 17.5599 28.4841 19.4589C29.3281 19.4589 30.1721 19.4589 31.0161 19.4589C31.0161 16.7159 31.0161 13.7619 31.0161 11.0189C31.0161 10.5969 30.3831 9.96388 29.9611 9.75288C27.8511 8.27588 26.7961 5.95488 27.4291 3.84488C28.2731 1.52388 30.1721 0.046875 32.7041 0.046875C35.0251 0.046875 37.1351 1.52388 37.7681 3.63388C38.4011 5.95488 37.5571 8.27588 35.2361 9.75288C34.8141 9.96388 34.1811 10.5969 34.1811 11.0189C34.1811 13.7619 34.1811 16.5049 34.1811 19.2479C35.0251 19.2479 35.8691 19.2479 36.9241 19.2479C36.9241 17.3489 36.9241 15.2389 36.9241 13.3399C36.9241 11.4409 37.3461 10.3859 39.4561 10.5969C40.7221 10.8079 41.5661 10.3859 42.4101 9.11988C43.4651 7.22088 45.9971 6.37688 48.1071 7.00988C50.2171 7.64288 51.6941 9.75288 51.9051 11.8629C51.9051 14.1839 50.2171 16.2939 48.1071 16.9269C45.9971 17.5599 43.4651 16.7159 42.4101 14.8169C41.7771 13.9729 41.5661 12.7069 40.0891 13.5509C40.0891 15.2389 40.0891 16.9269 40.0891 19.0369C41.3551 19.0369 42.6211 19.0369 43.8871 19.0369C45.3641 19.0369 45.9971 19.6699 45.9971 21.1469C45.9971 24.3119 45.9971 27.2659 45.9971 30.6419C48.9511 30.6419 51.6941 30.6419 54.6481 30.6419C55.0701 30.6419 55.4921 30.0089 55.9141 29.5869C57.3911 27.4769 59.7121 26.4219 62.0331 27.0549C64.1431 27.6879 65.8311 30.0089 65.8311 32.1189C65.8311 34.2289 64.1431 36.5499 62.0331 37.1829C59.7121 37.8159 57.3911 36.9719 55.9141 34.6509C55.7031 34.2289 55.0701 33.5959 54.6481 33.5959C51.9051 33.5959 49.1621 33.5959 46.2081 33.5959C46.2081 36.3389 46.2081 38.8709 46.2081 41.4029C46.2081 45.2009 46.2081 45.2009 42.4101 45.2009C41.7771 45.2009 41.1441 45.2009 40.3001 45.2009C40.3001 45.8339 40.0891 46.2559 40.0891 46.6779C40.0891 47.9439 40.0891 49.2099 40.0891 50.4759C41.5661 51.3199 41.9881 50.2649 42.6211 49.4209C43.8871 47.5219 45.5751 46.8889 47.6851 47.0999C49.7951 47.5219 51.2721 48.7879 51.9051 51.1089C52.5381 53.2189 51.6941 55.1179 50.0061 56.3839C47.6851 58.2829 44.0981 57.6499 42.4101 55.1179C41.7771 53.8519 40.9331 53.6409 39.6671 53.6409C37.5571 53.8519 36.9241 53.0079 37.1351 51.1089C37.1351 49.2099 37.1351 47.3109 37.1351 45.2009C36.2911 45.2009 35.4471 45.2009 34.3921 45.2009C34.3921 47.9439 34.3921 50.8979 34.3921 53.8519C34.3921 54.2739 35.0251 54.6959 35.4471 54.9069C37.7681 56.3839 38.6121 58.7049 37.9791 61.0259C37.3461 63.1359 35.2361 64.6129 32.9151 64.8239C30.5941 64.8239 28.4841 63.1359 27.8511 61.0259C27.2181 58.7049 28.0621 56.5949 30.3831 54.9069C30.8051 54.4849 31.4381 53.8519 31.4381 53.2189C31.2271 51.1089 31.2271 48.5769 31.2271 45.6229ZM42.6211 42.6689C42.6211 35.9169 42.6211 29.1649 42.6211 22.6239C35.8691 22.6239 29.3281 22.6239 22.5761 22.6239C22.5761 29.3759 22.5761 35.9169 22.5761 42.6689C29.3281 42.6689 35.8691 42.6689 42.6211 42.6689ZM45.9971 15.0279C46.4191 15.0279 46.6301 15.0279 47.0521 15.0279C47.4741 14.1839 48.5291 13.1289 48.5291 12.2849C48.7401 11.0189 47.6851 10.1749 46.2081 10.1749C44.7311 10.1749 43.6761 11.2299 43.8871 12.4959C44.3091 13.3399 45.3641 14.1839 45.9971 15.0279ZM60.1341 34.8619C61.4001 34.6509 62.4551 33.8069 62.0331 32.5409C61.8221 31.6969 60.7671 30.6419 59.7121 30.4309C58.2351 30.2199 57.3911 31.2749 57.3911 32.7519C57.6021 34.0179 58.6571 34.8619 60.1341 34.8619ZM45.7861 55.5399C46.2081 55.5399 46.4191 55.5399 46.8411 55.5399C47.4741 54.6959 48.5291 53.8519 48.7401 53.0079C48.9511 51.7419 47.8961 50.4759 46.4191 50.6869C45.5751 50.8979 44.3091 51.9529 44.3091 52.7969C44.0981 53.6409 45.1531 54.4849 45.7861 55.5399ZM29.9611 59.5489C29.9611 59.9709 29.9611 60.1819 29.9611 60.6039C30.8051 61.2369 31.6491 62.2919 32.7041 62.2919C33.9701 62.5029 35.0251 61.4479 34.8141 59.9709C34.8141 58.4939 33.7591 57.6499 32.7041 57.8609C31.6491 57.8609 30.8051 58.9159 29.9611 59.5489ZM35.0251 5.95488C34.8141 3.63388 33.9701 3.00088 32.7041 3.00088C31.4381 3.00088 30.5941 3.84488 30.5941 5.11088C30.5941 6.58788 31.4381 7.64288 32.9151 7.43188C33.5481 7.43188 34.3921 6.37688 35.0251 5.95488ZM19.2001 14.8169C19.8331 14.1839 20.8881 13.5509 21.0991 12.4959C21.5211 11.2299 20.4661 10.1749 18.9891 9.96388C17.7231 9.96388 16.6681 10.5969 16.6681 12.0739C16.4571 13.5509 17.0901 14.3949 19.2001 14.8169ZM5.90706 34.8619C6.32906 34.2289 7.38406 33.3849 7.38406 32.5409C7.59506 31.2749 6.54006 30.2199 5.06306 30.4309C3.58606 30.4309 2.95306 31.2749 2.95306 32.7519C2.95306 34.0179 3.79706 34.8619 5.90706 34.8619ZM19.4111 55.3289C19.8331 54.6959 20.8881 53.8519 21.0991 53.0079C21.3101 51.7419 20.2551 50.6869 18.7781 50.6869C17.5121 50.6869 16.6681 51.5309 16.4571 52.7969C16.4571 54.2739 17.3011 55.1179 19.4111 55.3289ZM2.95306 79.8049C3.58606 80.2269 4.43006 81.2819 5.48506 81.2819C6.75106 81.4929 8.01706 80.2269 7.59506 78.9609C7.38406 78.1169 6.32906 77.0619 5.27406 76.8509C3.79706 76.6399 2.95306 77.6949 2.95306 79.8049Z" fill="#005B97"></path>
  </g>
  <defs>
    <clipPath id="clip0_1_133">
      <rect width="101.913" height="102.335" fill="white" transform="translate(-0.000976562 0.046875)"></rect>
    </clipPath>
  </defs>
</svg>
