<?xml version="1.0" encoding="UTF-8"?>
<svg xmlns="http://www.w3.org/2000/svg" width="21" height="14" viewBox="0 0 21 14" fill="none">
  <path d="M1.1543 0.496094C7.47955 0.496094 13.7585 0.496094 20.0838 0.496094C19.9603 0.616921 19.8678 0.707837 19.7752 0.798457C17.8931 2.50515 15.9955 4.2113 14.1133 5.91799C12.9717 6.96013 11.8301 7.98687 10.673 9.0139C10.3953 9.27066 10.1331 9.27101 9.85537 8.99915C8.59032 7.76067 7.32526 6.537 6.06021 5.29851C5.01115 4.27148 3.96209 3.24439 2.91302 2.21735C2.38849 1.70384 1.86395 1.20578 1.33942 0.692261C1.29314 0.646951 1.23143 0.586714 1.1543 0.496094Z" fill="white"></path>
  <path d="M13.8975 7.47461C15.9802 9.58909 18.032 11.6888 20.1301 13.8183C13.774 13.8183 7.47964 13.8183 1.12354 13.8183C1.29324 13.6371 1.41665 13.4856 1.5555 13.3346C3.11367 11.6883 4.68726 10.0265 6.24543 8.38023C6.44599 8.16878 6.64656 7.97255 6.83168 7.746C6.93968 7.62517 7.01681 7.62517 7.14023 7.746C7.80361 8.41055 8.49784 9.06082 9.16122 9.72537C9.79375 10.3446 10.6731 10.359 11.3211 9.75487C12.1233 9.02991 12.9101 8.32052 13.7123 7.59555C13.774 7.56535 13.8203 7.53502 13.8975 7.47461Z" fill="white"></path>
  <path d="M20.857 1.19092C20.857 5.17822 20.857 9.10529 20.857 13.0775C20.7799 13.0171 20.7182 12.972 20.6873 12.9418C19.916 12.1564 19.1446 11.3702 18.3887 10.5848C17.1853 9.36146 15.982 8.1382 14.7786 6.92993C14.6552 6.8091 14.7015 6.74916 14.7941 6.65854C15.6117 5.91847 16.4294 5.17881 17.2624 4.43875C18.4041 3.41171 19.5457 2.38462 20.6873 1.35759C20.7182 1.29717 20.7645 1.26644 20.857 1.19092Z" fill="white"></path>
  <path d="M0.429688 13.046C0.429688 9.10401 0.429688 5.20762 0.429688 1.26562C0.506825 1.32604 0.583961 1.37188 0.645671 1.43229C2.46611 3.2145 4.30198 4.98201 6.12242 6.76422C6.24584 6.88505 6.24584 6.9605 6.12242 7.08133C4.79566 8.47085 3.48431 9.86001 2.17297 11.2495C1.63301 11.8235 1.09306 12.3969 0.537667 12.9708C0.52224 12.9859 0.47597 13.0158 0.429688 13.046Z" fill="white"></path>
</svg>
