<?xml version="1.0" encoding="UTF-8"?>
<svg xmlns="http://www.w3.org/2000/svg" width="19" height="19" viewBox="0 0 19 19" fill="none">
  <path d="M0.562222 5.9667L4.33222 6.00383L4.20027 17.9756L0.430273 17.9338L0.562222 5.9667ZM2.52734 0.0341948C2.95912 0.0415531 3.37901 0.174695 3.73408 0.41682C4.08915 0.658944 4.36349 0.999209 4.5225 1.39471C4.6815 1.79022 4.71805 2.22325 4.62754 2.63919C4.53703 3.05513 4.32352 3.43535 4.01393 3.73192C3.70433 4.02849 3.31253 4.22811 2.88791 4.30561C2.46329 4.38312 2.02487 4.33504 1.62796 4.16743C1.23104 3.99982 0.893405 3.72019 0.657614 3.36381C0.421824 3.00743 0.298452 2.59025 0.303041 2.16489C0.304848 1.88048 0.364058 1.59926 0.477243 1.33761C0.590428 1.07596 0.755317 0.839094 0.962313 0.64081C1.16931 0.442526 1.41428 0.286779 1.68296 0.182636C1.95164 0.0784936 2.23867 0.028033 2.52734 0.0341948Z" fill="white"></path>
  <path d="M6.67334 6.03114L10.2925 6.06827V7.70227C10.6614 7.09422 11.1915 6.59664 11.8258 6.26296C12.4601 5.92928 13.1747 5.77211 13.8929 5.80832C17.71 5.8501 18.3933 8.33358 18.3603 11.5644L18.2896 18.1236L14.5998 18.0865L14.6657 12.2607C14.6657 10.8681 14.6987 9.08559 12.7383 9.06238C10.7779 9.03917 10.4575 10.5571 10.4433 12.0472L10.3774 17.975L6.56024 17.9333L6.67334 6.03114Z" fill="white"></path>
</svg>
