<?xml version="1.0" encoding="UTF-8"?>
<svg xmlns="http://www.w3.org/2000/svg" width="292" height="70" viewBox="0 0 292 70" fill="none">
  <g clip-path="url(#clip0_113_95)">
    <path d="M84.3952 43.9903H78.2598V8.38281H84.3952V43.9903Z" fill="black"></path>
    <path d="M92.0649 20.7626C94.5848 18.1331 97.6525 16.8184 101.158 16.8184C104.664 16.8184 107.732 18.1331 110.252 20.7626C112.772 23.392 113.977 26.5693 113.977 30.404V43.9896H108.061V30.404C108.061 28.3223 107.403 26.4598 106.089 24.9259C104.774 23.3921 103.131 22.6251 101.268 22.6251C99.4055 22.6251 97.7621 23.3921 96.4473 24.9259C95.1326 26.4598 94.4752 28.2128 94.4752 30.404V44.0992H88.5589V30.404C88.3398 26.5693 89.545 23.392 92.0649 20.7626Z" fill="black"></path>
    <path d="M120.879 20.7626C123.399 18.1331 126.467 16.8184 129.973 16.8184C133.479 16.8184 136.546 18.1331 139.066 20.7626C141.586 23.392 142.791 26.5693 142.791 30.404V43.9896H136.875V30.404C136.875 28.3223 136.218 26.4598 134.903 24.9259C133.588 23.3921 131.945 22.6251 130.082 22.6251C128.22 22.6251 126.576 23.3921 125.262 24.9259C123.947 26.4598 123.289 28.2128 123.289 30.404V44.0992H117.373V30.404C117.154 26.5693 118.359 23.392 120.879 20.7626Z" fill="black"></path>
    <path d="M149.146 20.7626C151.666 18.1331 154.734 16.8184 158.24 16.8184C161.746 16.8184 164.813 18.1331 167.333 20.7626C169.853 23.392 171.058 26.5693 171.058 30.404C171.058 34.2386 169.853 37.4159 167.333 40.0454C164.813 42.6749 161.746 43.9896 158.24 43.9896C154.734 43.9896 151.666 42.6749 149.146 40.0454C146.626 37.4159 145.421 34.2386 145.421 30.404C145.421 26.5693 146.626 23.392 149.146 20.7626ZM153.309 35.7725C154.624 37.3064 156.268 38.0733 158.13 38.0733C159.993 38.0733 161.636 37.3064 162.951 35.7725C164.266 34.2386 164.923 32.4857 164.923 30.2944C164.923 28.2128 164.266 26.3502 162.951 24.8163C161.636 23.2825 159.993 22.5156 158.13 22.5156C156.268 22.5156 154.624 23.2825 153.309 24.8163C151.995 26.3502 151.337 28.1032 151.337 30.2944C151.337 32.4857 151.995 34.2386 153.309 35.7725Z" fill="black"></path>
    <path d="M198.12 38.8409V43.9903H174.346V8.38281H180.481V38.9505H198.12V38.8409Z" fill="black"></path>
    <path d="M202.393 20.7626C204.913 18.1331 207.98 16.8184 211.486 16.8184C214.992 16.8184 218.06 18.1331 220.58 20.7626C223.1 23.392 224.305 26.5693 224.305 30.404C224.305 34.2386 223.1 37.4159 220.58 40.0454C218.06 42.6749 214.992 43.9896 211.486 43.9896C207.98 43.9896 204.913 42.6749 202.393 40.0454C199.873 37.4159 198.668 34.2386 198.668 30.404C198.668 26.5693 199.873 23.392 202.393 20.7626ZM206.556 35.7725C207.871 37.3064 209.514 38.0733 211.377 38.0733C213.239 38.0733 214.883 37.3064 216.197 35.7725C217.512 34.2386 218.169 32.4857 218.169 30.2944C218.169 28.2128 217.512 26.3502 216.197 24.8163C214.883 23.2825 213.239 22.5156 211.377 22.5156C209.514 22.5156 207.871 23.2825 206.556 24.8163C205.241 26.3502 204.584 28.1032 204.584 30.2944C204.584 32.4857 205.241 34.2386 206.556 35.7725Z" fill="black"></path>
    <path d="M245.67 17.8039H251.586V42.8934C251.586 46.2898 250.49 48.9193 248.299 50.8914C246.108 52.8635 243.259 53.8496 239.644 53.8496C239.425 53.8496 239.096 53.8496 238.767 53.8496V48.7002C239.096 48.7002 239.425 48.7002 239.753 48.7002C241.616 48.7002 243.04 48.1524 244.026 47.0568C245.012 45.9612 245.56 44.5369 245.56 42.5648V42.3456C243.479 43.6604 241.287 44.3177 238.987 44.3177C235.481 44.3177 232.413 43.003 229.893 40.3735C227.373 37.744 226.168 34.5668 226.168 30.7321C226.168 27.007 227.373 23.7202 229.893 21.0907C232.413 18.4612 235.481 17.1465 238.987 17.1465C241.397 17.1465 243.588 17.8039 245.56 19.1186V17.8039H245.67ZM238.987 38.6205C240.849 38.6205 242.493 37.8536 243.807 36.3197C245.122 34.7859 245.779 32.9233 245.779 30.7321C245.779 28.5409 245.122 26.6783 243.807 25.1445C242.493 23.6106 240.849 22.8437 238.987 22.8437C237.124 22.8437 235.481 23.6106 234.166 25.1445C232.851 26.6783 232.194 28.5409 232.194 30.7321C232.194 31.499 232.303 32.1564 232.413 32.8138C232.522 33.4711 232.742 34.1285 233.07 34.6763C233.399 35.2241 233.728 35.7719 234.166 36.3197C234.604 36.8676 235.042 37.1962 235.59 37.5249C236.138 37.8536 236.686 38.1823 237.234 38.2919C237.672 38.511 238.329 38.6205 238.987 38.6205Z" fill="black"></path>
    <path d="M258.927 15.285C258.269 15.285 257.721 15.1754 257.174 14.8468C256.626 14.5181 256.188 14.0798 255.968 13.6416C255.64 13.0938 255.53 12.546 255.53 11.8886C255.53 10.9025 255.859 10.1356 256.516 9.47824C257.174 8.82087 258.05 8.49219 258.927 8.49219C259.803 8.49219 260.68 8.82087 261.337 9.47824C261.994 10.1356 262.323 11.0121 262.323 11.8886C262.323 12.8746 261.994 13.6416 261.337 14.2989C260.68 14.8468 259.803 15.285 258.927 15.285ZM261.775 43.9901H255.859V16.7093H261.775V43.9901Z" fill="black"></path>
    <path d="M277.771 38.4014C278.757 38.4014 279.634 38.1823 280.51 37.744C281.387 37.3058 282.044 36.758 282.701 36.1006C283.359 35.3337 283.797 34.5668 284.126 33.6903H290.261C289.604 36.758 288.07 39.2779 285.769 41.3596C283.468 43.3317 280.729 44.3177 277.771 44.3177C274.265 44.3177 271.198 43.003 268.678 40.3735C266.158 37.744 264.953 34.5668 264.953 30.7321C264.953 27.007 266.158 23.7202 268.678 21.0907C271.198 18.4612 274.265 17.1465 277.771 17.1465C280.839 17.1465 283.468 18.1325 285.769 20.1046C288.07 22.0768 289.604 24.7062 290.261 27.7739H284.126C283.797 26.8975 283.249 26.021 282.701 25.3636C282.044 24.5967 281.387 24.0489 280.51 23.7202C279.634 23.2819 278.757 23.0628 277.771 23.0628C276.566 23.0628 275.361 23.3915 274.265 24.1584C273.17 24.8158 272.403 25.8018 271.745 27.007C271.088 28.2122 270.869 29.4174 270.869 30.8417C270.869 32.266 271.198 33.4711 271.745 34.6763C272.403 35.8815 273.17 36.758 274.265 37.5249C275.361 38.0727 276.566 38.4014 277.771 38.4014Z" fill="black"></path>
    <path d="M85.6014 53.631C86.8066 53.631 87.7926 53.8502 88.45 54.398C89.1074 54.9458 89.436 55.6032 89.436 56.6988C89.436 57.3561 89.3265 57.9039 88.9978 58.3422C88.6691 58.7804 88.3404 59.2187 87.7926 59.4378C87.2448 59.6569 86.697 59.876 85.9301 59.876L85.7109 58.9996C86.4779 58.9996 87.2448 59.2187 87.9022 59.4378C88.5595 59.6569 89.1074 60.0952 89.436 60.5334C89.7647 60.9717 89.9839 61.629 89.9839 62.1768C89.9839 62.7246 89.8743 63.2725 89.6552 63.7107C89.436 64.1489 89.1074 64.4776 88.7787 64.8063C88.45 65.0254 88.0117 65.2446 87.4639 65.3541C86.9161 65.4637 86.4779 65.5732 85.9301 65.5732H82.3145V53.5215H85.6014V53.631ZM85.9301 58.89C86.5874 58.89 87.0257 58.6709 87.3544 58.3422C87.6831 58.0135 87.7926 57.5753 87.7926 57.0275C87.7926 56.3701 87.5735 55.9318 87.2448 55.6032C86.8066 55.2745 86.3683 55.1649 85.7109 55.1649H84.1771V58.89H85.9301ZM85.9301 64.1489C86.3683 64.1489 86.8066 64.0394 87.1352 63.9298C87.4639 63.8203 87.7926 63.6011 88.0117 63.2725C88.2309 62.9438 88.3404 62.6151 88.3404 62.2864C88.3404 61.8482 88.2309 61.4099 88.0117 61.1908C87.7926 60.9717 87.4639 60.7525 87.0257 60.643C86.5874 60.5334 86.2588 60.4239 85.8205 60.4239H84.0675V64.1489H85.9301Z" fill="#25BDC1"></path>
    <path d="M96.2286 65.9027C95.5712 65.9027 95.0234 65.6836 94.6948 65.3549C94.2565 65.0263 94.0374 64.4784 94.0374 63.8211V58.7812H95.5712V63.2733C95.5712 63.602 95.6808 63.9306 95.8999 64.1498C96.119 64.3689 96.4477 64.4784 96.7764 64.4784C97.1051 64.4784 97.5434 64.3689 97.7625 64.1498C97.9816 63.9306 98.3103 63.602 98.5294 63.2733C98.7485 62.835 98.8581 62.3968 98.8581 61.9585V58.7812H100.392V65.6836H98.9677L98.8581 64.0402L98.9677 64.3689C98.8581 64.6976 98.639 64.9167 98.3103 65.2454C97.9816 65.5741 97.7625 65.6836 97.3242 65.7932C96.9955 65.7932 96.6669 65.9027 96.2286 65.9027Z" fill="#25BDC1"></path>
    <path d="M106.637 65.7934C106.199 65.7934 105.651 65.6838 105.213 65.5742C104.775 65.3551 104.337 65.136 104.117 64.8073L104.775 63.9308C105.104 64.2595 105.323 64.3691 105.651 64.5882C105.98 64.6978 106.199 64.8073 106.528 64.8073C106.747 64.8073 106.966 64.8073 107.185 64.6978C107.404 64.5882 107.514 64.5882 107.623 64.3691C107.733 64.2595 107.843 64.0404 107.843 63.8213C107.843 63.6021 107.733 63.383 107.623 63.2735C107.514 63.1639 107.295 63.0543 106.966 62.9448C106.747 62.8352 106.418 62.7256 106.199 62.7256C105.651 62.5065 105.213 62.2874 104.884 61.9587C104.556 61.63 104.446 61.1918 104.446 60.7535C104.446 60.4249 104.556 60.0962 104.775 59.7675C104.994 59.4388 105.213 59.2197 105.651 59.0006C105.98 58.7814 106.418 58.6719 106.966 58.6719C107.404 58.6719 107.843 58.7814 108.281 58.891C108.609 59.0006 109.048 59.2197 109.376 59.4388L108.719 60.4249C108.5 60.2057 108.281 60.0962 108.062 59.9866C107.843 59.877 107.514 59.877 107.295 59.877C107.076 59.877 106.857 59.877 106.747 59.9866C106.528 60.0962 106.418 60.0962 106.309 60.2057C106.199 60.3153 106.199 60.4249 106.199 60.644C106.199 60.8631 106.309 61.0822 106.418 61.1918C106.528 61.3013 106.747 61.4109 107.076 61.5205C107.295 61.63 107.623 61.7396 107.843 61.7396C108.171 61.8492 108.5 61.9587 108.719 62.1778C108.938 62.397 109.157 62.5065 109.376 62.8352C109.486 63.0543 109.596 63.383 109.596 63.7117C109.596 64.1499 109.486 64.4786 109.267 64.8073C109.048 65.136 108.829 65.4647 108.39 65.6838C107.843 65.6838 107.295 65.7934 106.637 65.7934Z" fill="#25BDC1"></path>
    <path d="M113.101 56.2613C113.101 56.0421 113.211 55.823 113.43 55.6039C113.649 55.3848 113.868 55.3848 114.087 55.3848C114.306 55.3848 114.526 55.4943 114.745 55.6039C114.964 55.823 115.073 55.9326 115.073 56.2613C115.073 56.4804 114.964 56.6995 114.745 56.9186C114.526 57.0282 114.306 57.1377 114.087 57.1377C113.868 57.1377 113.649 57.0282 113.43 56.9186C113.211 56.6995 113.101 56.4804 113.101 56.2613ZM113.211 58.7812H114.745V65.6835H113.211V58.7812Z" fill="#25BDC1"></path>
    <path d="M120.442 58.7816L120.552 60.425V60.2059C120.771 59.6581 121.1 59.3294 121.647 59.0007C122.195 58.6721 122.743 58.5625 123.4 58.5625C124.058 58.5625 124.606 58.7816 124.934 59.1103C125.372 59.439 125.592 59.9868 125.592 60.6442V65.684H124.058V61.0824C124.058 60.7537 123.948 60.425 123.729 60.2059C123.51 59.9868 123.181 59.8772 122.743 59.8772C122.305 59.8772 121.976 59.9868 121.647 60.2059C121.319 60.425 121.1 60.7537 120.88 61.0824C120.661 61.5207 120.552 61.9589 120.552 62.3972V65.5744H119.018V58.7816H120.442Z" fill="#25BDC1"></path>
    <path d="M133.151 65.7937C132.384 65.7937 131.727 65.6842 131.069 65.3555C130.522 65.0268 130.083 64.5886 129.755 64.0408C129.426 63.493 129.316 62.8356 129.316 62.1782C129.316 61.5208 129.536 60.8635 129.864 60.3157C130.193 59.7679 130.631 59.3296 131.289 59.0009C131.836 58.6722 132.494 58.4531 133.261 58.4531C134.137 58.4531 134.904 58.6722 135.561 59.2201C136.109 59.7679 136.547 60.5348 136.767 61.4113L131.069 63.3834L130.741 62.5069L135.342 60.7539L135.014 60.973C134.904 60.6444 134.685 60.3157 134.356 59.987C134.028 59.7679 133.589 59.5487 133.151 59.5487C132.713 59.5487 132.384 59.6583 132.055 59.8774C131.727 60.0965 131.508 60.3157 131.289 60.7539C131.069 61.0826 130.96 61.5208 130.96 61.9591C130.96 62.3973 131.069 62.8356 131.289 63.1643C131.508 63.493 131.727 63.8216 132.055 64.0408C132.384 64.2599 132.822 64.3694 133.261 64.3694C133.589 64.3694 133.808 64.3694 134.137 64.1503C134.466 64.0408 134.685 63.9312 134.904 63.7121L135.561 64.8077C135.233 65.0268 134.794 65.2459 134.356 65.3555C133.918 65.6842 133.48 65.7937 133.151 65.7937Z" fill="#25BDC1"></path>
    <path d="M142.135 65.7934C141.697 65.7934 141.149 65.6838 140.711 65.5742C140.272 65.3551 139.834 65.136 139.615 64.8073L140.272 63.9308C140.601 64.2595 140.82 64.3691 141.149 64.5882C141.477 64.6978 141.697 64.8073 142.025 64.8073C142.244 64.8073 142.463 64.8073 142.683 64.6978C142.902 64.5882 143.011 64.5882 143.121 64.3691C143.23 64.2595 143.34 64.0404 143.34 63.8213C143.34 63.6021 143.23 63.383 143.121 63.2735C143.011 63.1639 142.792 63.0543 142.463 62.9448C142.244 62.8352 141.916 62.7256 141.697 62.7256C141.149 62.5065 140.711 62.2874 140.382 61.9587C140.053 61.63 139.944 61.1918 139.944 60.7535C139.944 60.4249 140.053 60.0962 140.272 59.7675C140.491 59.4388 140.711 59.2197 141.149 59.0006C141.477 58.7814 141.916 58.6719 142.463 58.6719C142.902 58.6719 143.34 58.7814 143.778 58.891C144.107 59.0006 144.545 59.2197 144.874 59.4388L144.216 60.4249C143.997 60.2057 143.778 60.0962 143.559 59.9866C143.34 59.877 143.011 59.877 142.792 59.877C142.573 59.877 142.354 59.877 142.244 59.9866C142.025 60.0962 141.916 60.0962 141.806 60.2057C141.697 60.3153 141.697 60.4249 141.697 60.644C141.697 60.8631 141.806 61.0822 141.916 61.1918C142.025 61.3013 142.244 61.4109 142.573 61.5205C142.792 61.63 143.121 61.7396 143.34 61.7396C143.669 61.8492 143.997 61.9587 144.216 62.1778C144.436 62.397 144.655 62.5065 144.874 62.8352C144.983 63.0543 145.093 63.383 145.093 63.7117C145.093 64.1499 144.983 64.4786 144.764 64.8073C144.545 65.136 144.326 65.4647 143.888 65.6838C143.23 65.6838 142.792 65.7934 142.135 65.7934Z" fill="#25BDC1"></path>
    <path d="M150.571 65.7934C150.133 65.7934 149.585 65.6838 149.147 65.5742C148.709 65.3551 148.271 65.136 148.051 64.8073L148.709 63.9308C149.037 64.2595 149.257 64.3691 149.585 64.5882C149.914 64.6978 150.133 64.8073 150.462 64.8073C150.681 64.8073 150.9 64.8073 151.119 64.6978C151.338 64.5882 151.448 64.5882 151.557 64.3691C151.667 64.2595 151.776 64.0404 151.776 63.8213C151.776 63.6021 151.667 63.383 151.557 63.2735C151.448 63.1639 151.229 63.0543 150.9 62.9448C150.681 62.8352 150.352 62.7256 150.133 62.7256C149.585 62.5065 149.147 62.2874 148.818 61.9587C148.49 61.63 148.38 61.1918 148.38 60.7535C148.38 60.4249 148.49 60.0962 148.709 59.7675C148.928 59.4388 149.147 59.2197 149.585 59.0006C149.914 58.7814 150.352 58.6719 150.9 58.6719C151.338 58.6719 151.776 58.7814 152.215 58.891C152.543 59.0006 152.982 59.2197 153.31 59.4388L152.653 60.4249C152.434 60.2057 152.215 60.0962 151.996 59.9866C151.776 59.877 151.448 59.877 151.229 59.877C151.01 59.877 150.79 59.877 150.681 59.9866C150.462 60.0962 150.352 60.0962 150.243 60.2057C150.133 60.3153 150.133 60.4249 150.133 60.644C150.133 60.8631 150.243 61.0822 150.352 61.1918C150.462 61.3013 150.681 61.4109 151.01 61.5205C151.229 61.63 151.557 61.7396 151.776 61.7396C152.105 61.8492 152.434 61.9587 152.653 62.1778C152.872 62.397 153.091 62.5065 153.31 62.8352C153.42 63.0543 153.529 63.383 153.529 63.7117C153.529 64.1499 153.42 64.4786 153.201 64.8073C152.982 65.136 152.763 65.4647 152.324 65.6838C151.667 65.6838 151.229 65.7934 150.571 65.7934Z" fill="#25BDC1"></path>
    <path d="M163.5 53.6328H171.498V55.1667H168.321V65.6846H166.677V55.1667H163.5V53.6328Z" fill="#25BDC1"></path>
    <path d="M176.757 65.7937C175.99 65.7937 175.333 65.6842 174.675 65.3555C174.127 65.0268 173.689 64.5886 173.36 64.0408C173.032 63.493 172.922 62.8356 172.922 62.1782C172.922 61.5208 173.141 60.8635 173.47 60.3157C173.799 59.7679 174.237 59.3296 174.894 59.0009C175.442 58.6722 176.1 58.4531 176.866 58.4531C177.743 58.4531 178.51 58.6722 179.167 59.2201C179.715 59.7679 180.153 60.5348 180.372 61.4113L174.675 63.3834L174.347 62.5069L178.948 60.7539L178.619 60.973C178.51 60.6444 178.291 60.3157 177.962 59.987C177.633 59.7679 177.195 59.5487 176.757 59.5487C176.319 59.5487 175.99 59.6583 175.661 59.8774C175.333 60.0965 175.113 60.3157 174.894 60.7539C174.675 61.1922 174.566 61.5208 174.566 61.9591C174.566 62.3973 174.675 62.8356 174.894 63.1643C175.113 63.493 175.333 63.8216 175.661 64.0408C175.99 64.2599 176.428 64.3694 176.866 64.3694C177.195 64.3694 177.414 64.3694 177.743 64.1503C178.072 64.0408 178.291 63.9312 178.51 63.7121L179.167 64.8077C178.839 65.0268 178.4 65.2459 177.962 65.3555C177.524 65.6842 177.195 65.7937 176.757 65.7937Z" fill="#25BDC1"></path>
    <path d="M189.466 64.9171C189.137 65.1362 188.808 65.3553 188.37 65.4649C187.932 65.5744 187.494 65.684 187.055 65.684C186.289 65.684 185.631 65.5744 185.083 65.2458C184.536 64.9171 184.097 64.4788 183.769 63.931C183.44 63.3832 183.33 62.7258 183.33 62.0685C183.33 61.3015 183.55 60.7537 183.878 60.2059C184.207 59.6581 184.645 59.2199 185.193 59.0007C185.741 58.6721 186.289 58.5625 186.946 58.5625C187.494 58.5625 187.932 58.6721 188.37 58.7816C188.808 58.8912 189.137 59.1103 189.466 59.439L188.699 60.425C188.48 60.3155 188.261 60.0964 187.932 59.9868C187.603 59.8772 187.275 59.7677 186.946 59.7677C186.508 59.7677 186.179 59.8772 185.85 60.0964C185.522 60.3155 185.193 60.5346 185.083 60.9729C184.974 61.4111 184.755 61.7398 184.755 62.178C184.755 62.6163 184.864 63.0545 185.083 63.3832C185.302 63.7119 185.522 64.0406 185.96 64.2597C186.289 64.4788 186.727 64.5884 187.165 64.5884C187.494 64.5884 187.713 64.5884 187.932 64.4788C188.151 64.3693 188.37 64.2597 188.589 64.1501L189.466 64.9171Z" fill="#25BDC1"></path>
    <path d="M193.082 65.5746V52.7559H194.615V60.3156V59.9869C194.835 59.5487 195.163 59.1104 195.711 58.8913C196.149 58.5626 196.807 58.4531 197.464 58.4531C198.121 58.4531 198.669 58.6722 198.998 59.0009C199.436 59.3296 199.655 59.8774 199.655 60.5347V65.5746H198.121V60.973C198.121 60.6443 198.012 60.3156 197.793 60.0965C197.574 59.8774 197.245 59.7678 196.807 59.7678C196.368 59.7678 196.04 59.8774 195.711 60.0965C195.382 60.3156 195.163 60.6443 194.944 60.973C194.725 61.4112 194.725 61.8495 194.725 62.2877V65.465H193.082V65.5746Z" fill="#25BDC1"></path>
    <path d="M205.352 58.7816L205.461 60.425V60.2059C205.68 59.6581 206.009 59.3294 206.557 59.0007C207.105 58.6721 207.653 58.5625 208.31 58.5625C208.967 58.5625 209.515 58.7816 209.844 59.1103C210.282 59.439 210.501 59.9868 210.501 60.6442V65.684H208.967V61.0824C208.967 60.7537 208.858 60.425 208.639 60.2059C208.419 59.9868 208.091 59.8772 207.653 59.8772C207.214 59.8772 206.886 59.9868 206.557 60.2059C206.228 60.425 206.009 60.7537 205.79 61.0824C205.571 61.5207 205.571 61.9589 205.571 62.3972V65.5744H204.037V58.7816H205.352Z" fill="#25BDC1"></path>
    <path d="M214.227 62.0687C214.227 61.4113 214.336 60.7539 214.665 60.2061C214.994 59.6583 215.432 59.2201 215.98 58.8914C216.528 58.5627 217.185 58.4531 217.952 58.4531C218.719 58.4531 219.376 58.5627 219.924 58.8914C220.472 59.2201 220.91 59.6583 221.239 60.2061C221.567 60.7539 221.677 61.4113 221.677 62.0687C221.677 62.726 221.567 63.3834 221.239 63.9312C220.91 64.479 220.472 64.9173 219.924 65.2459C219.376 65.5746 218.719 65.6842 217.952 65.6842C217.185 65.6842 216.528 65.5746 215.98 65.2459C215.432 64.9173 214.994 64.479 214.665 63.9312C214.336 63.493 214.227 62.8356 214.227 62.0687ZM215.761 62.1782C215.761 62.6165 215.87 63.0547 216.089 63.3834C216.308 63.7121 216.528 64.0408 216.856 64.2599C217.185 64.479 217.514 64.5886 217.952 64.5886C218.39 64.5886 218.719 64.479 219.047 64.2599C219.376 64.0408 219.595 63.7121 219.814 63.3834C220.033 63.0547 220.143 62.6165 220.143 62.1782C220.143 61.74 220.033 61.3017 219.814 60.973C219.595 60.6444 219.376 60.3157 219.047 60.0965C218.719 59.8774 218.281 59.7679 217.952 59.7679C217.514 59.7679 217.185 59.8774 216.856 60.0965C216.528 60.3157 216.199 60.6444 216.089 60.973C215.87 61.3017 215.761 61.74 215.761 62.1782Z" fill="#25BDC1"></path>
    <path d="M225.511 52.7559H227.045V65.5746H225.511V52.7559Z" fill="#25BDC1"></path>
    <path d="M230.771 62.0687C230.771 61.4113 230.88 60.7539 231.209 60.2061C231.538 59.6583 231.976 59.2201 232.524 58.8914C233.072 58.5627 233.729 58.4531 234.496 58.4531C235.263 58.4531 235.92 58.5627 236.468 58.8914C237.016 59.2201 237.454 59.6583 237.783 60.2061C238.111 60.7539 238.221 61.4113 238.221 62.0687C238.221 62.726 238.111 63.3834 237.783 63.9312C237.454 64.479 237.016 64.9173 236.468 65.2459C235.92 65.5746 235.263 65.6842 234.496 65.6842C233.729 65.6842 233.072 65.5746 232.524 65.2459C231.976 64.9173 231.538 64.479 231.209 63.9312C230.99 63.493 230.771 62.8356 230.771 62.0687ZM232.305 62.1782C232.305 62.6165 232.414 63.0547 232.633 63.3834C232.852 63.7121 233.072 64.0408 233.4 64.2599C233.729 64.479 234.058 64.5886 234.496 64.5886C234.934 64.5886 235.263 64.479 235.591 64.2599C235.92 64.0408 236.139 63.7121 236.358 63.3834C236.578 63.0547 236.687 62.6165 236.687 62.1782C236.687 61.74 236.578 61.3017 236.358 60.973C236.139 60.6444 235.92 60.3157 235.591 60.0965C235.263 59.8774 234.825 59.7679 234.496 59.7679C234.058 59.7679 233.729 59.8774 233.4 60.0965C233.072 60.3157 232.743 60.6444 232.633 60.973C232.414 61.3017 232.305 61.74 232.305 62.1782Z" fill="#25BDC1"></path>
    <path d="M245.452 69.0804C244.904 69.0804 244.466 68.9708 244.137 68.8613C243.809 68.7517 243.37 68.5326 243.042 68.3135C242.713 68.0944 242.384 67.8752 242.165 67.6561L243.042 66.5605C243.37 66.8892 243.809 67.1083 244.137 67.3274C244.466 67.5465 244.904 67.6561 245.452 67.6561C246 67.6561 246.438 67.5465 246.767 67.437C247.095 67.2179 247.424 66.9987 247.534 66.7796C247.753 66.4509 247.862 66.1222 247.862 65.684V63.8215L247.972 64.1501C247.753 64.5884 247.424 65.0266 246.876 65.3553C246.328 65.684 245.671 65.7936 245.014 65.7936C244.356 65.7936 243.809 65.684 243.261 65.3553C242.713 65.0266 242.275 64.5884 241.946 64.0406C241.617 63.4928 241.508 62.8354 241.508 62.178C241.508 61.4111 241.727 60.8633 242.056 60.3155C242.384 59.7677 242.823 59.3294 243.37 59.0007C243.918 58.6721 244.466 58.5625 245.123 58.5625C245.781 58.5625 246.328 58.6721 246.767 58.8912C247.315 59.1103 247.643 59.439 247.862 59.8772L247.753 60.2059L247.862 58.8912H249.287V65.7936C249.287 66.4509 249.177 66.9987 248.848 67.437C248.52 67.9848 248.081 68.3135 247.534 68.6422C246.986 68.9708 246.219 69.0804 245.452 69.0804ZM243.042 62.0685C243.042 62.5067 243.151 62.945 243.37 63.2736C243.589 63.6023 243.918 63.931 244.247 64.1501C244.576 64.3693 245.014 64.4788 245.452 64.4788C245.89 64.4788 246.219 64.3693 246.548 64.2597C246.876 64.1501 247.095 63.931 247.424 63.6023C247.643 63.3832 247.753 63.0545 247.862 62.7258V61.3015C247.753 60.9729 247.643 60.6442 247.315 60.425C247.095 60.2059 246.767 59.9868 246.438 59.8772C246.109 59.7677 245.781 59.6581 245.342 59.6581C244.904 59.6581 244.466 59.7677 244.137 59.9868C243.809 60.2059 243.48 60.425 243.261 60.8633C243.151 61.192 243.042 61.6302 243.042 62.0685Z" fill="#25BDC1"></path>
    <path d="M253.56 56.2613C253.56 56.0421 253.669 55.823 253.888 55.6039C254.107 55.3848 254.326 55.3848 254.546 55.3848C254.765 55.3848 254.984 55.4943 255.203 55.6039C255.422 55.7134 255.532 55.9326 255.532 56.2613C255.532 56.4804 255.422 56.6995 255.203 56.9186C254.984 57.0282 254.765 57.1377 254.546 57.1377C254.326 57.1377 254.107 57.0282 253.888 56.9186C253.669 56.6995 253.56 56.4804 253.56 56.2613ZM253.669 58.7812H255.203V65.6835H253.669V58.7812Z" fill="#25BDC1"></path>
    <path d="M262.763 65.7937C261.996 65.7937 261.338 65.6842 260.681 65.3555C260.133 65.0268 259.695 64.5886 259.366 64.0408C259.038 63.493 258.928 62.8356 258.928 62.1782C258.928 61.5208 259.147 60.8635 259.476 60.3157C259.805 59.7679 260.243 59.3296 260.9 59.0009C261.448 58.6722 262.105 58.4531 262.872 58.4531C263.749 58.4531 264.516 58.6722 265.173 59.2201C265.721 59.7679 266.159 60.5348 266.378 61.4113L260.681 63.3834L260.352 62.5069L264.954 60.7539L264.625 60.973C264.516 60.6444 264.297 60.3157 263.968 59.987C263.639 59.7679 263.201 59.5487 262.763 59.5487C262.324 59.5487 261.996 59.6583 261.667 59.8774C261.338 60.0965 261.119 60.3157 260.9 60.7539C260.681 61.1922 260.571 61.6304 260.571 62.0687C260.571 62.5069 260.681 62.9451 260.9 63.2738C261.119 63.6025 261.338 63.9312 261.667 64.1503C261.996 64.3694 262.434 64.479 262.872 64.479C263.201 64.479 263.42 64.479 263.749 64.2599C264.077 64.1503 264.297 64.0408 264.516 63.8216L265.173 64.9173C264.844 65.1364 264.406 65.3555 263.968 65.4651C263.639 65.6842 263.201 65.7937 262.763 65.7937Z" fill="#25BDC1"></path>
    <path d="M271.856 65.7934C271.418 65.7934 270.87 65.6838 270.432 65.5742C269.994 65.3551 269.555 65.136 269.336 64.8073L269.994 63.9308C270.322 64.2595 270.541 64.3691 270.87 64.5882C271.199 64.6978 271.418 64.8073 271.747 64.8073C271.966 64.8073 272.185 64.8073 272.404 64.6978C272.623 64.5882 272.733 64.5882 272.842 64.3691C272.952 64.1499 273.061 64.0404 273.061 63.8213C273.061 63.6021 272.952 63.383 272.842 63.2735C272.733 63.1639 272.513 63.0543 272.185 62.9448C271.966 62.8352 271.637 62.7256 271.418 62.7256C270.87 62.5065 270.432 62.2874 270.103 61.9587C269.774 61.63 269.665 61.1918 269.665 60.7535C269.665 60.4249 269.774 60.0962 269.884 59.7675C269.994 59.4388 270.322 59.2197 270.76 59.0006C271.089 58.7814 271.527 58.6719 272.075 58.6719C272.513 58.6719 272.952 58.7814 273.39 58.891C273.719 59.0006 274.157 59.2197 274.486 59.4388L273.828 60.4249C273.609 60.2057 273.39 60.0962 273.171 59.9866C272.952 59.877 272.623 59.877 272.404 59.877C272.185 59.877 271.966 59.877 271.856 59.9866C271.637 60.0962 271.527 60.0962 271.418 60.2057C271.308 60.3153 271.308 60.4249 271.308 60.644C271.308 60.8631 271.418 61.0822 271.527 61.1918C271.637 61.3013 271.856 61.4109 272.185 61.5205C272.404 61.63 272.733 61.7396 272.952 61.7396C273.28 61.8492 273.609 61.9587 273.828 62.1778C274.047 62.397 274.266 62.5065 274.486 62.8352C274.595 63.0543 274.705 63.383 274.705 63.7117C274.705 64.1499 274.595 64.4786 274.376 64.8073C274.157 65.136 273.938 65.4647 273.499 65.6838C272.952 65.6838 272.404 65.7934 271.856 65.7934Z" fill="#25BDC1"></path>
    <path d="M5.47875 35.225C12.6002 46.2907 22.1321 50.7827 34.6221 49.3584C46.7834 47.8246 55.0005 40.8126 61.3551 30.4043C61.9029 43.8804 53.4667 54.0696 40.9767 55.4939C39.3333 55.713 37.6898 55.0556 36.0464 55.0556C34.9508 55.0556 33.7456 55.2748 32.9787 55.9321C32.5404 56.2608 32.7596 58.0138 33.1978 58.452C33.8552 58.9998 35.1699 59.219 36.0464 58.9998C43.6062 57.1373 51.1659 55.1652 59.6021 52.974C53.4667 58.8903 47.3312 62.8345 39.6619 64.3684C35.0604 65.2449 30.4588 65.7927 26.405 62.7249C25.0903 61.7389 24.2138 59.9859 23.0086 58.7807C22.2417 58.0138 21.2556 57.2469 20.2696 57.1373C19.7217 57.0277 18.407 58.452 18.5166 58.8903C18.7357 59.8763 19.5026 60.972 20.3791 61.5198C23.4468 63.711 26.6241 65.7927 30.5683 68.5317C16.1062 68.5317 2.84927 50.6732 5.47875 35.225Z" fill="#25BDC1"></path>
    <path d="M32.7595 1.69922C41.4149 4.21913 49.1937 8.71115 53.2475 17.0378C55.7674 22.2968 55.9865 28.7609 56.6439 35.0059C49.1937 24.5976 39.4427 20.1055 27.0623 21.3107C14.901 22.4063 6.46473 29.3087 0.219723 40.1553C-0.328085 26.0219 9.0942 15.6135 22.4607 15.0657C23.4468 15.0657 24.5424 15.6135 25.5284 15.6135C26.624 15.6135 27.8292 15.504 28.5962 14.8466C29.0344 14.5179 28.9248 12.6554 28.4866 12.3267C27.6101 11.7789 26.2954 11.5598 25.3093 11.7789C17.8591 13.5319 10.4089 15.504 1.97271 17.6952C8.5464 11.4502 15.0105 7.39642 23.1181 6.08168C27.7197 5.31475 32.1021 5.31475 35.9368 8.49203C36.9228 9.36852 37.5802 10.7928 38.5663 11.7789C39.3332 12.5458 40.2097 13.4223 41.1957 13.6414C41.7435 13.751 43.0583 12.4362 43.0583 11.998C42.9487 11.0119 42.2913 9.80677 41.4149 9.1494C38.3471 6.95817 35.1698 4.98606 31.9926 2.9044C32.2117 2.46615 32.5404 2.0279 32.7595 1.69922Z" fill="#25BDC1"></path>
    <path d="M31.9929 23.6111C38.6762 23.6111 43.716 28.7605 43.716 35.3342C43.716 42.127 38.3475 47.386 31.6642 47.2764C25.0905 47.1668 20.0507 41.9079 20.1603 35.2246C20.1603 28.5414 25.3096 23.5016 31.9929 23.6111ZM31.8833 30.2944C29.1443 30.2944 26.7339 32.7047 26.8435 35.4438C26.8435 37.9637 29.1443 40.2645 31.7738 40.374C34.5128 40.4836 37.0327 38.1828 37.0327 35.4438C37.0327 32.7047 34.6224 30.2944 31.8833 30.2944Z" fill="#25BDC1"></path>
  </g>
  <defs>
    <clipPath id="clip0_113_95">
      <rect width="291.434" height="68.8046" fill="white" transform="translate(0.219727 0.712891)"></rect>
    </clipPath>
  </defs>
</svg>
