<?xml version="1.0" encoding="UTF-8"?>
<svg xmlns="http://www.w3.org/2000/svg" width="286" height="70" viewBox="0 0 286 70" fill="none">
  <g clip-path="url(#clip0_261_344)">
    <path d="M82.2675 44.9398H76.1562V9.6875H82.2675V44.9398Z" fill="#002B77"></path>
    <path d="M89.8588 21.9084C92.3676 19.271 95.3267 17.9844 98.8005 17.9844C102.274 17.9844 105.298 19.271 107.742 21.9084C110.251 24.5459 111.473 27.698 111.473 31.4291V44.8739H105.555V31.4291C105.555 29.3706 104.912 27.5694 103.561 26.0898C102.21 24.6103 100.602 23.8383 98.7362 23.8383C96.8706 23.8383 95.2624 24.6103 93.9115 26.0898C92.5606 27.5694 91.9173 29.3706 91.9173 31.4291V44.9382H85.999V31.4291C86.1277 27.698 87.3499 24.5459 89.8588 21.9084Z" fill="#002B77"></path>
    <path d="M118.356 21.9084C120.865 19.271 123.824 17.9844 127.298 17.9844C130.771 17.9844 133.795 19.271 136.239 21.9084C138.748 24.5459 139.97 27.698 139.97 31.4291V44.8739H134.052V31.4291C134.052 29.3706 133.409 27.5694 132.058 26.0898C130.707 24.6103 129.099 23.8383 127.233 23.8383C125.368 23.8383 123.759 24.6103 122.409 26.0898C121.058 27.5694 120.414 29.3706 120.414 31.4291V44.9382H114.496V31.4291C114.625 27.698 115.847 24.5459 118.356 21.9084Z" fill="#002B77"></path>
    <path d="M146.275 21.9084C148.784 19.271 151.743 17.9844 155.217 17.9844C158.691 17.9844 161.714 19.271 164.158 21.9084C166.667 24.5459 167.89 27.698 167.89 31.4291C167.89 35.1602 166.667 38.3123 164.158 40.9498C161.65 43.5873 158.691 44.8739 155.217 44.8739C151.743 44.8739 148.72 43.5873 146.275 40.9498C143.766 38.3123 142.544 35.1602 142.544 31.4291C142.544 27.698 143.766 24.5459 146.275 21.9084ZM150.392 36.8328C151.743 38.3123 153.351 39.0843 155.217 39.0843C157.082 39.0843 158.691 38.3123 160.041 36.8328C161.392 35.3532 162.036 33.552 162.036 31.4935C162.036 29.4349 161.392 27.6337 160.041 26.1542C158.691 24.6746 157.082 23.9026 155.217 23.9026C153.351 23.9026 151.743 24.6746 150.392 26.1542C149.041 27.6337 148.398 29.4349 148.398 31.4935C148.398 33.552 149.105 35.3532 150.392 36.8328Z" fill="#002B77"></path>
    <path d="M194.65 39.8578V44.9398H171.17V9.6875H177.281V39.8578H194.65Z" fill="#002B77"></path>
    <path d="M198.832 21.9084C201.34 19.271 204.3 17.9844 207.773 17.9844C211.247 17.9844 214.271 19.271 216.715 21.9084C219.224 24.5459 220.446 27.698 220.446 31.4291C220.446 35.1602 219.224 38.3123 216.715 40.9498C214.206 43.5873 211.247 44.8739 207.773 44.8739C204.3 44.8739 201.276 43.5873 198.832 40.9498C196.323 38.3123 195.101 35.1602 195.101 31.4291C195.165 27.698 196.387 24.5459 198.832 21.9084ZM203.013 36.8328C204.364 38.3123 205.972 39.0843 207.838 39.0843C209.703 39.0843 211.311 38.3123 212.662 36.8328C214.013 35.3532 214.657 33.552 214.657 31.4935C214.657 29.4349 214.013 27.6337 212.662 26.1542C211.311 24.6746 209.703 23.9026 207.838 23.9026C205.972 23.9026 204.364 24.6746 203.013 26.1542C201.662 27.6337 201.019 29.4349 201.019 31.4935C201.019 33.552 201.662 35.3532 203.013 36.8328Z" fill="#002B77"></path>
    <path d="M241.675 19.0165H247.529V43.8474C247.529 47.1925 246.435 49.83 244.312 51.8242C242.189 53.8184 239.359 54.7834 235.757 54.7834C235.499 54.7834 235.178 54.7834 234.92 54.719V49.637C235.306 49.7014 235.628 49.7014 235.885 49.7014C237.686 49.7014 239.102 49.1867 240.131 48.0932C241.16 47.0639 241.675 45.5843 241.675 43.7188V43.3328C239.681 44.6194 237.493 45.327 235.113 45.327C231.639 45.327 228.616 44.0404 226.172 41.4029C223.663 38.7655 222.44 35.6133 222.44 31.8823C222.44 28.1512 223.663 24.9991 226.172 22.3616C228.68 19.7241 231.639 18.4375 235.113 18.4375C237.493 18.4375 239.616 19.0808 241.675 20.4317V19.0165ZM234.985 39.6017C236.85 39.6017 238.458 38.8298 239.745 37.2859C241.031 35.742 241.739 33.9408 241.739 31.7536C241.739 29.5664 241.096 27.7652 239.745 26.2213C238.458 24.6774 236.85 23.9055 234.985 23.9055C233.119 23.9055 231.511 24.6774 230.224 26.2213C228.938 27.7652 228.23 29.6307 228.23 31.7536C228.23 32.4612 228.294 33.1688 228.487 33.8121C228.616 34.4554 228.873 35.0987 229.195 35.6777C229.517 36.2566 229.838 36.7713 230.224 37.2859C230.61 37.8005 231.06 38.1865 231.575 38.5081C232.09 38.8298 232.604 39.0871 233.183 39.2801C233.762 39.5374 234.341 39.6017 234.985 39.6017Z" fill="#002B77"></path>
    <path d="M254.669 16.5064C254.026 16.5064 253.447 16.3777 252.932 16.0561C252.418 15.7344 252.032 15.3484 251.71 14.8338C251.388 14.3192 251.26 13.7402 251.26 13.1613C251.26 12.1963 251.581 11.4244 252.289 10.7168C252.932 10.0735 253.769 9.6875 254.669 9.6875C255.57 9.6875 256.406 10.0091 257.049 10.7168C257.693 11.3601 258.079 12.1963 258.079 13.0969C258.079 13.9975 257.757 14.8338 257.049 15.4771C256.406 16.1847 255.57 16.5064 254.669 16.5064ZM257.564 44.9398H251.71V17.9859H257.564V44.9398Z" fill="#002B77"></path>
    <path d="M273.388 39.4085C274.353 39.4085 275.19 39.2155 276.026 38.8295C276.862 38.4436 277.57 37.8646 278.213 37.157C278.856 36.4494 279.307 35.6774 279.628 34.7125H285.74C285.096 37.7359 283.617 40.3091 281.301 42.239C278.985 44.2332 276.348 45.1981 273.324 45.1981C269.85 45.1981 266.827 43.9115 264.382 41.274C261.874 38.6365 260.651 35.4844 260.651 31.7533C260.651 28.0223 261.874 24.8701 264.382 22.2327C266.891 19.5952 269.85 18.3086 273.324 18.3086C276.283 18.3086 278.985 19.2735 281.301 21.2677C283.617 23.2619 285.096 25.7708 285.74 28.7942H279.628C279.307 27.8936 278.792 27.0573 278.213 26.3497C277.57 25.6421 276.862 25.0631 276.026 24.6772C275.19 24.2912 274.289 24.0982 273.388 24.0982C272.166 24.0982 271.008 24.4198 269.979 25.1275C268.95 25.8351 268.114 26.7357 267.535 27.8936C266.956 29.0515 266.634 30.3381 266.634 31.689C266.634 33.0399 266.956 34.3265 267.535 35.4844C268.114 36.6423 268.95 37.543 269.979 38.2506C271.008 39.0868 272.102 39.4085 273.388 39.4085Z" fill="#002B77"></path>
    <path d="M83.4254 54.3945C84.6477 54.3945 85.5483 54.6519 86.2559 55.1022C86.9635 55.6168 87.2852 56.3244 87.2852 57.3537C87.2852 57.997 87.1565 58.5116 86.8349 59.0262C86.5775 59.4765 86.1272 59.8625 85.6126 60.1198C85.098 60.3771 84.519 60.5058 83.8114 60.5701L83.5541 59.7338C84.326 59.7338 85.098 59.9268 85.677 60.1841C86.3202 60.4415 86.8349 60.8274 87.1565 61.2777C87.5425 61.728 87.7355 62.307 87.7355 62.9503C87.7355 63.5292 87.6068 64.0439 87.4138 64.4942C87.2208 64.9445 86.8992 65.2661 86.5132 65.5234C86.1272 65.7808 85.7413 65.9737 85.2266 66.1024C84.7763 66.2311 84.2617 66.2954 83.7471 66.2954H80.209V54.3945H83.4254ZM83.7471 59.6052C84.3904 59.6052 84.905 59.4122 85.1623 59.0905C85.484 58.7046 85.6126 58.3186 85.6126 57.804C85.6126 57.1607 85.4196 56.7104 85.0337 56.4531C84.6477 56.1957 84.133 56.0028 83.4898 56.0028H81.9459V59.6695H83.7471V59.6052ZM83.8114 64.8158C84.2617 64.8158 84.6477 64.7515 85.0337 64.6228C85.4196 64.4942 85.6769 64.3012 85.8699 63.9795C86.0629 63.7222 86.1916 63.3363 86.1916 62.9503C86.1916 62.5 86.0629 62.114 85.8056 61.8567C85.5483 61.5994 85.2266 61.4064 84.8407 61.2777C84.4547 61.1491 84.0687 61.0847 83.6827 61.0847H81.9459V64.7515H83.8114V64.8158Z" fill="#5CABDD"></path>
    <path d="M93.9108 66.5527C93.2675 66.5527 92.7529 66.3598 92.3669 65.9738C91.9809 65.5878 91.788 65.1375 91.7236 64.4942V59.4766H93.2675V63.9796C93.2675 64.3656 93.3962 64.6229 93.5892 64.8802C93.7822 65.1375 94.1038 65.2662 94.4898 65.2662C94.8758 65.2662 95.1974 65.1375 95.519 64.9445C95.8407 64.7515 96.0337 64.4299 96.2267 64.0439C96.4196 63.6579 96.484 63.2076 96.484 62.693V59.5409H98.0279V66.3598H96.6126L96.484 64.6872L96.6126 65.0089C96.484 65.3305 96.291 65.5878 96.0337 65.8451C95.7764 66.1024 95.4547 66.2954 95.0687 66.4241C94.6828 66.5527 94.3611 66.5527 93.9108 66.5527Z" fill="#5CABDD"></path>
    <path d="M104.268 66.4236C103.817 66.4236 103.303 66.3593 102.852 66.1663C102.402 65.9733 102.016 65.716 101.759 65.3943L102.402 64.4937C102.724 64.751 102.981 64.944 103.303 65.137C103.624 65.33 103.882 65.33 104.203 65.33C104.396 65.33 104.654 65.33 104.782 65.2657C104.975 65.2013 105.104 65.137 105.233 65.0084C105.361 64.8797 105.426 64.6867 105.426 64.4937C105.426 64.2364 105.361 64.0434 105.168 63.9148C105.04 63.7861 104.782 63.6574 104.589 63.5931C104.332 63.5288 104.075 63.4001 103.817 63.3358C103.238 63.1428 102.852 62.8855 102.531 62.5639C102.209 62.2422 102.08 61.8562 102.08 61.3416C102.08 60.9556 102.145 60.634 102.338 60.3123C102.531 59.9907 102.788 59.7334 103.174 59.5404C103.56 59.3474 103.946 59.2188 104.461 59.2188C104.911 59.2188 105.361 59.2831 105.747 59.4117C106.133 59.5404 106.455 59.7334 106.776 59.9907L106.197 60.9556C106.004 60.7626 105.747 60.5697 105.49 60.5053C105.233 60.3767 104.975 60.3767 104.782 60.3767C104.589 60.3767 104.396 60.3767 104.203 60.441C104.01 60.5053 103.882 60.5697 103.817 60.6983C103.753 60.827 103.689 60.9556 103.689 61.1486C103.689 61.4059 103.753 61.5346 103.882 61.7276C104.01 61.8562 104.268 61.9849 104.461 62.0492C104.718 62.1136 104.975 62.2422 105.168 62.3065C105.49 62.4352 105.812 62.5639 106.069 62.6925C106.326 62.8855 106.519 63.0785 106.712 63.2715C106.841 63.5288 106.969 63.7861 106.969 64.1721C106.969 64.5581 106.905 64.944 106.712 65.2657C106.519 65.5873 106.262 65.909 105.812 66.102C105.361 66.2949 104.911 66.4236 104.268 66.4236Z" fill="#5CABDD"></path>
    <path d="M110.572 57.0316C110.572 56.7743 110.637 56.5813 110.83 56.4526C111.023 56.2596 111.216 56.1953 111.473 56.1953C111.73 56.1953 111.923 56.2596 112.116 56.4526C112.309 56.6456 112.373 56.8386 112.373 57.0316C112.373 57.2889 112.309 57.4819 112.116 57.6749C111.923 57.8035 111.73 57.9322 111.473 57.9322C111.216 57.9322 111.023 57.8679 110.83 57.6749C110.701 57.4819 110.572 57.2889 110.572 57.0316ZM110.701 59.4761H112.245V66.295H110.701V59.4761Z" fill="#5CABDD"></path>
    <path d="M117.905 59.4761L118.034 61.1486L117.97 60.8913C118.163 60.3767 118.549 59.9907 118.999 59.6691C119.514 59.3474 120.093 59.2188 120.736 59.2188C121.379 59.2188 121.894 59.4117 122.28 59.7977C122.666 60.1837 122.923 60.634 122.923 61.2773V66.2949H121.379V61.7919C121.379 61.4059 121.251 61.1486 121.058 60.8913C120.865 60.634 120.543 60.5697 120.093 60.5697C119.707 60.5697 119.385 60.6983 119.063 60.8913C118.742 61.0843 118.484 61.4059 118.291 61.7919C118.098 62.1779 118.034 62.6282 118.034 63.1428V66.3593H116.49V59.4761H117.905Z" fill="#5CABDD"></path>
    <path d="M130.385 66.4236C129.613 66.4236 128.97 66.2949 128.391 65.9733C127.812 65.6516 127.426 65.2657 127.105 64.6867C126.783 64.1721 126.654 63.5288 126.654 62.8212C126.654 62.1779 126.847 61.5346 127.169 61.02C127.491 60.5053 127.941 60.055 128.52 59.7334C129.099 59.4117 129.742 59.2188 130.45 59.2188C131.35 59.2188 132.122 59.4761 132.701 59.9907C133.28 60.5053 133.666 61.213 133.923 62.1779L128.327 64.1721L127.941 63.2715L132.508 61.5989L132.187 61.8562C132.058 61.4703 131.865 61.213 131.543 60.8913C131.222 60.634 130.836 60.5053 130.321 60.5053C129.935 60.5053 129.549 60.634 129.227 60.827C128.906 61.02 128.648 61.2773 128.456 61.6633C128.263 61.9849 128.198 62.4352 128.198 62.8855C128.198 63.3358 128.263 63.7861 128.456 64.1078C128.648 64.4937 128.906 64.751 129.292 64.944C129.613 65.137 129.999 65.2657 130.45 65.2657C130.771 65.2657 131.029 65.2013 131.286 65.0727C131.543 64.944 131.801 64.8154 132.058 64.6224L132.766 65.7803C132.444 66.0376 132.058 66.1663 131.608 66.3593C131.222 66.3593 130.771 66.4236 130.385 66.4236Z" fill="#5CABDD"></path>
    <path d="M139.327 66.4236C138.877 66.4236 138.362 66.3593 137.912 66.1663C137.462 65.9733 137.076 65.716 136.818 65.3943L137.462 64.4937C137.783 64.751 138.041 64.944 138.362 65.137C138.684 65.33 138.941 65.33 139.263 65.33C139.456 65.33 139.713 65.33 139.842 65.2657C140.035 65.2013 140.163 65.137 140.292 65.0084C140.421 64.8797 140.485 64.6867 140.485 64.4937C140.485 64.2364 140.421 64.0434 140.228 63.9148C140.099 63.7861 139.842 63.6574 139.649 63.5931C139.392 63.5288 139.134 63.4001 138.877 63.3358C138.298 63.1428 137.912 62.8855 137.59 62.5639C137.269 62.2422 137.14 61.8562 137.14 61.3416C137.14 60.9556 137.204 60.634 137.397 60.3123C137.59 59.9907 137.848 59.7334 138.234 59.5404C138.62 59.3474 139.006 59.2188 139.52 59.2188C139.97 59.2188 140.421 59.2831 140.807 59.4117C141.193 59.5404 141.514 59.7334 141.836 59.9907L141.257 60.9556C141.064 60.7626 140.807 60.5697 140.549 60.5053C140.292 60.3767 140.035 60.3767 139.842 60.3767C139.649 60.3767 139.456 60.3767 139.263 60.441C139.07 60.5053 138.941 60.5697 138.877 60.6983C138.813 60.827 138.748 60.9556 138.748 61.1486C138.748 61.4059 138.813 61.5346 138.941 61.7276C139.07 61.8562 139.327 61.9849 139.52 62.0492C139.777 62.1136 140.035 62.2422 140.228 62.3065C140.549 62.4352 140.871 62.5639 141.128 62.6925C141.386 62.8855 141.579 63.0785 141.772 63.2715C141.9 63.5288 142.029 63.7861 142.029 64.1721C142.029 64.5581 141.965 64.944 141.772 65.2657C141.579 65.5873 141.321 65.909 140.871 66.102C140.421 66.2949 139.906 66.4236 139.327 66.4236Z" fill="#5CABDD"></path>
    <path d="M147.69 66.4236C147.24 66.4236 146.726 66.3593 146.275 66.1663C145.825 65.9733 145.439 65.716 145.182 65.3943L145.825 64.4937C146.147 64.751 146.404 64.944 146.726 65.137C147.047 65.33 147.304 65.33 147.626 65.33C147.819 65.33 148.076 65.33 148.205 65.2657C148.398 65.2013 148.527 65.137 148.655 65.0084C148.784 64.8797 148.848 64.6867 148.848 64.4937C148.848 64.2364 148.784 64.0434 148.591 63.9148C148.462 63.7861 148.205 63.6574 148.012 63.5931C147.755 63.5288 147.497 63.4001 147.24 63.3358C146.661 63.1428 146.275 62.8855 145.954 62.5639C145.632 62.2422 145.503 61.8562 145.503 61.3416C145.503 60.9556 145.568 60.634 145.761 60.3123C145.954 59.9907 146.211 59.7334 146.597 59.5404C146.983 59.3474 147.369 59.2188 147.883 59.2188C148.334 59.2188 148.784 59.2831 149.17 59.4117C149.556 59.5404 149.878 59.7334 150.199 59.9907L149.62 60.9556C149.427 60.7626 149.17 60.5697 148.913 60.5053C148.655 60.3767 148.398 60.3767 148.205 60.3767C148.012 60.3767 147.819 60.3767 147.626 60.441C147.433 60.5053 147.304 60.5697 147.24 60.6983C147.176 60.827 147.112 60.9556 147.112 61.1486C147.112 61.4059 147.176 61.5346 147.304 61.7276C147.433 61.8562 147.69 61.9849 147.883 62.0492C148.141 62.1136 148.398 62.2422 148.591 62.3065C148.913 62.4352 149.234 62.5639 149.492 62.6925C149.749 62.8855 149.942 63.0785 150.135 63.2715C150.264 63.5288 150.392 63.7861 150.392 64.1721C150.392 64.5581 150.328 64.944 150.135 65.2657C149.942 65.5873 149.685 65.909 149.234 66.102C148.784 66.2949 148.269 66.4236 147.69 66.4236Z" fill="#5CABDD"></path>
    <path d="M160.427 54.3945H168.276V55.9384H165.059V66.2954H163.451V55.9384H160.299V54.3945H160.427Z" fill="#5CABDD"></path>
    <path d="M173.486 66.4236C172.714 66.4236 172.071 66.2949 171.492 65.9733C170.913 65.6516 170.527 65.2657 170.205 64.6867C169.884 64.1721 169.755 63.5288 169.755 62.8212C169.755 62.1779 169.948 61.5346 170.27 61.02C170.591 60.5053 171.041 60.055 171.62 59.7334C172.199 59.4117 172.843 59.2188 173.55 59.2188C174.451 59.2188 175.223 59.4761 175.802 59.9907C176.381 60.5053 176.767 61.213 177.024 62.1779L171.427 64.1721L171.041 63.2715L175.609 61.5989L175.287 61.8562C175.159 61.4703 174.966 61.213 174.644 60.8913C174.322 60.634 173.936 60.5053 173.422 60.5053C173.036 60.5053 172.65 60.634 172.328 60.827C172.006 61.02 171.749 61.2773 171.556 61.6633C171.363 61.9849 171.299 62.4352 171.299 62.8855C171.299 63.3358 171.363 63.7861 171.556 64.1078C171.749 64.4937 172.006 64.751 172.392 64.944C172.714 65.137 173.1 65.2657 173.55 65.2657C173.872 65.2657 174.129 65.2013 174.387 65.0727C174.644 64.944 174.901 64.8154 175.159 64.6224L175.866 65.7803C175.544 66.0376 175.159 66.1663 174.708 66.3593C174.322 66.3593 173.872 66.4236 173.486 66.4236Z" fill="#5CABDD"></path>
    <path d="M186.03 65.6519C185.709 65.9092 185.387 66.1022 184.937 66.2309C184.486 66.3595 184.1 66.4238 183.65 66.4238C182.942 66.4238 182.299 66.2952 181.72 65.9735C181.141 65.6519 180.691 65.2659 180.369 64.7513C180.048 64.2367 179.919 63.5934 179.919 62.8857C179.919 62.1781 180.112 61.5348 180.434 61.0202C180.755 60.5056 181.206 60.0553 181.784 59.798C182.299 59.4763 182.942 59.3477 183.521 59.3477C184.036 59.3477 184.551 59.412 185.001 59.5406C185.451 59.6693 185.837 59.9266 186.095 60.1839L185.323 61.1489C185.13 61.0202 184.872 60.8915 184.615 60.7629C184.293 60.6342 184.036 60.5699 183.65 60.5699C183.264 60.5699 182.878 60.6986 182.556 60.8916C182.235 61.0845 181.977 61.3419 181.784 61.7278C181.591 62.1138 181.527 62.4354 181.527 62.8857C181.527 63.3361 181.656 63.722 181.849 64.0437C182.042 64.3653 182.299 64.687 182.685 64.8799C183.007 65.0729 183.457 65.2016 183.907 65.2016C184.165 65.2016 184.486 65.1373 184.679 65.0729C184.937 65.0086 185.13 64.8799 185.323 64.687L186.03 65.6519Z" fill="#5CABDD"></path>
    <path d="M189.633 66.2957V53.5586H191.112V61.0208L191.048 60.7634C191.305 60.3131 191.627 59.9272 192.077 59.6698C192.528 59.3482 193.107 59.2195 193.75 59.2195C194.393 59.2195 194.908 59.4125 195.294 59.7985C195.68 60.1845 195.937 60.6348 195.937 61.2781V66.2957H194.393V61.7927C194.393 61.4067 194.264 61.1494 194.072 60.8921C193.879 60.6348 193.557 60.5705 193.107 60.5705C192.721 60.5705 192.399 60.6991 192.077 60.8921C191.756 61.0851 191.498 61.4067 191.305 61.7927C191.112 62.1787 191.048 62.629 191.048 63.0793V66.2957H189.633Z" fill="#5CABDD"></path>
    <path d="M201.727 59.4761L201.855 61.1486L201.791 60.8913C201.984 60.3767 202.37 59.9907 202.82 59.6691C203.335 59.3474 203.914 59.2188 204.557 59.2188C205.201 59.2188 205.715 59.4117 206.101 59.7977C206.487 60.1837 206.744 60.634 206.744 61.2773V66.2949H205.201V61.7919C205.201 61.4059 205.072 61.1486 204.879 60.8913C204.686 60.634 204.364 60.5697 203.914 60.5697C203.528 60.5697 203.206 60.6983 202.885 60.8913C202.563 61.0843 202.306 61.4059 202.113 61.7919C201.92 62.1779 201.855 62.6282 201.855 63.1428V66.3593H200.312V59.4761H201.727Z" fill="#5CABDD"></path>
    <path d="M210.476 62.8212C210.476 62.1136 210.669 61.5346 210.99 60.9556C211.312 60.3767 211.762 59.9907 212.341 59.6691C212.92 59.3474 213.563 59.2188 214.335 59.2188C215.043 59.2188 215.686 59.3474 216.265 59.6691C216.844 59.9907 217.23 60.441 217.552 60.9556C217.873 61.5346 218.002 62.1136 218.002 62.8212C218.002 63.5288 217.873 64.1078 217.552 64.6867C217.23 65.2657 216.78 65.6516 216.265 65.9733C215.751 66.2949 215.043 66.4879 214.335 66.4879C213.628 66.4879 212.984 66.3593 212.405 66.0376C211.826 65.716 211.376 65.33 211.055 64.751C210.733 64.1721 210.476 63.5288 210.476 62.8212ZM212.019 62.8212C212.019 63.2715 212.148 63.6574 212.341 64.0434C212.534 64.4294 212.791 64.6867 213.113 64.8797C213.435 65.0727 213.821 65.2013 214.207 65.2013C214.657 65.2013 215.043 65.0727 215.365 64.8797C215.686 64.6867 215.944 64.3651 216.137 64.0434C216.33 63.6574 216.394 63.2715 216.394 62.8212C216.394 62.3709 216.33 61.9849 216.137 61.5989C215.944 61.213 215.686 60.9556 215.365 60.7626C215.043 60.5697 214.657 60.441 214.207 60.441C213.821 60.441 213.435 60.5697 213.113 60.7626C212.791 60.9556 212.534 61.2773 212.341 61.5989C212.148 61.9849 212.019 62.4352 212.019 62.8212Z" fill="#5CABDD"></path>
    <path d="M221.668 53.5586H223.212V66.2957H221.668V53.5586Z" fill="#5CABDD"></path>
    <path d="M226.879 62.8212C226.879 62.1136 227.008 61.5346 227.394 60.9556C227.715 60.3767 228.165 59.9907 228.744 59.6691C229.323 59.3474 229.967 59.2188 230.739 59.2188C231.446 59.2188 232.09 59.3474 232.669 59.6691C233.247 59.9907 233.633 60.441 233.955 60.9556C234.277 61.5346 234.405 62.1136 234.405 62.8212C234.405 63.5288 234.277 64.1078 233.955 64.6867C233.633 65.2657 233.183 65.6516 232.669 65.9733C232.09 66.2949 231.446 66.4879 230.739 66.4879C230.031 66.4879 229.388 66.3593 228.809 66.0376C228.23 65.716 227.78 65.33 227.458 64.751C227.136 64.1721 226.879 63.5288 226.879 62.8212ZM228.423 62.8212C228.423 63.2715 228.551 63.6574 228.744 64.0434C228.937 64.4294 229.195 64.6867 229.516 64.8797C229.838 65.0727 230.224 65.2013 230.61 65.2013C231.06 65.2013 231.446 65.0727 231.768 64.8797C232.09 64.6867 232.347 64.3651 232.54 64.0434C232.733 63.6574 232.797 63.2715 232.797 62.8212C232.797 62.3709 232.733 61.9849 232.54 61.5989C232.347 61.213 232.09 60.9556 231.768 60.7626C231.446 60.5697 231.06 60.441 230.61 60.441C230.224 60.441 229.838 60.5697 229.516 60.7626C229.195 60.9556 228.937 61.2773 228.744 61.5989C228.551 61.9849 228.423 62.4352 228.423 62.8212Z" fill="#5CABDD"></path>
    <path d="M241.353 69.6421C240.838 69.6421 240.388 69.5778 240.002 69.4491C239.616 69.3205 239.294 69.1918 238.972 68.9345C238.651 68.7415 238.329 68.4842 238.072 68.2269L238.972 67.1976C239.358 67.5193 239.68 67.7766 240.066 67.9696C240.452 68.1626 240.838 68.2269 241.288 68.2269C241.803 68.2269 242.253 68.1626 242.575 67.9696C242.897 67.7766 243.218 67.5836 243.411 67.2619C243.604 66.9403 243.669 66.6187 243.669 66.2327V64.3671L243.797 64.6888C243.604 65.1391 243.218 65.5251 242.704 65.911C242.189 66.2327 241.546 66.4257 240.838 66.4257C240.195 66.4257 239.68 66.297 239.101 65.9754C238.587 65.6537 238.136 65.2034 237.815 64.6888C237.493 64.1742 237.364 63.5309 237.364 62.8876C237.364 62.18 237.557 61.5367 237.879 61.022C238.201 60.4431 238.651 60.0571 239.165 59.7355C239.68 59.4138 240.323 59.2852 240.902 59.2852C241.481 59.2852 242.06 59.4138 242.575 59.6711C243.09 59.9284 243.411 60.2501 243.669 60.6361L243.54 60.8934L243.669 59.6068H245.084V66.4257C245.084 67.069 244.955 67.5836 244.633 68.0982C244.312 68.6129 243.861 68.9988 243.283 69.3205C242.897 69.5135 242.189 69.6421 241.353 69.6421ZM239.037 62.8232C239.037 63.2736 239.165 63.6595 239.358 64.0455C239.551 64.4315 239.873 64.6888 240.195 64.8818C240.581 65.0748 240.967 65.2034 241.353 65.2034C241.739 65.2034 242.125 65.1391 242.446 65.0104C242.768 64.8818 243.025 64.6888 243.283 64.3671C243.476 64.1098 243.668 63.7882 243.733 63.4665V62.1156C243.604 61.794 243.476 61.4723 243.218 61.2794C242.961 61.022 242.704 60.829 242.382 60.7004C242.06 60.5717 241.739 60.5074 241.353 60.5074C240.902 60.5074 240.516 60.6361 240.195 60.829C239.873 61.022 239.551 61.2794 239.358 61.6653C239.165 61.987 239.037 62.3729 239.037 62.8232Z" fill="#5CABDD"></path>
    <path d="M249.459 57.0316C249.459 56.7743 249.523 56.5813 249.716 56.4526C249.909 56.2596 250.102 56.1953 250.36 56.1953C250.617 56.1953 250.81 56.2596 251.003 56.4526C251.196 56.6456 251.26 56.8386 251.26 57.0316C251.26 57.2889 251.196 57.4819 251.003 57.6749C250.81 57.8035 250.617 57.9322 250.36 57.9322C250.102 57.9322 249.909 57.8679 249.716 57.6749C249.523 57.4819 249.459 57.2889 249.459 57.0316ZM249.523 59.4761H251.067V66.295H249.523V59.4761Z" fill="#5CABDD"></path>
    <path d="M258.529 66.4236C257.757 66.4236 257.114 66.2949 256.535 65.9733C255.956 65.6516 255.57 65.2657 255.248 64.6867C254.927 64.1078 254.798 63.5288 254.798 62.8212C254.798 62.1779 254.991 61.5346 255.312 61.02C255.634 60.5053 256.084 60.055 256.663 59.7334C257.242 59.4117 257.886 59.2188 258.593 59.2188C259.494 59.2188 260.266 59.4761 260.845 59.9907C261.424 60.5053 261.81 61.213 262.067 62.1779L256.47 64.1721L256.084 63.2715L260.652 61.5989L260.33 61.8562C260.201 61.4703 260.009 61.213 259.687 60.8913C259.365 60.634 258.979 60.5053 258.465 60.5053C258.079 60.5053 257.693 60.634 257.371 60.827C257.049 61.02 256.792 61.2773 256.599 61.6633C256.406 61.9849 256.342 62.4352 256.342 62.8855C256.342 63.3358 256.406 63.7861 256.599 64.1078C256.792 64.4937 257.049 64.751 257.435 64.944C257.757 65.137 258.143 65.2657 258.593 65.2657C258.915 65.2657 259.172 65.2013 259.43 65.0727C259.687 64.944 259.944 64.8154 260.201 64.6224L260.909 65.7803C260.587 66.0376 260.201 66.1663 259.751 66.3593C259.365 66.3593 258.915 66.4236 258.529 66.4236Z" fill="#5CABDD"></path>
    <path d="M267.471 66.4236C267.02 66.4236 266.506 66.3593 266.056 66.1663C265.605 65.9733 265.219 65.716 264.962 65.3943L265.605 64.4937C265.927 64.751 266.184 64.944 266.506 65.137C266.827 65.2657 267.085 65.33 267.406 65.33C267.599 65.33 267.857 65.33 267.985 65.2657C268.178 65.2013 268.307 65.137 268.436 65.0084C268.564 64.8797 268.629 64.6867 268.629 64.4937C268.629 64.2364 268.564 64.0434 268.371 63.9148C268.243 63.7861 267.985 63.6574 267.792 63.5931C267.535 63.5288 267.278 63.4001 267.02 63.3358C266.441 63.1428 266.056 62.8855 265.734 62.5639C265.412 62.2422 265.284 61.8562 265.284 61.3416C265.284 60.9556 265.348 60.634 265.541 60.3123C265.734 59.9907 265.991 59.7334 266.377 59.5404C266.763 59.3474 267.149 59.2188 267.664 59.2188C268.114 59.2188 268.564 59.2831 268.95 59.4117C269.336 59.5404 269.658 59.7334 269.98 59.9907L269.401 60.9556C269.208 60.7626 268.95 60.5697 268.693 60.5053C268.436 60.3767 268.178 60.3767 267.985 60.3767C267.792 60.3767 267.599 60.3767 267.406 60.441C267.213 60.5053 267.085 60.5697 267.02 60.6983C266.892 60.827 266.892 60.9556 266.892 61.1486C266.892 61.4059 266.956 61.5346 267.085 61.7276C267.213 61.8562 267.471 61.9849 267.664 62.0492C267.921 62.1136 268.178 62.2422 268.371 62.3065C268.693 62.4352 269.015 62.5639 269.272 62.6925C269.529 62.8855 269.722 63.0785 269.915 63.2715C270.044 63.5288 270.173 63.7861 270.173 64.1721C270.173 64.5581 270.108 64.944 269.915 65.2657C269.722 65.5873 269.401 65.909 269.015 66.102C268.564 66.2949 268.05 66.4236 267.471 66.4236Z" fill="#5CABDD"></path>
    <path d="M5.58695 33.4242C12.5988 44.2958 22.0552 48.7988 34.342 47.3192C46.3715 45.904 54.5413 38.9564 60.7812 28.5352C61.3602 41.7869 52.9331 51.9509 40.5819 53.3018C38.9737 53.4948 37.3011 52.8515 35.6929 52.9158C34.6636 52.9158 33.3771 53.1731 32.6051 53.7521C32.2191 54.0738 32.3478 55.8106 32.8624 56.2609C33.5057 56.7756 34.8566 56.9686 35.6929 56.7756C43.1551 54.91 50.6172 52.9802 58.98 50.793C53.0617 56.7112 46.8861 60.6353 39.3597 62.1149C34.7923 63.0155 30.2893 63.5301 26.3009 60.5066C24.95 59.4774 24.178 57.8692 22.9558 56.6469C22.1838 55.875 21.2189 55.103 20.2539 54.9744C19.7393 54.91 18.3884 56.2609 18.4527 56.7112C18.6457 57.6762 19.4177 58.7054 20.2539 59.3487C23.2774 61.5359 26.4295 63.5944 30.3536 66.2319C16.0726 66.3606 3.01379 48.6058 5.58695 33.4242Z" fill="#0050BB"></path>
    <path d="M32.5412 0.230469C41.1613 2.7393 48.8164 7.24233 52.7405 15.4121C55.2493 20.6228 55.4423 26.9913 56.0856 33.1669C48.7521 22.8743 39.1028 18.4356 26.8803 19.5935C14.8508 20.7514 6.55232 27.5703 0.376736 38.1846C-0.137895 24.2252 9.1898 13.9969 22.3129 13.4179C23.3422 13.3536 24.3714 13.9969 25.4007 13.9969C26.43 13.9969 27.7165 13.8682 28.4885 13.2892C28.8745 12.9676 28.8101 11.1021 28.4242 10.8447C27.5879 10.3301 26.237 10.0728 25.272 10.3301C17.8742 12.1313 10.5407 13.9969 2.17795 16.1197C8.54651 9.81548 14.9794 5.82709 23.0205 4.54051C27.5236 3.83289 31.8979 3.70423 35.629 6.85635C36.6583 7.69263 37.2372 9.10787 38.2022 10.0728C38.9098 10.8447 39.8747 11.681 40.8397 11.874C41.3543 12.0027 42.7052 10.7161 42.6409 10.2015C42.5122 9.23652 41.8689 8.01427 41.0326 7.43531C38.0092 5.37679 34.8571 3.44692 31.7049 1.38839C32.0266 1.00242 32.2839 0.616443 32.5412 0.230469Z" fill="#0050BB"></path>
    <path d="M31.769 21.8438C38.3306 21.8438 43.3483 26.9257 43.3483 33.4873C43.3483 40.1775 38.0733 45.3882 31.4474 45.2595C24.9502 45.1308 19.9968 39.9202 20.0612 33.3586C20.0612 26.7971 25.1432 21.8438 31.769 21.8438ZM31.7047 28.4696C29.0029 28.4696 26.6227 30.9141 26.6871 33.5516C26.7514 36.0605 29.0029 38.3763 31.5117 38.4406C34.2135 38.5693 36.658 36.2534 36.7224 33.5516C36.7867 30.9141 34.3422 28.4696 31.7047 28.4696Z" fill="#0050BB"></path>
  </g>
  <defs>
    <clipPath id="clip0_261_344">
      <rect width="285.363" height="69.4109" fill="white" transform="translate(0.376953 0.230469)"></rect>
    </clipPath>
  </defs>
</svg>
