<?xml version="1.0" encoding="UTF-8"?>
<svg xmlns="http://www.w3.org/2000/svg" width="20" height="18" viewBox="0 0 20 18" fill="none">
  <path d="M3.86844 0.253346C4.67084 0.0542828 5.05533 0.518505 5.33951 1.23182C5.75743 2.31008 6.22551 3.38905 6.67686 4.45072C6.84402 4.81567 6.82731 5.14803 6.57656 5.46321C6.20879 5.94428 5.85774 6.44052 5.47325 6.905C5.20578 7.22018 5.18906 7.50271 5.38966 7.85107C6.91088 10.3725 9.0172 12.2143 11.7755 13.2926C12.1599 13.4419 12.4608 13.3745 12.7116 13.0593C13.1629 12.4953 13.631 11.9321 14.0823 11.3681C14.4167 10.9533 14.6006 10.8543 15.0854 11.07C16.3893 11.6672 17.6932 12.2811 18.9804 12.9281C19.1475 13.011 19.2812 13.2928 19.2812 13.4919C19.2478 15.4493 18.6627 16.3937 16.5564 17.2729C15.3528 17.7706 14.1158 17.6553 12.8788 17.3069C8.39869 16.0628 5.10548 13.2752 2.46424 9.59255C1.64512 8.44794 0.909591 7.27137 0.591974 5.87793C0.140622 3.88729 0.625413 2.14529 2.1132 0.702082C2.6147 0.270777 3.19977 0.153815 3.86844 0.253346Z" fill="white"></path>
</svg>
