<?xml version="1.0" encoding="UTF-8"?>
<svg xmlns="http://www.w3.org/2000/svg" width="292" height="69" viewBox="0 0 292 69" fill="none">
  <g clip-path="url(#clip0_1_233)">
    <path d="M84.3093 43.4522H78.1739V7.84473H84.3093V43.4522Z" fill="white"></path>
    <path d="M91.9789 20.2255C94.4988 17.596 97.5666 16.2812 101.073 16.2812C104.579 16.2812 107.646 17.596 110.166 20.2255C112.686 22.8549 113.891 26.0322 113.891 29.8669V43.4525H107.975V29.8669C107.975 27.7852 107.318 25.9227 106.003 24.3888C104.688 22.8549 103.045 22.088 101.182 22.088C99.3196 22.088 97.6761 22.8549 96.3614 24.3888C95.0467 25.9227 94.3893 27.6756 94.3893 29.8669V43.5621H88.473V29.8669C88.2538 26.0322 89.459 22.8549 91.9789 20.2255Z" fill="white"></path>
    <path d="M120.793 20.2255C123.313 17.596 126.381 16.2812 129.887 16.2812C133.393 16.2812 136.46 17.596 138.98 20.2255C141.5 22.8549 142.705 26.0322 142.705 29.8669V43.4525H136.789V29.8669C136.789 27.7852 136.132 25.9227 134.817 24.3888C133.502 22.8549 131.859 22.088 129.996 22.088C128.134 22.088 126.49 22.8549 125.176 24.3888C123.861 25.9227 123.203 27.6756 123.203 29.8669V43.5621H117.287V29.8669C117.068 26.0322 118.273 22.8549 120.793 20.2255Z" fill="white"></path>
    <path d="M149.06 20.2255C151.58 17.596 154.648 16.2812 158.154 16.2812C161.66 16.2812 164.727 17.596 167.247 20.2255C169.767 22.8549 170.972 26.0322 170.972 29.8669C170.972 33.7015 169.767 36.8788 167.247 39.5083C164.727 42.1378 161.66 43.4525 158.154 43.4525C154.648 43.4525 151.58 42.1378 149.06 39.5083C146.54 36.8788 145.335 33.7015 145.335 29.8669C145.335 26.0322 146.54 22.8549 149.06 20.2255ZM153.223 35.2354C154.538 36.7692 156.182 37.5362 158.044 37.5362C159.907 37.5362 161.55 36.7692 162.865 35.2354C164.18 33.7015 164.837 31.9485 164.837 29.7573C164.837 27.6756 164.18 25.8131 162.865 24.2792C161.55 22.7454 159.907 21.9784 158.044 21.9784C156.182 21.9784 154.538 22.7454 153.223 24.2792C151.909 25.8131 151.251 27.5661 151.251 29.7573C151.251 31.9485 151.909 33.7015 153.223 35.2354Z" fill="white"></path>
    <path d="M198.035 38.3028V43.4522H174.26V7.84473H180.395V38.4124H198.035V38.3028Z" fill="white"></path>
    <path d="M202.307 20.2255C204.827 17.596 207.894 16.2812 211.4 16.2812C214.906 16.2812 217.974 17.596 220.494 20.2255C223.014 22.8549 224.219 26.0322 224.219 29.8669C224.219 33.7015 223.014 36.8788 220.494 39.5083C217.974 42.1378 214.906 43.4525 211.4 43.4525C207.894 43.4525 204.827 42.1378 202.307 39.5083C199.787 36.8788 198.582 33.7015 198.582 29.8669C198.582 26.0322 199.787 22.8549 202.307 20.2255ZM206.47 35.2354C207.785 36.7692 209.428 37.5362 211.291 37.5362C213.153 37.5362 214.797 36.7692 216.111 35.2354C217.426 33.7015 218.084 31.9485 218.084 29.7573C218.084 27.6756 217.426 25.8131 216.111 24.2792C214.797 22.7454 213.153 21.9784 211.291 21.9784C209.428 21.9784 207.785 22.7454 206.47 24.2792C205.155 25.8131 204.498 27.5661 204.498 29.7573C204.498 31.9485 205.155 33.7015 206.47 35.2354Z" fill="white"></path>
    <path d="M245.584 17.2667H251.5V42.3563C251.5 45.7527 250.405 48.3822 248.213 50.3543C246.022 52.3264 243.173 53.3125 239.558 53.3125C239.339 53.3125 239.01 53.3125 238.681 53.3125V48.1631C239.01 48.1631 239.339 48.1631 239.668 48.1631C241.53 48.1631 242.954 47.6153 243.94 46.5197C244.926 45.424 245.474 43.9998 245.474 42.0276V41.8085C243.393 43.1233 241.201 43.7806 238.901 43.7806C235.395 43.7806 232.327 42.4659 229.807 39.8364C227.287 37.2069 226.082 34.0297 226.082 30.195C226.082 26.4699 227.287 23.1831 229.807 20.5536C232.327 17.9241 235.395 16.6094 238.901 16.6094C241.311 16.6094 243.502 17.2667 245.474 18.5815V17.2667H245.584ZM238.901 38.0834C240.763 38.0834 242.407 37.3165 243.721 35.7826C245.036 34.2488 245.693 32.3862 245.693 30.195C245.693 28.0038 245.036 26.1412 243.721 24.6074C242.407 23.0735 240.763 22.3066 238.901 22.3066C237.038 22.3066 235.395 23.0735 234.08 24.6074C232.765 26.1412 232.108 28.0038 232.108 30.195C232.108 30.9619 232.217 31.6193 232.327 32.2767C232.436 32.934 232.656 33.5914 232.984 34.1392C233.313 34.687 233.642 35.2348 234.08 35.7826C234.518 36.3304 234.956 36.6591 235.504 36.9878C236.052 37.3165 236.6 37.6452 237.148 37.7547C237.586 37.9739 238.243 38.0834 238.901 38.0834Z" fill="white"></path>
    <path d="M258.841 14.7474C258.183 14.7474 257.636 14.6378 257.088 14.3092C256.54 13.9805 256.102 13.5422 255.883 13.104C255.554 12.5562 255.444 12.0084 255.444 11.351C255.444 10.3649 255.773 9.59801 256.43 8.94064C257.088 8.28327 257.964 7.95459 258.841 7.95459C259.717 7.95459 260.594 8.28327 261.251 8.94064C261.908 9.59801 262.237 10.4745 262.237 11.351C262.237 12.337 261.908 13.104 261.251 13.7613C260.594 14.3092 259.717 14.7474 258.841 14.7474ZM261.689 43.4525H255.773V16.1717H261.689V43.4525Z" fill="white"></path>
    <path d="M277.685 37.8643C278.671 37.8643 279.548 37.6452 280.424 37.2069C281.301 36.7687 281.958 36.2209 282.616 35.5635C283.273 34.7966 283.711 34.0297 284.04 33.1532H290.175C289.518 36.2209 287.984 38.7408 285.683 40.8225C283.382 42.7946 280.643 43.7806 277.685 43.7806C274.179 43.7806 271.112 42.4659 268.592 39.8364C266.072 37.2069 264.867 34.0297 264.867 30.195C264.867 26.4699 266.072 23.1831 268.592 20.5536C271.112 17.9241 274.179 16.6094 277.685 16.6094C280.753 16.6094 283.382 17.5954 285.683 19.5675C287.984 21.5396 289.518 24.1691 290.175 27.2368H284.04C283.711 26.3603 283.163 25.4839 282.616 24.8265C281.958 24.0596 281.301 23.5117 280.424 23.1831C279.548 22.7448 278.671 22.5257 277.685 22.5257C276.48 22.5257 275.275 22.8544 274.179 23.6213C273.084 24.2787 272.317 25.2647 271.659 26.4699C271.002 27.6751 270.783 28.8803 270.783 30.3046C270.783 31.7289 271.112 32.934 271.659 34.1392C272.317 35.3444 273.084 36.2209 274.179 36.9878C275.275 37.5356 276.48 37.8643 277.685 37.8643Z" fill="white"></path>
    <path d="M85.5155 53.0934C86.7206 53.0934 87.7067 53.3126 88.364 53.8604C89.0214 54.4082 89.3501 55.0656 89.3501 56.1612C89.3501 56.8185 89.2405 57.3663 88.9119 57.8046C88.5832 58.2428 88.2545 58.6811 87.7067 58.9002C87.1589 59.1193 86.6111 59.3385 85.8441 59.3385L85.625 58.462C86.3919 58.462 87.1589 58.6811 87.8162 58.9002C88.4736 59.1193 89.0214 59.5576 89.3501 59.9958C89.6788 60.4341 89.8979 61.0914 89.8979 61.6392C89.8979 62.187 89.7883 62.7349 89.5692 63.1731C89.3501 63.6114 89.0214 63.94 88.6927 64.2687C88.364 64.4878 87.9258 64.707 87.378 64.8165C86.8302 64.9261 86.3919 65.0357 85.8441 65.0357H82.2286V52.9839H85.5155V53.0934ZM85.8441 58.3524C86.5015 58.3524 86.9398 58.1333 87.2684 57.8046C87.5971 57.4759 87.7067 57.0377 87.7067 56.4899C87.7067 55.8325 87.4876 55.3942 87.1589 55.0656C86.7206 54.7369 86.2824 54.6273 85.625 54.6273H84.0911V58.3524H85.8441ZM85.8441 63.6114C86.2824 63.6114 86.7206 63.5018 87.0493 63.3922C87.378 63.2827 87.7067 63.0635 87.9258 62.7349C88.1449 62.4062 88.2545 62.0775 88.2545 61.7488C88.2545 61.3106 88.1449 60.8723 87.9258 60.6532C87.7067 60.4341 87.378 60.2149 86.9397 60.1054C86.5015 59.9958 86.1728 59.8863 85.7346 59.8863H83.9816V63.6114H85.8441Z" fill="white"></path>
    <path d="M96.1427 65.3651C95.4853 65.3651 94.9375 65.146 94.6088 64.8173C94.1706 64.4887 93.9515 63.9408 93.9515 63.2835V58.2437H95.4853V62.7357C95.4853 63.0644 95.5949 63.393 95.814 63.6122C96.0331 63.8313 96.3618 63.9409 96.6905 63.9409C97.0192 63.9409 97.4574 63.8313 97.6766 63.6122C97.8957 63.393 98.2244 63.0644 98.4435 62.7357C98.6626 62.2974 98.7722 61.8592 98.7722 61.4209V58.2437H100.306V65.146H98.8817L98.7722 63.5026L98.8817 63.8313C98.7722 64.16 98.553 64.3791 98.2244 64.7078C97.8957 65.0365 97.6766 65.146 97.2383 65.2556C96.9096 65.2556 96.5809 65.3651 96.1427 65.3651Z" fill="white"></path>
    <path d="M106.551 65.2553C106.113 65.2553 105.565 65.1457 105.127 65.0362C104.689 64.817 104.251 64.5979 104.032 64.2692L104.689 63.3927C105.018 63.7214 105.237 63.831 105.565 64.0501C105.894 64.1597 106.113 64.2692 106.442 64.2692C106.661 64.2692 106.88 64.2692 107.099 64.1597C107.318 64.0501 107.428 64.0501 107.537 63.831C107.647 63.7214 107.757 63.5023 107.757 63.2832C107.757 63.0641 107.647 62.8449 107.537 62.7354C107.428 62.6258 107.209 62.5162 106.88 62.4067C106.661 62.2971 106.332 62.1876 106.113 62.1876C105.565 61.9684 105.127 61.7493 104.798 61.4206C104.47 61.0919 104.36 60.6537 104.36 60.2155C104.36 59.8868 104.47 59.5581 104.689 59.2294C104.908 58.9007 105.127 58.6816 105.565 58.4625C105.894 58.2433 106.332 58.1338 106.88 58.1338C107.318 58.1338 107.757 58.2433 108.195 58.3529C108.524 58.4625 108.962 58.6816 109.29 58.9007L108.633 59.8868C108.414 59.6676 108.195 59.5581 107.976 59.4485C107.757 59.339 107.428 59.339 107.209 59.339C106.99 59.339 106.771 59.339 106.661 59.4485C106.442 59.5581 106.332 59.5581 106.223 59.6676C106.113 59.7772 106.113 59.8868 106.113 60.1059C106.113 60.325 106.223 60.5441 106.332 60.6537C106.442 60.7633 106.661 60.8728 106.99 60.9824C107.209 61.0919 107.537 61.2015 107.757 61.2015C108.085 61.3111 108.414 61.4206 108.633 61.6398C108.852 61.8589 109.071 61.9684 109.29 62.2971C109.4 62.5162 109.51 62.8449 109.51 63.1736C109.51 63.6119 109.4 63.9405 109.181 64.2692C108.962 64.5979 108.743 64.9266 108.304 65.1457C107.757 65.1457 107.209 65.2553 106.551 65.2553Z" fill="white"></path>
    <path d="M113.015 55.7232C113.015 55.504 113.125 55.2849 113.344 55.0658C113.563 54.8467 113.782 54.8467 114.001 54.8467C114.22 54.8467 114.44 54.9562 114.659 55.0658C114.878 55.2849 114.987 55.3945 114.987 55.7232C114.987 55.9423 114.878 56.1614 114.659 56.3805C114.44 56.4901 114.22 56.5997 114.001 56.5997C113.782 56.5997 113.563 56.4901 113.344 56.3805C113.125 56.1614 113.015 55.9423 113.015 55.7232ZM113.125 58.2431H114.659V65.1455H113.125V58.2431Z" fill="white"></path>
    <path d="M120.356 58.2435L120.466 59.887V59.6678C120.685 59.12 121.014 58.7913 121.561 58.4627C122.109 58.134 122.657 58.0244 123.314 58.0244C123.972 58.0244 124.52 58.2435 124.848 58.5722C125.287 58.9009 125.506 59.4487 125.506 60.1061V65.1459H123.972V60.5443C123.972 60.2156 123.862 59.887 123.643 59.6678C123.424 59.4487 123.095 59.3392 122.657 59.3392C122.219 59.3392 121.89 59.4487 121.561 59.6678C121.233 59.887 121.014 60.2156 120.795 60.5443C120.575 60.9826 120.466 61.4208 120.466 61.8591V65.0364H118.932V58.2435H120.356Z" fill="white"></path>
    <path d="M133.065 65.2552C132.298 65.2552 131.641 65.1456 130.983 64.8169C130.436 64.4882 129.997 64.05 129.669 63.5022C129.34 62.9544 129.23 62.297 129.23 61.6396C129.23 60.9823 129.45 60.3249 129.778 59.7771C130.107 59.2293 130.545 58.791 131.203 58.4624C131.75 58.1337 132.408 57.9146 133.175 57.9146C134.051 57.9146 134.818 58.1337 135.475 58.6815C136.023 59.2293 136.462 59.9962 136.681 60.8727L130.983 62.8448L130.655 61.9683L135.256 60.2153L134.928 60.4345C134.818 60.1058 134.599 59.7771 134.27 59.4484C133.942 59.2293 133.503 59.0102 133.065 59.0102C132.627 59.0102 132.298 59.1197 131.97 59.3388C131.641 59.558 131.422 59.7771 131.203 60.2153C130.983 60.544 130.874 60.9823 130.874 61.4205C130.874 61.8588 130.983 62.297 131.203 62.6257C131.422 62.9544 131.641 63.2831 131.97 63.5022C132.298 63.7213 132.736 63.8309 133.175 63.8309C133.503 63.8309 133.722 63.8309 134.051 63.6117C134.38 63.5022 134.599 63.3926 134.818 63.1735L135.475 64.2691C135.147 64.4882 134.709 64.7074 134.27 64.8169C133.832 65.1456 133.394 65.2552 133.065 65.2552Z" fill="white"></path>
    <path d="M142.049 65.2553C141.611 65.2553 141.063 65.1457 140.625 65.0362C140.186 64.817 139.748 64.5979 139.529 64.2692L140.186 63.3927C140.515 63.7214 140.734 63.831 141.063 64.0501C141.392 64.1597 141.611 64.2692 141.939 64.2692C142.158 64.2692 142.378 64.2692 142.597 64.1597C142.816 64.0501 142.925 64.0501 143.035 63.831C143.145 63.7214 143.254 63.5023 143.254 63.2832C143.254 63.0641 143.145 62.8449 143.035 62.7354C142.925 62.6258 142.706 62.5162 142.378 62.4067C142.158 62.2971 141.83 62.1876 141.611 62.1876C141.063 61.9684 140.625 61.7493 140.296 61.4206C139.967 61.0919 139.858 60.6537 139.858 60.2155C139.858 59.8868 139.967 59.5581 140.186 59.2294C140.405 58.9007 140.625 58.6816 141.063 58.4625C141.392 58.2433 141.83 58.1338 142.378 58.1338C142.816 58.1338 143.254 58.2433 143.692 58.3529C144.021 58.4625 144.459 58.6816 144.788 58.9007L144.131 59.8868C143.911 59.6676 143.692 59.5581 143.473 59.4485C143.254 59.339 142.925 59.339 142.706 59.339C142.487 59.339 142.268 59.339 142.158 59.4485C141.939 59.5581 141.83 59.5581 141.72 59.6676C141.611 59.7772 141.611 59.8868 141.611 60.1059C141.611 60.325 141.72 60.5441 141.83 60.6537C141.939 60.7633 142.158 60.8728 142.487 60.9824C142.706 61.0919 143.035 61.2015 143.254 61.2015C143.583 61.3111 143.911 61.4206 144.131 61.6398C144.35 61.8589 144.569 61.9684 144.788 62.2971C144.897 62.5162 145.007 62.8449 145.007 63.1736C145.007 63.6119 144.897 63.9405 144.678 64.2692C144.459 64.5979 144.24 64.9266 143.802 65.1457C143.145 65.1457 142.706 65.2553 142.049 65.2553Z" fill="white"></path>
    <path d="M150.485 65.2553C150.047 65.2553 149.499 65.1457 149.061 65.0362C148.623 64.817 148.185 64.5979 147.965 64.2692L148.623 63.3927C148.951 63.7214 149.171 63.831 149.499 64.0501C149.828 64.1597 150.047 64.2692 150.376 64.2692C150.595 64.2692 150.814 64.2692 151.033 64.1597C151.252 64.0501 151.362 64.0501 151.471 63.831C151.581 63.7214 151.691 63.5023 151.691 63.2832C151.691 63.0641 151.581 62.8449 151.471 62.7354C151.362 62.6258 151.143 62.5162 150.814 62.4067C150.595 62.2971 150.266 62.1876 150.047 62.1876C149.499 61.9684 149.061 61.7493 148.732 61.4206C148.404 61.0919 148.294 60.6537 148.294 60.2155C148.294 59.8868 148.404 59.5581 148.623 59.2294C148.842 58.9007 149.061 58.6816 149.499 58.4625C149.828 58.2433 150.266 58.1338 150.814 58.1338C151.252 58.1338 151.691 58.2433 152.129 58.3529C152.457 58.4625 152.896 58.6816 153.224 58.9007L152.567 59.8868C152.348 59.6676 152.129 59.5581 151.91 59.4485C151.691 59.339 151.362 59.339 151.143 59.339C150.924 59.339 150.704 59.339 150.595 59.4485C150.376 59.5581 150.266 59.5581 150.157 59.6676C150.047 59.7772 150.047 59.8868 150.047 60.1059C150.047 60.325 150.157 60.5441 150.266 60.6537C150.376 60.7633 150.595 60.8728 150.924 60.9824C151.143 61.0919 151.471 61.2015 151.691 61.2015C152.019 61.3111 152.348 61.4206 152.567 61.6398C152.786 61.8589 153.005 61.9684 153.224 62.2971C153.334 62.5162 153.444 62.8449 153.444 63.1736C153.444 63.6119 153.334 63.9405 153.115 64.2692C152.896 64.5979 152.677 64.9266 152.238 65.1457C151.581 65.1457 151.143 65.2553 150.485 65.2553Z" fill="white"></path>
    <path d="M163.414 53.0933H171.412V54.6271H168.235V65.145H166.591V54.6271H163.414V53.0933Z" fill="white"></path>
    <path d="M176.671 65.2552C175.904 65.2552 175.247 65.1456 174.589 64.8169C174.041 64.4882 173.603 64.05 173.275 63.5022C172.946 62.9544 172.836 62.297 172.836 61.6396C172.836 60.9823 173.055 60.3249 173.384 59.7771C173.713 59.2293 174.151 58.791 174.808 58.4624C175.356 58.1337 176.014 57.9146 176.781 57.9146C177.657 57.9146 178.424 58.1337 179.081 58.6815C179.629 59.2293 180.067 59.9962 180.286 60.8727L174.589 62.8448L174.261 61.9683L178.862 60.2153L178.533 60.4345C178.424 60.1058 178.205 59.7771 177.876 59.4484C177.547 59.2293 177.109 59.0102 176.671 59.0102C176.233 59.0102 175.904 59.1197 175.575 59.3388C175.247 59.558 175.028 59.7771 174.808 60.2153C174.589 60.6536 174.48 60.9823 174.48 61.4205C174.48 61.8588 174.589 62.297 174.808 62.6257C175.028 62.9544 175.247 63.2831 175.575 63.5022C175.904 63.7213 176.342 63.8309 176.781 63.8309C177.109 63.8309 177.328 63.8309 177.657 63.6117C177.986 63.5022 178.205 63.3926 178.424 63.1735L179.081 64.2691C178.753 64.4882 178.314 64.7074 177.876 64.8169C177.438 65.1456 177.109 65.2552 176.671 65.2552Z" fill="white"></path>
    <path d="M189.38 64.379C189.051 64.5981 188.723 64.8172 188.284 64.9268C187.846 65.0363 187.408 65.1459 186.97 65.1459C186.203 65.1459 185.545 65.0364 184.997 64.7077C184.45 64.379 184.011 63.9407 183.683 63.3929C183.354 62.8451 183.244 62.1878 183.244 61.5304C183.244 60.7635 183.464 60.2156 183.792 59.6678C184.121 59.12 184.559 58.6818 185.107 58.4627C185.655 58.134 186.203 58.0244 186.86 58.0244C187.408 58.0244 187.846 58.134 188.284 58.2435C188.723 58.3531 189.051 58.5722 189.38 58.9009L188.613 59.887C188.394 59.7774 188.175 59.5583 187.846 59.4487C187.517 59.3392 187.189 59.2296 186.86 59.2296C186.422 59.2296 186.093 59.3392 185.764 59.5583C185.436 59.7774 185.107 59.9965 184.997 60.4348C184.888 60.873 184.669 61.2017 184.669 61.6399C184.669 62.0782 184.778 62.5164 184.997 62.8451C185.217 63.1738 185.436 63.5025 185.874 63.7216C186.203 63.9407 186.641 64.0503 187.079 64.0503C187.408 64.0503 187.627 64.0503 187.846 63.9407C188.065 63.8312 188.284 63.7216 188.503 63.6121L189.38 64.379Z" fill="white"></path>
    <path d="M192.996 65.036V52.2173H194.53V59.777V59.4483C194.749 59.0101 195.077 58.5719 195.625 58.3527C196.063 58.024 196.721 57.9145 197.378 57.9145C198.035 57.9145 198.583 58.1336 198.912 58.4623C199.35 58.791 199.569 59.3388 199.569 59.9962V65.036H198.035V60.4344C198.035 60.1057 197.926 59.777 197.707 59.5579C197.488 59.3388 197.159 59.2292 196.721 59.2292C196.282 59.2292 195.954 59.3388 195.625 59.5579C195.296 59.777 195.077 60.1057 194.858 60.4344C194.639 60.8726 194.639 61.3109 194.639 61.7491V64.9264H192.996V65.036Z" fill="white"></path>
    <path d="M205.266 58.2435L205.375 59.887V59.6678C205.595 59.12 205.923 58.7913 206.471 58.4627C207.019 58.134 207.567 58.0244 208.224 58.0244C208.881 58.0244 209.429 58.2435 209.758 58.5722C210.196 58.9009 210.415 59.4487 210.415 60.1061V65.1459H208.881V60.5443C208.881 60.2156 208.772 59.887 208.553 59.6678C208.334 59.4487 208.005 59.3392 207.567 59.3392C207.128 59.3392 206.8 59.4487 206.471 59.6678C206.142 59.887 205.923 60.2156 205.704 60.5443C205.485 60.9826 205.485 61.4208 205.485 61.8591V65.0364H203.951V58.2435H205.266Z" fill="white"></path>
    <path d="M214.141 61.5301C214.141 60.8727 214.25 60.2153 214.579 59.6675C214.908 59.1197 215.346 58.6815 215.894 58.3528C216.442 58.0241 217.099 57.9146 217.866 57.9146C218.633 57.9146 219.29 58.0241 219.838 58.3528C220.386 58.6815 220.824 59.1197 221.153 59.6675C221.481 60.2153 221.591 60.8727 221.591 61.5301C221.591 62.1874 221.481 62.8448 221.153 63.3926C220.824 63.9404 220.386 64.3787 219.838 64.7074C219.29 65.036 218.633 65.1456 217.866 65.1456C217.099 65.1456 216.442 65.036 215.894 64.7074C215.346 64.3787 214.908 63.9404 214.579 63.3926C214.25 62.9544 214.141 62.297 214.141 61.5301ZM215.675 61.6396C215.675 62.0779 215.784 62.5161 216.003 62.8448C216.222 63.1735 216.442 63.5022 216.77 63.7213C217.099 63.9404 217.428 64.05 217.866 64.05C218.304 64.05 218.633 63.9404 218.961 63.7213C219.29 63.5022 219.509 63.1735 219.728 62.8448C219.948 62.5161 220.057 62.0779 220.057 61.6396C220.057 61.2014 219.948 60.7631 219.728 60.4345C219.509 60.1058 219.29 59.7771 218.961 59.558C218.633 59.3389 218.195 59.2293 217.866 59.2293C217.428 59.2293 217.099 59.3389 216.77 59.558C216.442 59.7771 216.113 60.1058 216.003 60.4345C215.784 60.7631 215.675 61.2014 215.675 61.6396Z" fill="white"></path>
    <path d="M225.425 52.2173H226.959V65.036H225.425V52.2173Z" fill="white"></path>
    <path d="M230.685 61.5301C230.685 60.8727 230.794 60.2153 231.123 59.6675C231.452 59.1197 231.89 58.6815 232.438 58.3528C232.986 58.0241 233.643 57.9146 234.41 57.9146C235.177 57.9146 235.834 58.0241 236.382 58.3528C236.93 58.6815 237.368 59.1197 237.697 59.6675C238.025 60.2153 238.135 60.8727 238.135 61.5301C238.135 62.1874 238.025 62.8448 237.697 63.3926C237.368 63.9404 236.93 64.3787 236.382 64.7074C235.834 65.036 235.177 65.1456 234.41 65.1456C233.643 65.1456 232.986 65.036 232.438 64.7074C231.89 64.3787 231.452 63.9404 231.123 63.3926C230.904 62.9544 230.685 62.297 230.685 61.5301ZM232.219 61.6396C232.219 62.0779 232.328 62.5161 232.547 62.8448C232.766 63.1735 232.986 63.5022 233.314 63.7213C233.643 63.9404 233.972 64.05 234.41 64.05C234.848 64.05 235.177 63.9404 235.506 63.7213C235.834 63.5022 236.053 63.1735 236.272 62.8448C236.492 62.5161 236.601 62.0779 236.601 61.6396C236.601 61.2014 236.492 60.7631 236.272 60.4345C236.053 60.1058 235.834 59.7771 235.506 59.558C235.177 59.3389 234.739 59.2293 234.41 59.2293C233.972 59.2293 233.643 59.3389 233.314 59.558C232.986 59.7771 232.657 60.1058 232.547 60.4345C232.328 60.7631 232.219 61.2014 232.219 61.6396Z" fill="white"></path>
    <path d="M245.366 68.5423C244.818 68.5423 244.38 68.4328 244.051 68.3232C243.723 68.2136 243.284 67.9945 242.956 67.7754C242.627 67.5563 242.298 67.3371 242.079 67.118L242.956 66.0224C243.284 66.3511 243.723 66.5702 244.051 66.7893C244.38 67.0085 244.818 67.118 245.366 67.118C245.914 67.118 246.352 67.0085 246.681 66.8989C247.009 66.6798 247.338 66.4606 247.448 66.2415C247.667 65.9128 247.776 65.5842 247.776 65.1459V63.2834L247.886 63.6121C247.667 64.0503 247.338 64.4885 246.79 64.8172C246.243 65.1459 245.585 65.2555 244.928 65.2555C244.27 65.2555 243.723 65.1459 243.175 64.8172C242.627 64.4885 242.189 64.0503 241.86 63.5025C241.531 62.9547 241.422 62.2973 241.422 61.6399C241.422 60.873 241.641 60.3252 241.97 59.7774C242.298 59.2296 242.737 58.7913 243.284 58.4627C243.832 58.134 244.38 58.0244 245.037 58.0244C245.695 58.0244 246.243 58.134 246.681 58.3531C247.229 58.5722 247.557 58.9009 247.776 59.3392L247.667 59.6678L247.776 58.3531H249.201V65.2555C249.201 65.9128 249.091 66.4607 248.762 66.8989C248.434 67.4467 247.996 67.7754 247.448 68.1041C246.9 68.4328 246.133 68.5423 245.366 68.5423ZM242.956 61.5304C242.956 61.9686 243.065 62.4069 243.284 62.7356C243.504 63.0642 243.832 63.3929 244.161 63.6121C244.49 63.8312 244.928 63.9407 245.366 63.9407C245.804 63.9407 246.133 63.8312 246.462 63.7216C246.79 63.6121 247.009 63.3929 247.338 63.0642C247.557 62.8451 247.667 62.5164 247.776 62.1877V60.7635C247.667 60.4348 247.557 60.1061 247.229 59.887C247.009 59.6678 246.681 59.4487 246.352 59.3392C246.023 59.2296 245.695 59.12 245.256 59.12C244.818 59.12 244.38 59.2296 244.051 59.4487C243.723 59.6678 243.394 59.887 243.175 60.3252C243.065 60.6539 242.956 61.0921 242.956 61.5304Z" fill="white"></path>
    <path d="M253.474 55.7232C253.474 55.504 253.583 55.2849 253.802 55.0658C254.021 54.8467 254.24 54.8467 254.46 54.8467C254.679 54.8467 254.898 54.9562 255.117 55.0658C255.336 55.1754 255.446 55.3945 255.446 55.7232C255.446 55.9423 255.336 56.1614 255.117 56.3805C254.898 56.4901 254.679 56.5997 254.46 56.5997C254.24 56.5997 254.021 56.4901 253.802 56.3805C253.583 56.1614 253.474 55.9423 253.474 55.7232ZM253.583 58.2431H255.117V65.1455H253.583V58.2431Z" fill="white"></path>
    <path d="M262.677 65.2552C261.91 65.2552 261.252 65.1456 260.595 64.8169C260.047 64.4882 259.609 64.05 259.28 63.5022C258.952 62.9544 258.842 62.297 258.842 61.6396C258.842 60.9823 259.061 60.3249 259.39 59.7771C259.719 59.2293 260.157 58.791 260.814 58.4624C261.362 58.1337 262.019 57.9146 262.786 57.9146C263.663 57.9146 264.43 58.1337 265.087 58.6815C265.635 59.2293 266.073 59.9962 266.292 60.8727L260.595 62.8448L260.266 61.9683L264.868 60.2153L264.539 60.4345C264.43 60.1058 264.211 59.7771 263.882 59.4484C263.553 59.2293 263.115 59.0102 262.677 59.0102C262.239 59.0102 261.91 59.1197 261.581 59.3388C261.252 59.558 261.033 59.7771 260.814 60.2153C260.595 60.6536 260.486 61.0918 260.486 61.5301C260.486 61.9683 260.595 62.4066 260.814 62.7353C261.033 63.0639 261.252 63.3926 261.581 63.6117C261.91 63.8309 262.348 63.9404 262.786 63.9404C263.115 63.9404 263.334 63.9404 263.663 63.7213C263.991 63.6117 264.211 63.5022 264.43 63.2831L265.087 64.3787C264.758 64.5978 264.32 64.8169 263.882 64.9265C263.553 65.1456 263.115 65.2552 262.677 65.2552Z" fill="white"></path>
    <path d="M271.77 65.2553C271.332 65.2553 270.784 65.1457 270.346 65.0362C269.908 64.817 269.469 64.5979 269.25 64.2692L269.908 63.3927C270.236 63.7214 270.455 63.831 270.784 64.0501C271.113 64.1597 271.332 64.2692 271.661 64.2692C271.88 64.2692 272.099 64.2692 272.318 64.1597C272.537 64.0501 272.647 64.0501 272.756 63.831C272.866 63.6119 272.975 63.5023 272.975 63.2832C272.975 63.0641 272.866 62.8449 272.756 62.7354C272.647 62.6258 272.428 62.5162 272.099 62.4067C271.88 62.2971 271.551 62.1876 271.332 62.1876C270.784 61.9684 270.346 61.7493 270.017 61.4206C269.688 61.0919 269.579 60.6537 269.579 60.2155C269.579 59.8868 269.688 59.5581 269.798 59.2294C269.908 58.9007 270.236 58.6816 270.675 58.4625C271.003 58.2433 271.441 58.1338 271.989 58.1338C272.427 58.1338 272.866 58.2433 273.304 58.3529C273.633 58.4625 274.071 58.6816 274.4 58.9007L273.742 59.8868C273.523 59.6676 273.304 59.5581 273.085 59.4485C272.866 59.339 272.537 59.339 272.318 59.339C272.099 59.339 271.88 59.339 271.77 59.4485C271.551 59.5581 271.441 59.5581 271.332 59.6676C271.222 59.7772 271.222 59.8868 271.222 60.1059C271.222 60.325 271.332 60.5441 271.441 60.6537C271.551 60.7633 271.77 60.8728 272.099 60.9824C272.318 61.0919 272.647 61.2015 272.866 61.2015C273.194 61.3111 273.523 61.4206 273.742 61.6398C273.961 61.8589 274.18 61.9684 274.4 62.2971C274.509 62.5162 274.619 62.8449 274.619 63.1736C274.619 63.6119 274.509 63.9405 274.29 64.2692C274.071 64.5979 273.852 64.9266 273.414 65.1457C272.866 65.1457 272.318 65.2553 271.77 65.2553Z" fill="white"></path>
    <path d="M5.39283 34.6879C12.5143 45.7536 22.0462 50.2456 34.5362 48.8213C46.6975 47.2875 54.9146 40.2755 61.2692 29.8672C61.817 43.3433 53.3808 53.5325 40.8908 54.9568C39.2473 55.1759 37.6039 54.5185 35.9605 54.5185C34.8649 54.5185 33.6597 54.7376 32.8928 55.395C32.4545 55.7237 32.6736 57.4767 33.1119 57.9149C33.7693 58.4627 35.084 58.6819 35.9605 58.4627C43.5202 56.6002 51.08 54.6281 59.5162 52.4369C53.3808 58.3532 47.2453 62.2974 39.576 63.8312C34.9744 64.7077 30.3729 65.2555 26.3191 62.1878C25.0043 61.2018 24.1278 59.4488 22.9227 58.2436C22.1557 57.4767 21.1697 56.7098 20.1836 56.6002C19.6358 56.4906 18.3211 57.9149 18.4306 58.3532C18.6498 59.3392 19.4167 60.4348 20.2932 60.9827C23.3609 63.1739 26.5382 65.2556 30.4824 67.9946C16.0203 67.9946 2.76335 50.1361 5.39283 34.6879Z" fill="white"></path>
    <path d="M32.6736 1.16162C41.3289 3.68154 49.1078 8.17356 53.1616 16.5002C55.6815 21.7592 55.9006 28.2233 56.558 34.4683C49.1078 24.06 39.3568 19.568 26.9764 20.7731C14.815 21.8687 6.3788 28.7711 0.133793 39.6177C-0.414015 25.4843 9.00827 15.0759 22.3748 14.5281C23.3608 14.5281 24.4564 15.0759 25.4425 15.0759C26.5381 15.0759 27.7433 14.9664 28.5102 14.309C28.9485 13.9803 28.8389 12.1178 28.4007 11.7891C27.5242 11.2413 26.2094 11.0222 25.2234 11.2413C17.7732 12.9943 10.323 14.9664 1.88678 17.1576C8.46047 10.9126 14.9246 6.85882 23.0321 5.54408C27.6337 4.77715 32.0162 4.77715 35.8508 7.95443C36.8369 8.83093 37.4943 10.2552 38.4803 11.2413C39.2473 12.0082 40.1237 12.8847 41.1098 13.1038C41.6576 13.2134 42.9723 11.8986 42.9723 11.4604C42.8628 10.4743 42.2054 9.26917 41.3289 8.6118C38.2612 6.42057 35.0839 4.44847 31.9066 2.3668C32.1258 1.92855 32.4544 1.49031 32.6736 1.16162Z" fill="white"></path>
    <path d="M31.907 23.0745C38.5902 23.0745 43.6301 28.2239 43.6301 34.7976C43.6301 41.5904 38.2615 46.8494 31.5783 46.7398C25.0046 46.6302 19.9648 41.3713 20.0743 34.688C20.0743 28.0048 25.2237 22.9649 31.907 23.0745ZM31.7974 29.7578C29.0584 29.7578 26.648 32.1681 26.7576 34.9071C26.7576 37.4271 29.0584 39.7279 31.6879 39.8374C34.4269 39.947 36.9468 37.6462 36.9468 34.9071C36.9468 32.1681 34.5365 29.7578 31.7974 29.7578Z" fill="white"></path>
  </g>
  <defs>
    <clipPath id="clip0_1_233">
      <rect width="291.434" height="68.8046" fill="white" transform="translate(0.133789 0.175781)"></rect>
    </clipPath>
  </defs>
</svg>
