<?xml version="1.0" encoding="UTF-8"?>
<svg xmlns="http://www.w3.org/2000/svg" width="292" height="69" viewBox="0 0 292 69" fill="none">
  <g clip-path="url(#clip0_1_153)">
    <path d="M84.1755 43.2768H78.0401V7.66928H84.1755V43.2768Z" fill="black"></path>
    <path d="M91.8451 20.05C94.3651 17.4205 97.4328 16.1057 100.939 16.1057C104.445 16.1057 107.512 17.4205 110.032 20.05C112.552 22.6794 113.757 25.8567 113.757 29.6914V43.277H107.841V29.6914C107.841 27.6097 107.184 25.7472 105.869 24.2133C104.554 22.6794 102.911 21.9125 101.048 21.9125C99.1858 21.9125 97.5423 22.6794 96.2276 24.2133C94.9129 25.7472 94.2555 27.5001 94.2555 29.6914V43.3866H88.3392V29.6914C88.1201 25.8567 89.3252 22.6794 91.8451 20.05Z" fill="black"></path>
    <path d="M120.659 20.05C123.179 17.4205 126.247 16.1057 129.753 16.1057C133.259 16.1057 136.327 17.4205 138.847 20.05C141.366 22.6794 142.572 25.8567 142.572 29.6914V43.277H136.655V29.6914C136.655 27.6097 135.998 25.7472 134.683 24.2133C133.368 22.6794 131.725 21.9125 129.863 21.9125C128 21.9125 126.357 22.6794 125.042 24.2133C123.727 25.7472 123.07 27.5001 123.07 29.6914V43.3866H117.153V29.6914C116.934 25.8567 118.139 22.6794 120.659 20.05Z" fill="black"></path>
    <path d="M148.926 20.05C151.446 17.4205 154.514 16.1057 158.02 16.1057C161.526 16.1057 164.594 17.4205 167.114 20.05C169.633 22.6794 170.839 25.8567 170.839 29.6914C170.839 33.526 169.633 36.7033 167.114 39.3328C164.594 41.9623 161.526 43.277 158.02 43.277C154.514 43.277 151.446 41.9623 148.926 39.3328C146.406 36.7033 145.201 33.526 145.201 29.6914C145.201 25.8567 146.406 22.6794 148.926 20.05ZM153.09 35.0599C154.404 36.5937 156.048 37.3607 157.91 37.3607C159.773 37.3607 161.416 36.5937 162.731 35.0599C164.046 33.526 164.703 31.773 164.703 29.5818C164.703 27.5001 164.046 25.6376 162.731 24.1037C161.416 22.5699 159.773 21.8029 157.91 21.8029C156.048 21.8029 154.404 22.5699 153.09 24.1037C151.775 25.6376 151.118 27.3906 151.118 29.5818C151.118 31.773 151.775 33.526 153.09 35.0599Z" fill="black"></path>
    <path d="M197.901 38.1274V43.2768H174.126V7.66928H180.261V38.2369H197.901V38.1274Z" fill="black"></path>
    <path d="M202.173 20.05C204.693 17.4205 207.761 16.1057 211.267 16.1057C214.772 16.1057 217.84 17.4205 220.36 20.05C222.88 22.6794 224.085 25.8567 224.085 29.6914C224.085 33.526 222.88 36.7033 220.36 39.3328C217.84 41.9623 214.772 43.277 211.267 43.277C207.761 43.277 204.693 41.9623 202.173 39.3328C199.653 36.7033 198.448 33.526 198.448 29.6914C198.448 25.8567 199.653 22.6794 202.173 20.05ZM206.336 35.0599C207.651 36.5937 209.294 37.3607 211.157 37.3607C213.02 37.3607 214.663 36.5937 215.978 35.0599C217.292 33.526 217.95 31.773 217.95 29.5818C217.95 27.5001 217.292 25.6376 215.978 24.1037C214.663 22.5699 213.02 21.8029 211.157 21.8029C209.294 21.8029 207.651 22.5699 206.336 24.1037C205.022 25.6376 204.364 27.3906 204.364 29.5818C204.364 31.773 205.022 33.526 206.336 35.0599Z" fill="black"></path>
    <path d="M245.45 17.0912H251.366V42.1808C251.366 45.5772 250.271 48.2066 248.08 50.1787C245.888 52.1509 243.04 53.1369 239.424 53.1369C239.205 53.1369 238.876 53.1369 238.548 53.1369V47.9875C238.876 47.9875 239.205 47.9875 239.534 47.9875C241.396 47.9875 242.821 47.4397 243.807 46.3441C244.793 45.2485 245.341 43.8242 245.341 41.8521V41.633C243.259 42.9477 241.068 43.6051 238.767 43.6051C235.261 43.6051 232.193 42.2903 229.673 39.6608C227.153 37.0314 225.948 33.8541 225.948 30.0194C225.948 26.2943 227.153 23.0075 229.673 20.378C232.193 17.7485 235.261 16.4338 238.767 16.4338C241.177 16.4338 243.368 17.0912 245.341 18.4059V17.0912H245.45ZM238.767 37.9079C240.629 37.9079 242.273 37.1409 243.588 35.6071C244.902 34.0732 245.56 32.2107 245.56 30.0194C245.56 27.8282 244.902 25.9657 243.588 24.4318C242.273 22.8979 240.629 22.131 238.767 22.131C236.904 22.131 235.261 22.8979 233.946 24.4318C232.631 25.9657 231.974 27.8282 231.974 30.0194C231.974 30.7864 232.084 31.4437 232.193 32.1011C232.303 32.7585 232.522 33.4158 232.85 33.9636C233.179 34.5115 233.508 35.0593 233.946 35.6071C234.384 36.1549 234.823 36.4836 235.37 36.8122C235.918 37.1409 236.466 37.4696 237.014 37.5792C237.452 37.7983 238.109 37.9079 238.767 37.9079Z" fill="black"></path>
    <path d="M258.707 14.5717C258.05 14.5717 257.502 14.4622 256.954 14.1335C256.406 13.8048 255.968 13.3665 255.749 12.9283C255.42 12.3805 255.31 11.8327 255.31 11.1753C255.31 10.1893 255.639 9.42233 256.297 8.76496C256.954 8.10759 257.83 7.77891 258.707 7.77891C259.583 7.77891 260.46 8.10759 261.117 8.76496C261.775 9.42233 262.103 10.2988 262.103 11.1753C262.103 12.1614 261.775 12.9283 261.117 13.5857C260.46 14.1335 259.583 14.5717 258.707 14.5717ZM261.556 43.2768H255.639V15.996H261.556V43.2768Z" fill="black"></path>
    <path d="M277.551 37.6887C278.538 37.6887 279.414 37.4696 280.291 37.0314C281.167 36.5931 281.824 36.0453 282.482 35.3879C283.139 34.621 283.577 33.8541 283.906 32.9776H290.042C289.384 36.0453 287.85 38.5652 285.549 40.6469C283.249 42.619 280.51 43.6051 277.551 43.6051C274.046 43.6051 270.978 42.2903 268.458 39.6608C265.938 37.0314 264.733 33.8541 264.733 30.0194C264.733 26.2943 265.938 23.0075 268.458 20.378C270.978 17.7485 274.046 16.4338 277.551 16.4338C280.619 16.4338 283.249 17.4199 285.549 19.392C287.85 21.3641 289.384 23.9936 290.042 27.0613H283.906C283.577 26.1848 283.03 25.3083 282.482 24.6509C281.824 23.884 281.167 23.3362 280.291 23.0075C279.414 22.5693 278.538 22.3501 277.551 22.3501C276.346 22.3501 275.141 22.6788 274.046 23.4457C272.95 24.1031 272.183 25.0892 271.526 26.2943C270.868 27.4995 270.649 28.7047 270.649 30.129C270.649 31.5533 270.978 32.7585 271.526 33.9636C272.183 35.1688 272.95 36.0453 274.046 36.8122C275.141 37.3601 276.346 37.6887 277.551 37.6887Z" fill="black"></path>
    <path d="M85.3817 52.9178C86.5868 52.9178 87.5729 53.137 88.2303 53.6848C88.8876 54.2326 89.2163 54.8899 89.2163 55.9856C89.2163 56.6429 89.1068 57.1907 88.7781 57.629C88.4494 58.0672 88.1207 58.5055 87.5729 58.7246C87.0251 58.9437 86.4773 59.1628 85.7103 59.1628L85.4912 58.2864C86.2582 58.2864 87.0251 58.5055 87.6825 58.7246C88.3398 58.9437 88.8876 59.382 89.2163 59.8202C89.545 60.2585 89.7641 60.9158 89.7641 61.4636C89.7641 62.0114 89.6546 62.5593 89.4354 62.9975C89.2163 63.4357 88.8876 63.7644 88.5589 64.0931C88.2303 64.3122 87.792 64.5314 87.2442 64.6409C86.6964 64.7505 86.2582 64.86 85.7103 64.86H82.0948V52.8083H85.3817V52.9178ZM85.7103 58.1768C86.3677 58.1768 86.806 57.9577 87.1346 57.629C87.4633 57.3003 87.5729 56.8621 87.5729 56.3142C87.5729 55.6569 87.3538 55.2186 87.0251 54.8899C86.5868 54.5613 86.1486 54.4517 85.4912 54.4517H83.9574V58.1768H85.7103ZM85.7103 63.4357C86.1486 63.4357 86.5868 63.3262 86.9155 63.2166C87.2442 63.1071 87.5729 62.8879 87.792 62.5593C88.0111 62.2306 88.1207 61.9019 88.1207 61.5732C88.1207 61.135 88.0111 60.6967 87.792 60.4776C87.5729 60.2585 87.2442 60.0393 86.806 59.9298C86.3677 59.8202 86.039 59.7107 85.6008 59.7107H83.8478V63.4357H85.7103Z" fill="#25BDC1"></path>
    <path d="M96.0089 65.1895C95.3515 65.1895 94.8037 64.9704 94.475 64.6417C94.0368 64.313 93.8177 63.7652 93.8177 63.1078V58.068H95.3515V62.56C95.3515 62.8887 95.4611 63.2174 95.6802 63.4365C95.8993 63.6556 96.228 63.7652 96.5567 63.7652C96.8854 63.7652 97.3236 63.6556 97.5428 63.4365C97.7619 63.2174 98.0906 62.8887 98.3097 62.56C98.5288 62.1218 98.6384 61.6835 98.6384 61.2453V58.068H100.172V64.9704H98.7479L98.6384 63.3269L98.7479 63.6556C98.6384 63.9843 98.4193 64.2034 98.0906 64.5321C97.7619 64.8608 97.5428 64.9704 97.1045 65.0799C96.7758 65.0799 96.4471 65.1895 96.0089 65.1895Z" fill="#25BDC1"></path>
    <path d="M106.418 65.0799C105.979 65.0799 105.432 64.9703 104.993 64.8607C104.555 64.6416 104.117 64.4225 103.898 64.0938L104.555 63.2173C104.884 63.546 105.103 63.6556 105.432 63.8747C105.76 63.9842 105.979 64.0938 106.308 64.0938C106.527 64.0938 106.746 64.0938 106.965 63.9842C107.185 63.8747 107.294 63.8747 107.404 63.6556C107.513 63.546 107.623 63.3269 107.623 63.1077C107.623 62.8886 107.513 62.6695 107.404 62.5599C107.294 62.4504 107.075 62.3408 106.746 62.2313C106.527 62.1217 106.199 62.0121 105.979 62.0121C105.432 61.793 104.993 61.5739 104.665 61.2452C104.336 60.9165 104.226 60.4783 104.226 60.04C104.226 59.7113 104.336 59.3827 104.555 59.054C104.774 58.7253 104.993 58.5062 105.432 58.287C105.76 58.0679 106.199 57.9584 106.746 57.9584C107.185 57.9584 107.623 58.0679 108.061 58.1775C108.39 58.287 108.828 58.5062 109.157 58.7253L108.499 59.7113C108.28 59.4922 108.061 59.3827 107.842 59.2731C107.623 59.1635 107.294 59.1635 107.075 59.1635C106.856 59.1635 106.637 59.1635 106.527 59.2731C106.308 59.3827 106.199 59.3827 106.089 59.4922C105.979 59.6018 105.979 59.7113 105.979 59.9305C105.979 60.1496 106.089 60.3687 106.199 60.4783C106.308 60.5878 106.527 60.6974 106.856 60.807C107.075 60.9165 107.404 61.0261 107.623 61.0261C107.952 61.1356 108.28 61.2452 108.499 61.4643C108.718 61.6834 108.938 61.793 109.157 62.1217C109.266 62.3408 109.376 62.6695 109.376 62.9982C109.376 63.4364 109.266 63.7651 109.047 64.0938C108.828 64.4225 108.609 64.7512 108.171 64.9703C107.623 64.9703 107.075 65.0799 106.418 65.0799Z" fill="#25BDC1"></path>
    <path d="M112.882 55.5476C112.882 55.3285 112.991 55.1094 113.21 54.8903C113.429 54.6711 113.648 54.6711 113.868 54.6711C114.087 54.6711 114.306 54.7807 114.525 54.8903C114.744 55.1094 114.854 55.2189 114.854 55.5476C114.854 55.7668 114.744 55.9859 114.525 56.205C114.306 56.3146 114.087 56.4241 113.868 56.4241C113.648 56.4241 113.429 56.3146 113.21 56.205C112.991 55.9859 112.882 55.7668 112.882 55.5476ZM112.991 58.0675H114.525V64.9699H112.991V58.0675Z" fill="#25BDC1"></path>
    <path d="M120.222 58.0678L120.332 59.7113V59.4921C120.551 58.9443 120.88 58.6157 121.428 58.287C121.975 57.9583 122.523 57.8487 123.181 57.8487C123.838 57.8487 124.386 58.0678 124.714 58.3965C125.153 58.7252 125.372 59.273 125.372 59.9304V64.9702H123.838V60.3686C123.838 60.04 123.728 59.7113 123.509 59.4921C123.29 59.273 122.962 59.1635 122.523 59.1635C122.085 59.1635 121.756 59.273 121.428 59.4921C121.099 59.7113 120.88 60.04 120.661 60.3686C120.442 60.8069 120.332 61.2451 120.332 61.6834V64.8607H118.798V58.0678H120.222Z" fill="#25BDC1"></path>
    <path d="M132.931 65.0797C132.164 65.0797 131.507 64.9702 130.85 64.6415C130.302 64.3128 129.864 63.8745 129.535 63.3267C129.206 62.7789 129.097 62.1216 129.097 61.4642C129.097 60.8068 129.316 60.1495 129.644 59.6016C129.973 59.0538 130.411 58.6156 131.069 58.2869C131.617 57.9582 132.274 57.7391 133.041 57.7391C133.917 57.7391 134.684 57.9582 135.342 58.506C135.889 59.0538 136.328 59.8208 136.547 60.6973L130.85 62.6694L130.521 61.7929L135.123 60.0399L134.794 60.259C134.684 59.9303 134.465 59.6016 134.137 59.273C133.808 59.0538 133.37 58.8347 132.931 58.8347C132.493 58.8347 132.164 58.9443 131.836 59.1634C131.507 59.3825 131.288 59.6016 131.069 60.0399C130.85 60.3686 130.74 60.8068 130.74 61.2451C130.74 61.6833 130.85 62.1216 131.069 62.4502C131.288 62.7789 131.507 63.1076 131.836 63.3267C132.164 63.5459 132.603 63.6554 133.041 63.6554C133.37 63.6554 133.589 63.6554 133.917 63.4363C134.246 63.3267 134.465 63.2172 134.684 62.998L135.342 64.0937C135.013 64.3128 134.575 64.5319 134.137 64.6415C133.698 64.9702 133.26 65.0797 132.931 65.0797Z" fill="#25BDC1"></path>
    <path d="M141.915 65.0799C141.477 65.0799 140.929 64.9703 140.491 64.8607C140.053 64.6416 139.614 64.4225 139.395 64.0938L140.053 63.2173C140.381 63.546 140.6 63.6556 140.929 63.8747C141.258 63.9842 141.477 64.0938 141.806 64.0938C142.025 64.0938 142.244 64.0938 142.463 63.9842C142.682 63.8747 142.792 63.8747 142.901 63.6556C143.011 63.546 143.12 63.3269 143.12 63.1077C143.12 62.8886 143.011 62.6695 142.901 62.5599C142.792 62.4504 142.572 62.3408 142.244 62.2313C142.025 62.1217 141.696 62.0121 141.477 62.0121C140.929 61.793 140.491 61.5739 140.162 61.2452C139.833 60.9165 139.724 60.4783 139.724 60.04C139.724 59.7113 139.833 59.3827 140.053 59.054C140.272 58.7253 140.491 58.5062 140.929 58.287C141.258 58.0679 141.696 57.9584 142.244 57.9584C142.682 57.9584 143.12 58.0679 143.559 58.1775C143.887 58.287 144.325 58.5062 144.654 58.7253L143.997 59.7113C143.778 59.4922 143.559 59.3827 143.339 59.2731C143.12 59.1635 142.792 59.1635 142.572 59.1635C142.353 59.1635 142.134 59.1635 142.025 59.2731C141.806 59.3827 141.696 59.3827 141.586 59.4922C141.477 59.6018 141.477 59.7113 141.477 59.9305C141.477 60.1496 141.586 60.3687 141.696 60.4783C141.806 60.5878 142.025 60.6974 142.353 60.807C142.572 60.9165 142.901 61.0261 143.12 61.0261C143.449 61.1356 143.778 61.2452 143.997 61.4643C144.216 61.6834 144.435 61.793 144.654 62.1217C144.764 62.3408 144.873 62.6695 144.873 62.9982C144.873 63.4364 144.764 63.7651 144.545 64.0938C144.325 64.4225 144.106 64.7512 143.668 64.9703C143.011 64.9703 142.572 65.0799 141.915 65.0799Z" fill="#25BDC1"></path>
    <path d="M150.352 65.0799C149.913 65.0799 149.366 64.9703 148.927 64.8607C148.489 64.6416 148.051 64.4225 147.832 64.0938L148.489 63.2173C148.818 63.546 149.037 63.6556 149.366 63.8747C149.694 63.9842 149.913 64.0938 150.242 64.0938C150.461 64.0938 150.68 64.0938 150.899 63.9842C151.118 63.8747 151.228 63.8747 151.338 63.6556C151.447 63.546 151.557 63.3269 151.557 63.1077C151.557 62.8886 151.447 62.6695 151.338 62.5599C151.228 62.4504 151.009 62.3408 150.68 62.2313C150.461 62.1217 150.132 62.0121 149.913 62.0121C149.366 61.793 148.927 61.5739 148.599 61.2452C148.27 60.9165 148.16 60.4783 148.16 60.04C148.16 59.7113 148.27 59.3827 148.489 59.054C148.708 58.7253 148.927 58.5062 149.366 58.287C149.694 58.0679 150.132 57.9584 150.68 57.9584C151.118 57.9584 151.557 58.0679 151.995 58.1775C152.324 58.287 152.762 58.5062 153.091 58.7253L152.433 59.7113C152.214 59.4922 151.995 59.3827 151.776 59.2731C151.557 59.1635 151.228 59.1635 151.009 59.1635C150.79 59.1635 150.571 59.1635 150.461 59.2731C150.242 59.3827 150.132 59.3827 150.023 59.4922C149.913 59.6018 149.913 59.7113 149.913 59.9305C149.913 60.1496 150.023 60.3687 150.132 60.4783C150.242 60.5878 150.461 60.6974 150.79 60.807C151.009 60.9165 151.338 61.0261 151.557 61.0261C151.885 61.1356 152.214 61.2452 152.433 61.4643C152.652 61.6834 152.871 61.793 153.091 62.1217C153.2 62.3408 153.31 62.6695 153.31 62.9982C153.31 63.4364 153.2 63.7651 152.981 64.0938C152.762 64.4225 152.543 64.7512 152.105 64.9703C151.447 64.9703 151.009 65.0799 150.352 65.0799Z" fill="#25BDC1"></path>
    <path d="M163.28 52.9179H171.278V54.4518H168.101V64.9697H166.458V54.4518H163.28V52.9179Z" fill="#25BDC1"></path>
    <path d="M176.537 65.0797C175.77 65.0797 175.113 64.9702 174.456 64.6415C173.908 64.3128 173.469 63.8745 173.141 63.3267C172.812 62.7789 172.703 62.1216 172.703 61.4642C172.703 60.8068 172.922 60.1495 173.25 59.6016C173.579 59.0538 174.017 58.6156 174.675 58.2869C175.222 57.9582 175.88 57.7391 176.647 57.7391C177.523 57.7391 178.29 57.9582 178.948 58.506C179.495 59.0538 179.934 59.8208 180.153 60.6973L174.456 62.6694L174.127 61.7929L178.728 60.0399L178.4 60.259C178.29 59.9303 178.071 59.6016 177.742 59.273C177.414 59.0538 176.975 58.8347 176.537 58.8347C176.099 58.8347 175.77 58.9443 175.442 59.1634C175.113 59.3825 174.894 59.6016 174.675 60.0399C174.456 60.4781 174.346 60.8068 174.346 61.2451C174.346 61.6833 174.456 62.1216 174.675 62.4502C174.894 62.7789 175.113 63.1076 175.442 63.3267C175.77 63.5459 176.208 63.6554 176.647 63.6554C176.975 63.6554 177.195 63.6554 177.523 63.4363C177.852 63.3267 178.071 63.2172 178.29 62.998L178.948 64.0937C178.619 64.3128 178.181 64.5319 177.742 64.6415C177.304 64.9702 176.975 65.0797 176.537 65.0797Z" fill="#25BDC1"></path>
    <path d="M189.246 64.2033C188.917 64.4224 188.589 64.6415 188.15 64.7511C187.712 64.8607 187.274 64.9702 186.836 64.9702C186.069 64.9702 185.411 64.8607 184.864 64.532C184.316 64.2033 183.878 63.765 183.549 63.2172C183.22 62.6694 183.111 62.0121 183.111 61.3547C183.111 60.5878 183.33 60.04 183.658 59.4921C183.987 58.9443 184.425 58.5061 184.973 58.287C185.521 57.9583 186.069 57.8487 186.726 57.8487C187.274 57.8487 187.712 57.9583 188.15 58.0678C188.589 58.1774 188.917 58.3965 189.246 58.7252L188.479 59.7113C188.26 59.6017 188.041 59.3826 187.712 59.273C187.384 59.1635 187.055 59.0539 186.726 59.0539C186.288 59.0539 185.959 59.1635 185.631 59.3826C185.302 59.6017 184.973 59.8208 184.864 60.2591C184.754 60.6973 184.535 61.026 184.535 61.4643C184.535 61.9025 184.645 62.3407 184.864 62.6694C185.083 62.9981 185.302 63.3268 185.74 63.5459C186.069 63.765 186.507 63.8746 186.945 63.8746C187.274 63.8746 187.493 63.8746 187.712 63.765C187.931 63.6555 188.15 63.5459 188.37 63.4364L189.246 64.2033Z" fill="#25BDC1"></path>
    <path d="M192.862 64.8604V52.0417H194.396V59.6014V59.2728C194.615 58.8345 194.944 58.3963 195.491 58.1771C195.93 57.8485 196.587 57.7389 197.244 57.7389C197.902 57.7389 198.449 57.958 198.778 58.2867C199.216 58.6154 199.436 59.1632 199.436 59.8206V64.8604H197.902V60.2588C197.902 59.9301 197.792 59.6014 197.573 59.3823C197.354 59.1632 197.025 59.0536 196.587 59.0536C196.149 59.0536 195.82 59.1632 195.491 59.3823C195.163 59.6014 194.944 59.9301 194.724 60.2588C194.505 60.6971 194.505 61.1353 194.505 61.5736V64.7508H192.862V64.8604Z" fill="#25BDC1"></path>
    <path d="M205.132 58.0678L205.242 59.7113V59.4921C205.461 58.9443 205.789 58.6157 206.337 58.287C206.885 57.9583 207.433 57.8487 208.09 57.8487C208.748 57.8487 209.295 58.0678 209.624 58.3965C210.062 58.7252 210.281 59.273 210.281 59.9304V64.9702H208.748V60.3686C208.748 60.04 208.638 59.7113 208.419 59.4921C208.2 59.273 207.871 59.1635 207.433 59.1635C206.995 59.1635 206.666 59.273 206.337 59.4921C206.009 59.7113 205.789 60.04 205.57 60.3686C205.351 60.8069 205.351 61.2451 205.351 61.6834V64.8607H203.817V58.0678H205.132Z" fill="#25BDC1"></path>
    <path d="M214.007 61.3546C214.007 60.6973 214.117 60.0399 214.445 59.4921C214.774 58.9443 215.212 58.506 215.76 58.1773C216.308 57.8487 216.965 57.7391 217.732 57.7391C218.499 57.7391 219.156 57.8487 219.704 58.1773C220.252 58.506 220.69 58.9443 221.019 59.4921C221.348 60.0399 221.457 60.6973 221.457 61.3546C221.457 62.012 221.348 62.6694 221.019 63.2172C220.69 63.765 220.252 64.2032 219.704 64.5319C219.156 64.8606 218.499 64.9702 217.732 64.9702C216.965 64.9702 216.308 64.8606 215.76 64.5319C215.212 64.2032 214.774 63.765 214.445 63.2172C214.117 62.7789 214.007 62.1216 214.007 61.3546ZM215.541 61.4642C215.541 61.9024 215.65 62.3407 215.87 62.6694C216.089 62.998 216.308 63.3267 216.636 63.5459C216.965 63.765 217.294 63.8745 217.732 63.8745C218.17 63.8745 218.499 63.765 218.828 63.5459C219.156 63.3267 219.376 62.998 219.595 62.6694C219.814 62.3407 219.923 61.9024 219.923 61.4642C219.923 61.0259 219.814 60.5877 219.595 60.259C219.376 59.9303 219.156 59.6016 218.828 59.3825C218.499 59.1634 218.061 59.0538 217.732 59.0538C217.294 59.0538 216.965 59.1634 216.636 59.3825C216.308 59.6016 215.979 59.9303 215.87 60.259C215.65 60.5877 215.541 61.0259 215.541 61.4642Z" fill="#25BDC1"></path>
    <path d="M225.291 52.0417H226.825V64.8604H225.291V52.0417Z" fill="#25BDC1"></path>
    <path d="M230.551 61.3546C230.551 60.6973 230.661 60.0399 230.989 59.4921C231.318 58.9443 231.756 58.506 232.304 58.1773C232.852 57.8487 233.509 57.7391 234.276 57.7391C235.043 57.7391 235.7 57.8487 236.248 58.1773C236.796 58.506 237.234 58.9443 237.563 59.4921C237.892 60.0399 238.001 60.6973 238.001 61.3546C238.001 62.012 237.892 62.6694 237.563 63.2172C237.234 63.765 236.796 64.2032 236.248 64.5319C235.7 64.8606 235.043 64.9702 234.276 64.9702C233.509 64.9702 232.852 64.8606 232.304 64.5319C231.756 64.2032 231.318 63.765 230.989 63.2172C230.77 62.7789 230.551 62.1216 230.551 61.3546ZM232.085 61.4642C232.085 61.9024 232.194 62.3407 232.414 62.6694C232.633 62.998 232.852 63.3267 233.18 63.5459C233.509 63.765 233.838 63.8745 234.276 63.8745C234.714 63.8745 235.043 63.765 235.372 63.5459C235.7 63.3267 235.92 62.998 236.139 62.6694C236.358 62.3407 236.467 61.9024 236.467 61.4642C236.467 61.0259 236.358 60.5877 236.139 60.259C235.92 59.9303 235.7 59.6016 235.372 59.3825C235.043 59.1634 234.605 59.0538 234.276 59.0538C233.838 59.0538 233.509 59.1634 233.18 59.3825C232.852 59.6016 232.523 59.9303 232.414 60.259C232.194 60.5877 232.085 61.0259 232.085 61.4642Z" fill="#25BDC1"></path>
    <path d="M245.232 68.3666C244.684 68.3666 244.246 68.2571 243.918 68.1475C243.589 68.0379 243.151 67.8188 242.822 67.5997C242.493 67.3806 242.165 67.1615 241.945 66.9423L242.822 65.8467C243.151 66.1754 243.589 66.3945 243.918 66.6136C244.246 66.8328 244.684 66.9423 245.232 66.9423C245.78 66.9423 246.218 66.8328 246.547 66.7232C246.876 66.5041 247.204 66.285 247.314 66.0658C247.533 65.7372 247.643 65.4085 247.643 64.9702V63.1077L247.752 63.4364C247.533 63.8746 247.204 64.3129 246.657 64.6415C246.109 64.9702 245.451 65.0798 244.794 65.0798C244.137 65.0798 243.589 64.9702 243.041 64.6415C242.493 64.3129 242.055 63.8746 241.726 63.3268C241.398 62.779 241.288 62.1216 241.288 61.4643C241.288 60.6973 241.507 60.1495 241.836 59.6017C242.165 59.0539 242.603 58.6157 243.151 58.287C243.698 57.9583 244.246 57.8487 244.904 57.8487C245.561 57.8487 246.109 57.9583 246.547 58.1774C247.095 58.3965 247.423 58.7252 247.643 59.1635L247.533 59.4921L247.643 58.1774H249.067V65.0798C249.067 65.7372 248.957 66.285 248.629 66.7232C248.3 67.271 247.862 67.5997 247.314 67.9284C246.766 68.2571 245.999 68.3666 245.232 68.3666ZM242.822 61.3547C242.822 61.7929 242.931 62.2312 243.151 62.5599C243.37 62.8886 243.698 63.2172 244.027 63.4364C244.356 63.6555 244.794 63.765 245.232 63.765C245.671 63.765 245.999 63.6555 246.328 63.5459C246.657 63.4364 246.876 63.2172 247.204 62.8886C247.423 62.6694 247.533 62.3407 247.643 62.0121V60.5878C247.533 60.2591 247.423 59.9304 247.095 59.7113C246.876 59.4921 246.547 59.273 246.218 59.1635C245.89 59.0539 245.561 58.9443 245.123 58.9443C244.684 58.9443 244.246 59.0539 243.918 59.273C243.589 59.4921 243.26 59.7113 243.041 60.1495C242.931 60.4782 242.822 60.9164 242.822 61.3547Z" fill="#25BDC1"></path>
    <path d="M253.34 55.5476C253.34 55.3285 253.449 55.1094 253.668 54.8903C253.888 54.6711 254.107 54.6711 254.326 54.6711C254.545 54.6711 254.764 54.7807 254.983 54.8903C255.202 54.9998 255.312 55.2189 255.312 55.5476C255.312 55.7668 255.202 55.9859 254.983 56.205C254.764 56.3146 254.545 56.4241 254.326 56.4241C254.107 56.4241 253.888 56.3146 253.668 56.205C253.449 55.9859 253.34 55.7668 253.34 55.5476ZM253.449 58.0675H254.983V64.9699H253.449V58.0675Z" fill="#25BDC1"></path>
    <path d="M262.543 65.0797C261.776 65.0797 261.119 64.9702 260.461 64.6415C259.913 64.3128 259.475 63.8745 259.147 63.3267C258.818 62.7789 258.708 62.1216 258.708 61.4642C258.708 60.8068 258.927 60.1495 259.256 59.6016C259.585 59.0538 260.023 58.6156 260.68 58.2869C261.228 57.9582 261.886 57.7391 262.653 57.7391C263.529 57.7391 264.296 57.9582 264.953 58.506C265.501 59.0538 265.939 59.8208 266.158 60.6973L260.461 62.6694L260.133 61.7929L264.734 60.0399L264.406 60.259C264.296 59.9303 264.077 59.6016 263.748 59.273C263.419 59.0538 262.981 58.8347 262.543 58.8347C262.105 58.8347 261.776 58.9443 261.447 59.1634C261.119 59.3825 260.9 59.6016 260.68 60.0399C260.461 60.4781 260.352 60.9164 260.352 61.3546C260.352 61.7929 260.461 62.2311 260.68 62.5598C260.9 62.8885 261.119 63.2172 261.447 63.4363C261.776 63.6554 262.214 63.765 262.653 63.765C262.981 63.765 263.2 63.765 263.529 63.5459C263.858 63.4363 264.077 63.3267 264.296 63.1076L264.953 64.2032C264.625 64.4223 264.186 64.6415 263.748 64.751C263.419 64.9702 262.981 65.0797 262.543 65.0797Z" fill="#25BDC1"></path>
    <path d="M271.636 65.0799C271.198 65.0799 270.65 64.9703 270.212 64.8607C269.774 64.6416 269.336 64.4225 269.116 64.0938L269.774 63.2173C270.102 63.546 270.322 63.6556 270.65 63.8747C270.979 63.9842 271.198 64.0938 271.527 64.0938C271.746 64.0938 271.965 64.0938 272.184 63.9842C272.403 63.8747 272.513 63.8747 272.622 63.6556C272.732 63.4364 272.842 63.3269 272.842 63.1077C272.842 62.8886 272.732 62.6695 272.622 62.5599C272.513 62.4504 272.294 62.3408 271.965 62.2313C271.746 62.1217 271.417 62.0121 271.198 62.0121C270.65 61.793 270.212 61.5739 269.883 61.2452C269.555 60.9165 269.445 60.4783 269.445 60.04C269.445 59.7113 269.555 59.3827 269.664 59.054C269.774 58.7253 270.102 58.5062 270.541 58.287C270.869 58.0679 271.308 57.9584 271.855 57.9584C272.294 57.9584 272.732 58.0679 273.17 58.1775C273.499 58.287 273.937 58.5062 274.266 58.7253L273.608 59.7113C273.389 59.4922 273.17 59.3827 272.951 59.2731C272.732 59.1635 272.403 59.1635 272.184 59.1635C271.965 59.1635 271.746 59.1635 271.636 59.2731C271.417 59.3827 271.308 59.3827 271.198 59.4922C271.089 59.6018 271.089 59.7113 271.089 59.9305C271.089 60.1496 271.198 60.3687 271.308 60.4783C271.417 60.5878 271.636 60.6974 271.965 60.807C272.184 60.9165 272.513 61.0261 272.732 61.0261C273.061 61.1356 273.389 61.2452 273.608 61.4643C273.828 61.6834 274.047 61.793 274.266 62.1217C274.375 62.3408 274.485 62.6695 274.485 62.9982C274.485 63.4364 274.375 63.7651 274.156 64.0938C273.937 64.4225 273.718 64.7512 273.28 64.9703C272.732 64.9703 272.184 65.0799 271.636 65.0799Z" fill="#25BDC1"></path>
    <path d="M5.25904 34.5122C12.3805 45.5779 21.9124 50.0699 34.4024 48.6456C46.5637 47.1117 54.7808 40.0998 61.1354 29.6915C61.6832 43.1675 53.247 53.3567 40.757 54.781C39.1135 55.0002 37.4701 54.3428 35.8267 54.3428C34.7311 54.3428 33.5259 54.5619 32.759 55.2193C32.3207 55.548 32.5398 57.301 32.9781 57.7392C33.6355 58.287 34.9502 58.5061 35.8267 58.287C43.3864 56.4245 50.9462 54.4524 59.3824 52.2611C53.247 58.1775 47.1115 62.1217 39.4422 63.6555C34.8406 64.532 30.2391 65.0798 26.1853 62.0121C24.8705 61.026 23.9941 59.2731 22.7889 58.0679C22.0219 57.301 21.0359 56.534 20.0498 56.4245C19.502 56.3149 18.1873 57.7392 18.2969 58.1774C18.516 59.1635 19.2829 60.2591 20.1594 60.8069C23.2271 62.9982 26.4044 65.0798 30.3486 67.8189C15.8865 67.8189 2.62956 49.9603 5.25904 34.5122Z" fill="#25BDC1"></path>
    <path d="M32.5398 0.986053C41.1951 3.50597 48.974 7.99799 53.0278 16.3247C55.5477 21.5836 55.7668 28.0477 56.4242 34.2927C48.974 23.8844 39.223 19.3924 26.8426 20.5976C14.6812 21.6932 6.24501 28.5955 -2.46722e-07 39.4421C-0.547808 25.3087 8.87448 14.9004 22.241 14.3526C23.227 14.3526 24.3227 14.9004 25.3087 14.9004C26.4043 14.9004 27.6095 14.7908 28.3764 14.1334C28.8147 13.8047 28.7051 11.9422 28.2669 11.6135C27.3904 11.0657 26.0756 10.8466 25.0896 11.0657C17.6394 12.8187 10.1892 14.7908 1.75298 16.982C8.32667 10.737 14.7908 6.68325 22.8984 5.36851C27.4999 4.60158 31.8824 4.60158 35.7171 7.77887C36.7031 8.65536 37.3605 10.0797 38.3465 11.0657C39.1135 11.8326 39.99 12.7091 40.976 12.9283C41.5238 13.0378 42.8386 11.7231 42.8386 11.2848C42.729 10.2988 42.0716 9.0936 41.1951 8.43623C38.1274 6.245 34.9501 4.2729 31.7728 2.19123C31.992 1.75298 32.3206 1.31474 32.5398 0.986053Z" fill="#25BDC1"></path>
    <path d="M31.7732 22.8987C38.4564 22.8987 43.4963 28.0481 43.4963 34.6218C43.4963 41.4146 38.1277 46.6736 31.4445 46.564C24.8708 46.4544 19.831 41.1955 19.9405 34.5122C19.9405 27.829 25.0899 22.7891 31.7732 22.8987ZM31.6636 29.582C28.9246 29.582 26.5142 31.9923 26.6238 34.7314C26.6238 37.2513 28.9246 39.5521 31.5541 39.6616C34.2931 39.7712 36.813 37.4704 36.813 34.7314C36.813 31.9923 34.4027 29.582 31.6636 29.582Z" fill="#25BDC1"></path>
  </g>
  <defs>
    <clipPath id="clip0_1_153">
      <rect width="291.434" height="68.8046" fill="white"></rect>
    </clipPath>
  </defs>
</svg>
