<?xml version="1.0" encoding="UTF-8"?>
<svg xmlns="http://www.w3.org/2000/svg" xmlns:xlink="http://www.w3.org/1999/xlink" version="1.1" id="Layer_1" x="0px" y="0px" viewBox="0 0 566.9 566.9" style="enable-background:new 0 0 566.9 566.9;" xml:space="preserve">
<style type="text/css">
	.st0{stroke:#000000;stroke-miterlimit:10;}
	.st1{stroke:#000000;stroke-width:6;stroke-miterlimit:10;}
	.st2{stroke:#000000;stroke-width:5;stroke-miterlimit:10;}
	.st3{stroke:#000000;stroke-width:2;stroke-miterlimit:10;}
	.st4{stroke:#000000;stroke-width:3;stroke-miterlimit:10;}
	.st5{stroke:#000000;stroke-width:4;stroke-miterlimit:10;}
</style>
<g>
	<path class="st0" d="M192.5,152.1c0-7.8-0.1-13.9,0-19.9c0.4-26.2,14.6-44.3,36.7-44.7c36.2-0.6,72.4-0.6,108.5,0   c22.1,0.4,36.3,18.5,36.7,44.6c0.1,6,0,12.1,0,19.3c3.5,0.2,6.5,0.6,9.4,0.6c25.6,0,51.3,0,76.9,0c27,0.1,41.5,17.4,41.5,49.5   c0,90.1,0,140.2,0,230.2c0,30-14.8,48-40.2,48c-119.1,0.1-238.1,0.1-357.2,0c-25.4,0-40.3-18-40.3-47.9c0-90.8,0-141.5,0-232.3   c0-29.3,15-47.3,39.7-47.5c25.9-0.2,51.8,0,77.8,0C185.2,152.1,188.3,152.1,192.5,152.1z M83.1,322.6c0,49.2,0,59.4,0,109.7   c0,18.2,6.4,25.7,21.8,25.7c119,0,238.1,0,357.1,0c15.3,0,21.7-7.6,21.7-25.9c0.1-47.6,0-55.1,0-102.7c0-2.8-0.3-5.7-0.4-6.9   c-10.2,1-19.7,2.7-29.2,2.8c-41.3,0.3-82.6,0.1-123.9,0.1c-3.3,0-6.6,0-10.6,0c0,10.6,0.1,19.6,0,28.7   c-0.1,10.8-2.8,14.1-11.5,14.2c-16.5,0.1-33-0.1-49.6,0.1c-7.8,0.1-11.6-4.1-11.4-13.4c0.1-9.6,0-19.3,0-29.6c-4.5,0-7.6,0-10.7,0   c-41,0-82,0.2-123-0.1C103.6,325.3,93.8,323.6,83.1,322.6z M320.1,303.6c49.4,0,97.8,0.2,146.3-0.1c10.6-0.1,17.3-9.3,17.4-22.8   c0.2-27.3,0.1-54.7,0-82c-0.1-16.9-6.7-24.7-21-24.7c-119.7,0-239.4,0-359,0c-13.7,0-20.6,7.9-20.6,24.1c-0.1,26.7-0.1,53.3,0,80   c0,18,6.5,25.5,22,25.5c44.5,0,88.9,0,133.4,0c2.7,0,5.5-0.3,8.1-0.5c1.6-18.3,2.8-21.1,11.4-21.3c17.1-0.4,34.2-0.3,51.3,0   c6.7,0.1,10.6,4.2,10.5,12.7C319.7,297.1,320,299.8,320.1,303.6z M356.3,151.8c0-8.4,0.6-15.8-0.1-23c-1.1-11.7-8-19.4-17.7-19.4   c-36.7-0.3-73.5-0.2-110.2,0c-8.1,0.1-14.7,5.1-16.5,14.6c-1.7,8.9-1.3,18.3-1.9,27.9C259.6,151.8,307.4,151.8,356.3,151.8z    M265.4,346c12.3,0,23.9,0,35.9,0c0-14.1,0-27.7,0-41.7c-12.1,0-23.8,0-35.9,0C265.4,318.2,265.4,331.5,265.4,346z"></path>
</g>
</svg>
