<?xml version="1.0" encoding="UTF-8"?>
<svg xmlns="http://www.w3.org/2000/svg" id="Layer_1" data-name="Layer 1" viewBox="0 0 566.93 566.93">
  <defs>
    <style>.cls-1{fill:#005a96;stroke:#005a96;stroke-miterlimit:10;stroke-width:5px;}</style>
  </defs>
  <title>Icons</title>
  <path class="cls-1" d="M430.86,297.48H136.07c0,10.13,0,20.16,0,30.2,0,3.19.85,6.72-.26,9.48-1.21,3-4.22,5.34-6.45,8-2.6-2.59-7.16-5-7.45-7.81-1-9.47-.45-19.1-.49-28.66,0-3.44,0-6.87,0-10.87-3.81-.25-6.59-.55-9.36-.59C99.24,297,98.23,296.1,98.2,283.71q-.06-27.75,0-55.5c0-10.79,2.08-12.89,12.79-12.93,22-.09,44,0,66,0h12c-19.1-32.29-24.14-64.89-12.85-99.3,7.7-23.49,21.87-42.27,41.91-56.59C257.8,30.93,312.12,31.58,351,61c23.9,18.05,38.69,41.81,43.88,71.43,5.1,29.1-1,56.11-17.13,82.84h38.75c13.08,0,26.15-.07,39.23,0,10.87.08,12.92,2.08,13,12.77q.11,27.75,0,55.5c0,12.47-1.09,13.45-13.68,13.65-2.8,0-5.6.3-9.63.54,0,10.25,0,20,0,29.81,0,3.19.9,6.83-.33,9.45-1.48,3.16-4.8,5.46-7.32,8.12-2.3-2.86-6.41-5.62-6.59-8.6C430.43,323.85,430.86,311.12,430.86,297.48ZM113.33,282.63h340.1v-52H113.33Zm170.59-67.47c35.63-.27,63.06-28.34,62.84-64.3C346.56,116.16,318,88.1,283,88.25s-63.08,28.86-62.84,64.48A62.81,62.81,0,0,0,283.92,215.16Zm-46.77,0c-40.89-35.41-38.55-84.87-12-115.18,26.75-30.5,73.49-34.77,106.16-9.55a74.65,74.65,0,0,1,28.6,47c5.63,30.83-5.65,55.79-30.05,77.76,6.9,0,11.39-.62,15.65.12,11.69,2,17.82-3.89,23.32-13.34C407,136.66,361.36,54.72,285.25,53.2c-39.81-.79-70.23,17.51-88.9,52.35s-15.73,69.89,6.23,102.93c1.9,2.86,5.44,6.05,8.53,6.42C218.84,215.82,226.76,215.2,237.15,215.2Z"></path>
  <path class="cls-1" d="M136.09,513.55H430.86V503.43q0-62.18,0-124.35c0-2.87-.67-6.22.56-8.45s4.4-4.7,6.93-4.95c1.94-.2,5.15,2.43,6.1,4.57,1.22,2.72,1,6.21,1,9.37q.1,67,.09,133.92c0,13.88-1,14.91-14.38,14.91H135.62c-12.88,0-14.07-1.16-14.09-14.22q-.07-67.44-.06-134.87c0-2.23-.69-5,.33-6.58,1.78-2.85,4.64-5,7-7.48,2.39,2.45,5.37,4.57,7,7.46,1.09,2,.26,5,.26,7.54q0,61.21,0,122.44Z"></path>
  <path class="cls-1" d="M283.82,360.12c10.93-12.4,23.39-20.36,40.08-19.58,18.64.87,32.24,9.63,39.9,26.37s6.76,33.85-5.75,47.4c-22,23.86-45.54,46.35-68.47,69.37-4.17,4.19-8.29,3.83-12.43-.32-22.46-22.6-45.44-44.7-67.32-67.84-16-16.94-14.37-44.84,2.14-61.55s43.59-18.29,61.6-3.22C276.73,353.4,279.67,356.32,283.82,360.12ZM284.2,469q28.51-28.53,57.17-57.24a63.06,63.06,0,0,0,5.79-6.34c9.93-13.13,8.8-30.41-2.63-41.7-11.7-11.56-29.48-12.33-42.47-1.55-4.39,3.65-8.29,7.92-12.32,12s-8.21,4.26-12.38.05c-3.81-3.85-7.5-7.85-11.58-11.4-13.14-11.45-31.11-11-43.17.91-11.83,11.68-13.64,29.94-2,42.25C241,427.45,262.54,447.7,284.2,469Z"></path>
  <path class="cls-1" d="M291.4,115.45c3.05,0,5.92-.81,7.94.17,3.79,1.84,9.73,4.39,10.06,7.2.77,6.49-5.08,7.56-10.63,7.46-6-.11-12.1.06-18.15,0-5.15-.07-9.69,1.7-8.44,7.33.61,2.77,5,5.48,8.25,6.68,3.42,1.26,7.58.35,11.32,1a21.55,21.55,0,0,1,18.13,18.33c1.33,8.46-3.62,17.76-12,22-3.54,1.81-7.21,2.37-7.49,8.15-.15,3.1-4.81,6-7.43,9-2.32-3-4.83-5.82-6.84-9-.75-1.18-.34-3.09-.54-5.86-3.15,0-6.61.9-9.2-.22-3.49-1.51-6.32-4.58-9.44-7,3.26-2.27,6.26-5.8,9.83-6.52,5.5-1.11,11.4-.21,17.13-.35,5.18-.12,11-.11,11.09-7.33s-5.42-7.36-10.79-7.43c-3.79,0-7.75.11-11.32-.92-9.55-2.73-15.1-9.6-15.89-19.32-.76-9.44,4.22-16.14,12.24-21,2.73-1.66,4.56-4.8,6.78-7.28,2.61-2.93,5.19-5.87,7.79-8.81,2.34,2.87,4.87,5.62,6.94,8.68C291.52,111.41,291.17,113.25,291.4,115.45Z"></path>
</svg>
