<?xml version="1.0" encoding="UTF-8"?>
<svg xmlns="http://www.w3.org/2000/svg" id="Layer_1" data-name="Layer 1" viewBox="0 0 566.93 566.93">
  <defs>
    <style>.cls-1{stroke:#231f20;stroke-miterlimit:10;stroke-width:5px;}</style>
  </defs>
  <title>Icons</title>
  <path class="cls-1" d="M438.27,472.6c-.88,8-1.1,14.83-2.49,21.5-4.07,19.5-21.74,33.06-43.71,33.12q-104.62.25-209.25,0c-26.31-.08-45.29-18.29-45.49-43.48-.28-34.74-.07-69.49-.08-104.23V367.82c-14,0-26.95.05-39.91,0-25-.12-38.48-12.13-38.59-34.53q-.15-33.93,0-67.85c.1-22,13.2-33.93,37.63-34.23,13-.16,26.1,0,40.86,0v-11q0-66.85,0-133.72c0-30.29,18.33-46.8,51.74-46.8,66.11,0,132.23.13,198.34-.09,19-.06,33.57,6.21,43.95,20.86C433.11,63,438,65,441.55,65.05c22.51.41,45,.15,67.56.23,23.45.07,37.06,12.31,37.21,33.65.16,23.27.21,46.54,0,69.81-.2,20.42-13.34,32.4-35.76,32.68-18.16.23-36.32.1-54.49.05-10.46,0-17.75,6.34-18.16,13.78-1.38,24.74-.53,49.58-.53,75.49,6.95,0,12.68.26,18.38-.06,7.72-.44,11.74,2,13.49,9.34,3.43,14.48,9.12,16.45,22.91,8.32,6.31-3.71,11-3.73,16.08,1.38a208.15,208.15,0,0,0,16.19,14.59c6.07,4.91,5.83,9.49,1.49,15.43-8.8,12.07-6.4,17.57,9.19,20.09,8.7,1.4,11.81,5.22,11.3,12.64-.24,3.6,0,7.21,0,10.82,0,16.44,0,16.44-16.79,21.43-8,2.38-10.71,8.55-6.58,15.15,8.13,13,8.13,13-3.52,23.51-2.05,1.85-4.12,3.69-6.16,5.56-13.35,12.22-12.83,11.54-26,3.33-6.29-3.93-14.49-1.27-16.78,4.61-6.07,15.55-6.07,15.55-23.8,15.72C444.26,472.62,441.75,472.6,438.27,472.6ZM421.43,229.33c-20.49-2.48-6.81-18.88-13.22-27.23-25.69-4-34.15-13-34.19-36.44q-.06-31.44,0-62.89c0-26.41,9.9-36,38.95-37.8.42,0,.79-.83,1.17-1.27-10.52-11-31.59-14.26-59-9-.11,1.54-.28,3.14-.31,4.75-.42,18.93-5.7,23.62-26.7,23.64q-39.77,0-79.52,0c-24.06,0-28-3.53-28.87-25.63a24.14,24.14,0,0,0-1-4.07c-11.65,0-22.86-.12-34.07,0C166.29,53.64,153,64,152.82,80.58c-.59,48.15-.28,96.31-.12,144.46,0,2,2,4.06,3.13,6.09l2.95-.82v-9.62c0-19-.18-38,.06-57,.24-17.84,13.63-31.07,33-31.34q53.37-.72,106.75,0c17.74.23,32,12.47,32.24,27.59.52,27.18.43,54.38,0,81.56-.2,12.15-11,24.39-24.12,25.76-11,1.14-13.25,5.53-11.88,13.92.27,1.6.54,3.47-.11,4.87-1.41,3.07-2.68,7.07-5.4,8.45-1.89,1-6.73-1.16-9.15-3.05-5.18-4.06-10.44-8.39-14.25-13.47-8.9-11.88-21.11-10.12-34.81-8.28,0,3.88,0,7.41,0,10.94,0,19.33.07,38.66-.14,58-.13,11.94-6.65,20.61-18.41,25.69-5.09,2.19-10.88,3.09-17.3,4.84,0,3.93.67,8.25-.19,12.3s-3.25,8-5,12c-4.24-1.86-9.08-3.09-12.62-5.73-8.13-6.09-15.62-12.86-24-19.85v90.18h268Zm3.49-26.44c3.49-2.56,6-3.74,7.46-5.6,6.3-8.14,14.83-10.2,25.48-9.79,17,.66,34.12.27,51.18.14,15.48-.12,21.89-5.76,22-19.6q.26-34.39,0-68.79c-.1-14.19-6.91-20.17-22.75-20.21q-48.46-.09-96.94,0c-15.74,0-21.93,5.47-22,19.41q-.18,34.89,0,69.77c.06,13.87,5.66,19.51,20.67,19.27C420.92,187.33,427,190.19,424.92,202.89ZM420.64,473H153.88c-5.15,26.28,7.7,40.52,36,40.52q97.41,0,194.82,0C412.91,513.56,425.86,499.21,420.64,473Zm-205-204.45c-6.31,0-11.33-.17-16.34,0-17.5.72-31.28-4.08-38.63-19.76-.89-1.9-4.92-3.65-7.53-3.69-20-.29-39.93-.44-59.88,0-12.6.27-19,6.54-19.15,18.28q-.4,35.87,0,71.72c.14,12.34,7.3,18.58,21.06,18.8,14.15.23,28.35.64,42.46-.1,15.4-.8,29.67-.24,39.06,13.05.22.31,1.27.15,2.84.3-1.61-11.81,5.57-13.89,16.88-13.45,11.49.45,18.92-5.59,19.1-14.82C215.93,316.06,215.64,293.17,215.64,268.59Zm62,3.1c3.57-16.14,3.57-16.14,19.07-17,12.94-.68,19-6.21,19-18q.19-36.33,0-72.65c-.07-11.47-6.65-17.91-19.22-18q-51.13-.37-102.29,0c-13,.08-20,6.64-20.11,18.52q-.3,35.83,0,71.67c.09,12.22,6.47,18.15,19.89,18.44,13.78.3,27.58.36,41.35,0C251.46,254.29,267.83,252.64,277.62,271.69ZM511.79,430.2c-.72-1.24-1.3-2.41-2-3.49C500,412.46,507,395.84,525,391.64c7.48-1.74,5.82-6.32,6.05-10.67s.3-8.65-6.63-9.08c-7.49-.46-11.76-4-15.17-10.48-5.43-10.37-7-19.56,1.55-26.7l-11.75-13.39c-21.68,11.51-37.12,5.74-45.35-16.06H437.94v32.61c36.4,3.39,54.48,18.13,54.46,43.91s-18.1,40.32-54.28,43.86v32.74H454.2c1-3.44,1.89-6.57,2.93-9.64,2.41-7.14,24.41-16.92,30.57-12.4C500,445.35,505.24,437.48,511.79,430.2Zm-34.68-48.53c0-15.59-13.09-28.21-30.06-29.3-6.48-.41-10.14.8-9.9,7.83q.74,21.53,0,43.09c-.23,7.08,3.58,8.25,10,7.78C464.28,409.82,477.13,397.28,477.11,381.67ZM338.94,54H235.68c-1.4,15.25-1.4,15.25,14.62,15.25h73.83C340.19,69.28,340.19,69.28,338.94,54Z"></path>
  <path class="cls-1" d="M239.85,417.6c-3.8-4.82-7.61-7.55-7.33-9.9s4.29-5.43,7.25-6.1c1.63-.36,6.23,3.5,6.3,5.56C246.17,409.8,243.07,412.54,239.85,417.6Z"></path>
  <path class="cls-1" d="M178.8,417.65c-3.51-4.95-6.74-7.55-6.79-10.2,0-2.06,4.35-6.13,6-5.83,3,.54,7.09,3.44,7.49,5.8S182.3,412.64,178.8,417.65Z"></path>
  <path class="cls-1" d="M209.16,418c-3.63-5.36-6.89-8.08-6.82-10.73,0-2.06,4.22-5.57,6.62-5.61s6.63,3.41,6.73,5.46C215.82,409.74,212.65,412.53,209.16,418Z"></path>
  <path class="cls-1" d="M452.93,101.79c13.85-7.18,24.68-6.88,35,1a27,27,0,0,1,8.22,33.13c-7.73,16.77-23.28,26.24-40.54,33.8a8.8,8.8,0,0,1-6.19-.13c-16.53-7.33-31.53-16.42-39.58-32.16-6.44-12.58-3.52-25.25,7.2-34.08C427.21,94.92,437.23,94.49,452.93,101.79Zm30.24,19.07c-1.75-1.87-4.69-7.2-9.4-9.28-2.95-1.31-9.66,1.21-12.73,3.85-6.1,5.25-10.38,5.55-16.42,0-2.84-2.62-8.92-5.34-11.81-4.26-4.36,1.62-8.87,6-10.38,10.15-3.69,10.07,19,34.56,30.62,34C463.11,154.91,483.27,134.2,483.17,120.86Z"></path>
  <path class="cls-1" d="M208.05,499.82c-6.14,0-12.43.73-18.35-.28-3.32-.56-6-4-9-6.15,2.74-2.42,5.36-6.77,8.26-6.93a356.55,356.55,0,0,1,40,0c3,.16,5.64,4.42,8.46,6.79-2.94,2.2-5.62,5.81-8.87,6.29C221.9,500.51,214.91,499.82,208.05,499.82Z"></path>
  <path class="cls-1" d="M98.83,331.34a15.41,15.41,0,0,1,.6-3.42c4.45-11.55,1.11-20.6-9.58-28.27-3.09-2.22-6.27-7.87-5.15-10.38,1.27-2.83,7.26-5.17,11.4-5.48,12.22-.92,20.84-4.91,25.13-16.11,1.4-3.67,6.47-6.21,9.86-9.26,3.16,2.87,7.82,5.25,9.2,8.7,4.71,11.75,14,16,27,16.8,3.58.22,8.43,3.06,9.87,5.87,1.07,2.08-1.44,7.34-4.06,9-12.56,8-13.65,18.32-10.91,30.77,2.18,9.89-3.6,13.92-12.65,8.65-13.22-7.71-24.77-7.18-37.7.29C104.38,342.79,98.88,339.29,98.83,331.34Zm32.25-47.08-21.35,13.95c7.68,4.53,10.2,12.61,5.07,25,11.7-8.38,20.7-8.23,27.36-3.63l8.6-21.71Z"></path>
  <path class="cls-1" d="M252.67,185.72c7.38,0,13.16-.15,18.92,0,11.8.39,16.08,5,13.4,15.08-2.8,10.47-6.23,20.8-9.28,31.22-1.84,6.25-6.3,9.68-13.36,9.33-12.53-.62-25-2-37.57-2.52-6.41-.27-12.88.93-19.32.94-9.22,0-14-4.07-13.79-12.79.27-10.15.29-20.32,0-30.47-.26-9.33,5.26-14,14.66-12.77,11.86,1.61,17.15-3.7,21.16-12.21,1.41-3,3-6.52,5.7-8.19,3.22-2,8.27-3.76,11.57-2.83s6.75,5,7.58,8.24C253.61,173.71,252.67,179.09,252.67,185.72Zm13.56,41.35c2.52-8.64,5-17.31,7.43-25.5-10.86-6.7-31.08,7.48-32-15.9-2,3.09-3,4.81-4.2,6.31a28.1,28.1,0,0,0-3.35,31.44c2.22,4.19,16.93,3.07,26,4.2C261.84,227.84,263.67,227.33,266.23,227.07ZM210.8,197.9h-2.21v27.6h2.21Z"></path>
</svg>
