<?xml version="1.0" encoding="UTF-8"?>
<svg xmlns="http://www.w3.org/2000/svg" id="Layer_1" data-name="Layer 1" viewBox="0 0 566.93 566.93">
  <defs>
    <style>.cls-1{stroke:#231f20;stroke-miterlimit:10;stroke-width:4px;}</style>
  </defs>
  <title>Icons</title>
  <path class="cls-1" d="M101.09,240.26v37.58c0,26.13-.11,52.28.14,78.41,0,3.66,1,8.56,3,10.75,13.6,14.62,15.09,22.56,9,37.23,2.55,20.3,4.87,36,6.43,51.89,1.4,14.26,2.08,28.65,2.88,43,.75,13.51-4.29,20.83-15.4,21.54a204.94,204.94,0,0,1-26.92,0c-11.11-.77-16.54-9.1-15.52-22.81,1.71-23,3.26-46,5.46-68.92.62-6.51,3.28-12.73,5.36-20.38-7-21.24-6.15-24.95,8.72-42,1.66-1.9,2.32-6,2.33-9,.15-39-.06-78,.25-117.06,0-6.63-2.1-9.51-6.64-11.54-4.92-2.2-9.72-4.81-14.54-7.35-12.54-6.62-19.86-18-19.73-35,.11-16.54,7.35-27.59,19.53-34q53.16-28,106.35-55.85c27-14.15,54-28.09,80.81-42.51,20.73-11.13,41.08-11,61.88,0Q406.61,103,499.06,151.06c13.08,6.82,21.91,17.27,22,35.46.12,18.69-8.71,29.56-22.27,36.38-21.41,10.77-42.5,22.45-63.94,33.11-6.2,3.07-8.23,7.22-8,15.19.5,15.89-.43,31.86.27,47.72,1.33,30.3-10.09,52.18-29.08,69.43C373,411.12,344,421.23,313.64,425.61c-39.87,5.76-79.24,1.94-116.34-18-13.35-7.18-25.84-17.75-37.27-29-14.21-13.94-20.71-33.32-20.2-56.06.38-17-.38-34.12.25-51.13.33-8.76-2.33-12.82-8.74-15.68C121.56,251.36,112.09,246,101.09,240.26Zm15.55-12.14c3,2.22,3.7,2.91,4.52,3.34,47,24.74,94,49.58,141.15,74.1,14.65,7.62,29.48,6.87,44.1-.83,15.3-8.06,30.63-16,45.93-24.08,47.33-24.86,94.62-49.84,142-74.53,8.37-4.37,13.3-10.72,12.09-22.41-1-9.76-7.06-13.37-13.5-16.75q-92.7-48.6-185.34-97.41c-16.3-8.62-32.13-8.57-48.39.07-37.91,20.15-75.95,39.93-113.93,59.85q-36.57,19.17-73.15,38.34c-7,3.67-12,9.06-11.82,19.46.15,9.81,4.91,14.71,11.52,18.54,11,6.36,21.57,10.24,34.51,7.18,43.91-10.41,88.1-19.06,132.16-28.6,3.09-.67,6.86-2.13,8.72-4.85,14.42-21.06,46.32-26.6,64.55-10.74,12.34,10.74,12.27,27.45-.93,36.68-17.67,12.35-36.31,12.16-53.89.3-6.57-4.43-12.13-5.34-19-3.8-20,4.5-40.11,8.63-60.16,12.94C158.16,219.15,138.5,223.4,116.64,228.12ZM411.28,339.83c-11,8.71-21.6,17.75-32.81,25.52-2.18,1.51-6.65-1.89-10.06-3,1.1-3.82,1.36-8.72,3.49-11.22,3.25-3.82,7.85-5.87,11.78-8.87,21.84-16.71,33.41-39.57,28.51-73.47-3.28,1.55-6.36,2.88-9.37,4.45-30.09,15.69-60.22,31.23-90.21,47.2-19.55,10.42-38.78,10.39-58.33,0-30-16-60.12-31.52-90.21-47.21-3-1.56-6.06-2.88-10.59-5,.42,10.94,0,20.07,1.26,28.82,3.84,26.22,19.78,40.31,37.34,51.45,33,20.93,68.56,26.54,105.25,24.09,5.56-.38,11.2-1.5,16.64-.66,2.42.38,5.65,4.44,6.22,7.48.42,2.22-2.46,6.34-4.68,8.06s-5.34,1.73-8.1,1.95c-31.68,2.49-63,.75-93.58-11-21.42-8.26-41.08-20.5-58.21-39.11,2.17,7,4.62,13.51,8.11,19,10.32,16.37,24.5,26.38,39.84,34,37.68,18.65,76.74,22,116.58,14.59,24-4.46,46.94-13.16,67.14-30.41C398.3,367,407.65,355.82,411.28,339.83ZM108.62,502.68c-1.84-24.77-3.25-48.91-5.79-72.87-.42-4-5.44-9.27-8.9-10-2.63-.55-8.5,4.79-8.87,8.17-2.69,24.62-4.35,49.4-6.45,75.46,8.32,0,15.36.06,22.4,0C103.41,503.39,105.81,503,108.62,502.68Zm197.19-315.6c-9.94-13.42-33.62-13.62-44.74-.38C271.18,200.33,294.58,200.53,305.81,187.08ZM104.9,391.14c-5.15-4.51-8.23-9.3-10.92-9s-7.7,6.15-7.31,8.47c.66,3.91,4.41,8.83,7.54,9.72C96.46,401,99.83,395.76,104.9,391.14Z"></path>
  <path class="cls-1" d="M336.29,384.08c-1.85-2.1-5.54-4.35-5.91-7.24s1.78-8.29,4-9.57a44,44,0,0,1,16.73-5.71c2.25-.25,6,3.77,6.93,6.82.67,2.19-1.57,7.63-3.59,8.78C349.23,380.12,343.42,381.51,336.29,384.08Z"></path>
</svg>
