<?xml version="1.0" encoding="UTF-8"?>
<svg xmlns="http://www.w3.org/2000/svg" id="Layer_1" data-name="Layer 1" viewBox="0 0 566.93 566.93">
  <defs>
    <style>.cls-1{stroke:#231f20;stroke-miterlimit:10;stroke-width:6px;}</style>
  </defs>
  <title>Icons</title>
  <path class="cls-1" d="M150.16,112.67H514.47c16.53,0,18.81,3.45,13.38,20q-21.61,65.76-43.21,131.53c-9.35,28.48-26.24,41.25-55.14,41.27q-118.94.1-237.87,0H179c2.81,17.79,4.64,34.55,8.28,50.87,3.55,15.91,17.7,25.2,35.62,25.22q116,.07,232.06,0c4.52,0,9.36-1.06,13.44.34,3.52,1.21,6.16,5.23,9.2,8-2.81,3.05-5.23,6.79-8.56,8.92-2.15,1.37-5.66.44-8.56.44q-116.52,0-233,0c-35.5,0-52.92-14.68-58.85-51.84-9.91-62.18-18.91-124.53-28.31-186.81-3.74-24.77-7.35-49.57-11.36-74.3-3.35-20.65-15.23-31.54-35-32.09-14.17-.4-28.36-.09-42.54-.12-2.58,0-5.75.79-7.59-.48-3.09-2.13-7.34-5.63-7.33-8.54s4.79-7.83,7.57-7.91c20-.57,40.06-1.49,59.9.36,21.72,2,38.63,22.38,42,46.74C147.21,93.34,148.62,102.38,150.16,112.67Zm3.23,18.49c.36,4.26.44,7.32.89,10.32,6.81,44.87,14.08,89.66,20.2,134.64,1.34,9.82,4.41,11.87,13.14,11.83,80.6-.34,161.2-.19,241.79-.2,21.76,0,32.47-8,39.59-29.68q19.13-58.09,38.18-116.2c1.09-3.35,1.91-6.81,3-10.71Z"></path>
  <path class="cls-1" d="M277.7,481.1c-.12,27.47-21.37,49.59-47.41,49.38-25.73-.21-47.28-23.34-46.87-50.3.41-27.29,22.07-49.72,47.76-49.45C257.12,431,277.83,453.43,277.7,481.1Zm-47,31.34c17.23,0,30.74-14.23,30.48-32.21-.26-17.68-13.48-31.39-30.3-31.41-17,0-30.82,14.53-30.59,32.23C200.46,498.45,214,512.41,230.65,512.44Z"></path>
  <path class="cls-1" d="M358.64,479.9c.19-27,21.31-49.17,46.92-49.17,25.84,0,47.46,22.92,47.3,50.14-.17,27.41-21.73,49.84-47.72,49.61S358.44,507.7,358.64,479.9Zm47,32.54c16.68,0,30.23-13.89,30.51-31.29.28-17.66-13.57-32.33-30.53-32.33-16.75,0-30.12,13.75-30.46,31.33C374.78,498,388.43,512.44,405.6,512.44Z"></path>
</svg>
