<?xml version="1.0" encoding="UTF-8"?>
<svg xmlns="http://www.w3.org/2000/svg" id="Layer_1" data-name="Layer 1" viewBox="0 0 566.93 566.93">
  <defs>
    <style>.cls-1{stroke:#231f20;stroke-miterlimit:10;stroke-width:5px;}</style>
  </defs>
  <title>Icons</title>
  <path class="cls-1" d="M120.28,406.49c-21.7-16.31-42.72-32.09-63.72-47.9C42,347.64,41.69,342,54.6,329.12c16.42-16.43,26-18.19,47.24-8.63,16.06,7.24,32.27,14.15,48.07,21.89,6.06,3,9.17,2.06,12.68-3.46,3.79-6,8.66-11.29,13.13-16.83,3.09-3.83,6.66-7.3,11.64-3.19s2.19,8.36-.91,12.07a410.81,410.81,0,0,0-55.86,86.25c-1.55,3.24-3.13,7.07-2.83,10.46.73,8.14,9.69,12.47,17.74,7.9,21.48-12.21,44.07-23.18,63.44-38.22C245.35,369.09,280,338.54,315,308.51c42.8-36.69,85.15-73.9,128-110.52,2.61-2.23,8-1.23,12.06-1.73-1,4-.84,9.08-3.28,11.79-5.55,6.16-12.38,11.17-19.51,17.35l16.34,39.5c14.84-5.69,35.15,5.29,38.4,20.46.7,3.31-.6,7.23-1.68,10.65-.6,1.91-2.54,3.45-4,5-13.52,14.5-13.53,14.49-3.46,32.73,1.69-1.41,3.25-2.86,5-4.1a30.29,30.29,0,0,1,6.21-3.95c10.54-4.21,16.46,2.75,29,17,5.78,6.56,4.07,13.93-1.53,20.16a111.33,111.33,0,0,1-12.48,12.47c-5.63,4.55-7.11,9-3.36,15.69,3.28,5.89,5.34,12.48,7.79,18.81,6.09,15.72,3,29.82-8.11,42.15-5.79,6.44-12.1,12.43-18.29,18.51-13.22,13-26.4,12-37.64-3q-33.7-45-67.18-90.09c-15.52-20.81-31.07-41.59-47.22-63.2L220,408.7c8.19,18.21,16.65,37.05,25.15,55.87,9.78,21.68,3.42,41.6-17.16,53.12-7.71,4.32-13.62,1.24-18.45-5.17l-44.12-58.63c-2-2.71-4.15-5.37-6.73-8.7C145,451.94,131,455.9,119.43,442,110.08,430.71,113.4,418.86,120.28,406.49ZM340.53,304.91c6.1,8.24,11.76,15.94,17.47,23.6q48.84,65.4,97.72,130.78c6.07,8.1,9.14,8.31,16.28,1.42,5.12-4.94,9.9-10.25,15.15-15,11.12-10.12,12.53-21.5,6.79-35.19-23.37-55.77-46.3-111.72-69.44-167.59-1-2.4-2.33-4.65-3.79-7.51ZM148.92,357c-18-8.12-34.77-15.75-51.61-23.34-18-8.12-24.56-6.33-36.87,10.46l66,49.68Zm59.15,59.15-36.78,22.53,50.08,66.53c8.81-8.63,19.44-15.57,13.52-29.37C226.39,456,217.27,436.51,208.07,416.12Zm299-64-11.81-13.67c-13.73,9.64-13.91,11.71-3.27,28.5ZM476.35,287c-5-3.64-8.58-6.58-12.5-9-1.5-.93-4.63-1.65-5.37-.88-1.39,1.43-2.59,4.35-2.05,6.09,1.65,5.33,4.15,10.4,6.7,16.44Z"></path>
  <path class="cls-1" d="M250.72,235.19C200.17,197.45,150.61,160.42,101,123.43,83.16,110.1,82.19,98,97.87,82.22c32.71-32.94,36.56-34.1,79.06-15.76,9.5,4.09,14.23,1.42,20.39-4.95,18.44-19.09,22-18.9,40-.25,9.65,10,9.6,15.4-.27,28.1,12,9.67,15.52,9.59,25.69-.56,2.41-2.41,4.54-5.29,7.37-7,3.3-2,7.23-4.25,10.87-4.22,16.66.11,30.18,25.29,20.92,40.2,11.41,4.75,22.57,9.74,34.05,13.84,1.91.69,5.95-1.84,7.74-4,16.33-19.21,33.75-37,56.32-49.13A167.41,167.41,0,0,1,473.68,58.8c19.46-.77,33.65,13.86,32.59,33.37-1.62,29.81-9.52,57.8-25.95,83.09-2.94,4.54-6.28,8.76-11.77,5.33-5.81-3.63-2.64-8.5.12-12.84A148.38,148.38,0,0,0,492,93.47c.67-14.87-6.41-21.48-21.34-20.56-43.34,2.66-78.89,20.55-107.25,53.41Q288.81,212.81,213.84,299c-.81.94-1.58,1.9-2.37,2.86-3.3,4.07-7.89,6.7-11.59,2.22-1.71-2.07-.83-8.56,1.25-11.11,12.32-15.1,25.35-29.63,38.13-44.37C242.88,244.44,246.44,240.21,250.72,235.19Zm78.43-90.45a24.4,24.4,0,0,0-2.87-1.75C267.86,118.76,209.47,94.43,151,70.43c-10-4.1-19.52-1.74-27.39,5.83-5.8,5.58-11.43,11.34-17.08,17.07-7.81,7.94-7.64,11.06,1.15,17.64q54.6,40.85,109.26,81.61L260,224.71ZM229.94,74.42C216.7,59,219.14,56.86,203.09,76.36,225,86.63,220.69,86.18,229.94,74.42Zm37.77,28.78c19.72,9.59,19.72,9.59,25.78.15L280.44,90.87Z"></path>
  <path class="cls-1" d="M412.84,103.31c26,.8,48,22.54,48.51,46.2.06,2.72-3.43,5.53-5.27,8.3-2.69-1.93-5.78-3.51-7.93-5.93-1.21-1.36-.81-4.11-1.24-6.22-2.86-14.32-13.27-24.66-27.68-27.54-2.11-.43-4.8-.17-6.2-1.4-2.42-2.13-5.7-5.3-5.51-7.8S411.78,104.33,412.84,103.31Z"></path>
</svg>
