<?xml version="1.0" encoding="UTF-8"?>
<svg xmlns="http://www.w3.org/2000/svg" id="Layer_1" data-name="Layer 1" viewBox="0 0 566.93 566.93">
  <defs>
    <style>.cls-1{stroke:#231f20;stroke-miterlimit:10;stroke-width:2px;}</style>
  </defs>
  <title>Icons</title>
  <path class="cls-1" d="M91,258.64c-15.78-1.14-15.78-1.14-15.79-16.44,0-5.35,0-10.7,0-17.34H52.38c-7.42,0-11.18-3.59-11.08-11.25.11-9.17.05-18.34,0-27.51,0-7.2,3.66-9.55,10.56-10.66,7.58-1.22,15.85-3.17,22-7.44q99.89-69,199-139c8.1-5.73,13.54-5.21,21.32.28q100,70.53,200.7,140.17c5.14,3.56,12.12,5.55,18.41,6,8.4.6,12.49,3.4,12.21,12.19s-.1,17.66-.07,26.49c0,7.13-3.58,10.66-10.51,10.75-7.36.09-14.71,0-23.4,0v16.8c0,15.54,0,15.54-15.71,17.25V424.33c15.7,2.44,15.7,2.44,15.71,19.23v16c7.35,0,14.28.42,21.14-.1,9.91-.77,13.36,3.9,12.85,13.27-.35,6.38-.07,12.78-.07,19,16.43,2.74,16.43,2.74,16.43,19.59,0,6.45-.31,12.92.08,19.35.5,8.5-3.48,11.81-11.46,11.35-2-.12-4,0-6,0H41.8c-16.82,0-16.91-.11-16.92-16.94V509.78c0-15.75,0-15.75,16.43-17.73,0-6.49.25-13.17-.06-19.82-.4-8.89,2.87-13.44,12.32-12.77,6.66.47,13.37.09,21.67.09,0-6.26,0-11.87,0-17.49,0-15.85,0-15.85,15.79-17.31ZM57.43,208.5H509V190.75H228.69c-2.69,0-5.86.89-8-.23-3.29-1.76-5.85-4.88-8.73-7.43,2.67-2.43,5-5.59,8.11-7.05,2.5-1.17,6-.33,9-.33H475.41c-3.45-3-4.75-4.34-6.25-5.39q-89.52-62.55-179-125.19c-5.58-3.93-9-3.12-14.08.48-47.4,33.39-95,66.47-142.54,99.65q-20.18,14.09-40.3,28.21c9.38,2.24,18.28,2.24,27.18,2.24,21.87,0,43.75-.3,65.61.34,3.5.1,9.37,4,9.82,6.89,1,6.42-4.5,8-10.16,7.82-2-.08-4,0-6,0H57.43ZM174.12,459.06h60c0-5.46,0-10.45,0-15.44,0-16.91,0-16.91,16.15-19.22V259.1c-16.14-2.22-16.14-2.22-16.15-19.05,0-4.67,0-9.34,0-14.53H175.81c-7,11.31,10.12,34.06-18,33.16V424.45c16,2,16.32,2.39,16.33,18.47ZM392.69,225.83H334.53c-6.79,11.85,9.78,34.34-18.16,33.07V424.24c16.34,2.67,16.34,2.67,16.36,19.22v15.4h58.44c6.39-12.08-9.85-34.6,17.6-34.28V258.84c-15.93-1.52-16.06-1.66-16.07-17.46C392.69,236.35,392.69,231.32,392.69,225.83ZM40.41,526.44H526.05v-17H40.41ZM57.5,492.09H509.27V475H57.5Zm208.89-233.3V424.73h34V258.79Zm-158.54-.11v166h33.39v-166ZM459,424.93V258.75H425.46V424.93ZM249.36,242.48h67.76V225.71H249.36Zm-159,216.26h67.51V441.93H90.36Zm226.72.24V441.84H249.94V459ZM409,441.6v17.07h67.17V441.6Zm-318.06-216v16.89h66.85V225.56Zm317.8,17.76c21.62,0,42.09.14,62.56-.24,1.87,0,4.78-3.14,5.27-5.27.86-3.76.24-7.87.24-12H408.73Z"></path>
  <path class="cls-1" d="M307.61,132.18a24.21,24.21,0,1,1-48.41.66,24.21,24.21,0,1,1,48.41-.66Zm-24.17,13.37c4.11-6.08,8.56-9.78,8.23-13s-5.35-6.08-8.31-9.1c-2.95,3-7.95,5.86-8.27,9.15S279.27,139.5,283.44,145.55Z"></path>
</svg>
