<?xml version="1.0" encoding="UTF-8"?>
<svg xmlns="http://www.w3.org/2000/svg" id="Layer_1" data-name="Layer 1" viewBox="0 0 566.93 566.93">
  <defs>
    <style>.cls-1{stroke:#231f20;stroke-miterlimit:10;stroke-width:6px;}</style>
  </defs>
  <title>Icons</title>
  <path class="cls-1" d="M120,491.78c-8.71,19.83-58.2,8-75.54,9.34C27,470,41.92,386.63,38.78,358.43c9.9-15.31,57.49-4.43,72.72-6.07,12.45,14.53,19.34,7.85,38.83,5.25-91.27-80.57-37.09-210-23.78-173.45-18.07,46.39-21,91,8.51,133.35,35.81,69.32,102.06,6.67,158.67,29.44,50.72,3.45,69.71,51.73,26.57,68.54-22.85,8.75-78.9-20.38-71.91,9.67,103.22,39.69,114.21,6,145-26.06,65.75-67.81,121.37-111.42,90.37-197.23-47.33,24.92-110-4-122.16-59.16-22.78,3.83-46.15,38.73-61.64,39.46-76.05-63.46-94.27-56.12-166.08-21.06,21.52-67,137.71-42.66,166.55,6.86,16.93-22.25,46.93-27.31,59-47.63-2.54-16.11,26-66.74,19.05-21.35C352.86,178.63,446.94,225.41,495,175.4,560.62,96.3,466.61,17.11,393.92,67.57c-7.27-3.79-5.4-11.41,2.19-15.71,55.29-40.26,129.78.4,134.71,64.42,3.46,51.89-24,53.87-31.64,83.53C533.32,323,436.41,360.15,385.63,432c41.76-14,122.31-19.19,77.63,41C407.55,499,349.32,514.2,289.8,531.1,230.54,532.16,178.43,501.67,120,491.78Zm-1-113.9c1.6,121.64-17.15,90.29,66.38,116.19,40.79,8.3,75.09,30.63,118.51,18.79,51.14-21,107.52-25.7,155.43-56.78,11.58-24.5-20.3-22.06-39.61-16-218,53-208.88-49.93-155.3-43.52,83.11,19.38,81.34-26,30.24-34.09C234.53,346.82,180.28,371.36,119,377.88ZM53,486.48H104.4V367H53Z"></path>
  <path class="cls-1" d="M246.19,266.61c-10.08,29.27-47,33.64-71.57,18.21,9.16-13.85,28.79-5.05,45.12-9.25,29.23-26.38,18-52.86,49.25-.11,46.16-98.83,43.2-31,78.32,19.67,8.11-10.2,11.72-28.5,24.8-35.55,12.53-.44,90.41-6.62,61,14.21-80.28-.25-43.92-3-85.93,43.45-18.18-17.64-28.7-47.65-43.73-73C273.53,290.21,277.06,323.07,246.19,266.61Z"></path>
  <path class="cls-1" d="M452.32,116.26c35.35-5.19,39.49,17.47,0,14.27-.44,9.16,3.4,20.73-7.31,29.23-7.67-6.82-7.38-15.4-6.66-29.22-8.94-.43-20.22,3.41-28.62-7.42,6.67-7.91,15-7.57,28.62-6.85.43-9.13-3.39-20.66,7.28-29.14C453.42,93.9,453,102.38,452.32,116.26Z"></path>
</svg>
