<?xml version="1.0" encoding="UTF-8"?>
<svg xmlns="http://www.w3.org/2000/svg" id="Layer_1" data-name="Layer 1" viewBox="0 0 566.93 566.93">
  <defs>
    <style>.cls-1{stroke:#231f20;stroke-miterlimit:10;}</style>
  </defs>
  <title>Icons</title>
  <path class="cls-1" d="M528.55,270.74l-45.27,78.4c-15.37-26.36-30.2-51.82-46-78.92,9.32,0,17.33-.26,25.31.07,8.59.36,9.25,0,8.21-9-5.2-45-23-84.35-53.84-117.48-60-64.53-152.7-84.48-233-48.2C113.83,127.3,72,182.64,62.62,259.07c-13.94,113.32,65.65,211.83,175,227.74a242.87,242.87,0,0,0,25.17,1.9c9.74.41,15,4.31,14.79,11.7s-5.38,11.15-15.36,10.94c-56-1.17-105.4-19.9-146.92-57.33-55.1-49.68-80.7-112.31-76.46-186.36,6.1-106.35,89.91-195.8,195.69-210,127.57-17.07,241.71,70.35,258.42,197.93,2,15.11,2,15.11,17.4,15.11Z"></path>
  <path class="cls-1" d="M255.58,172.3H279c.42.83.91,1.31.83,1.68-3.16,15.1,4.56,20.26,18.29,22.59,7.9,1.34,15.12,6.71,23.6,10.72l-14.85,20.27c-5.09-2.46-9.64-4.85-14.35-6.89a54,54,0,0,0-36.33-2.55c-10.85,2.89-16.67,10.28-17.62,21.3-1.12,13.05,2.38,20.57,13.53,25.3a116.1,116.1,0,0,0,23.42,6.75C288.24,273.87,300.37,277,311,285c9.35,7.09,14.61,16,14.49,27.72-.1,9.1.37,18.41-1.4,27.23-3.73,18.67-16.89,28.69-34.76,32.21-7.36,1.45-10.2,4.21-9.18,11.52.47,3.36.08,6.84.08,10.82H255.6c0-4.42-.28-8.59.07-12.7.4-4.81-1.32-7-6.19-8.05-15.24-3.37-29.11-9.65-40.3-20.93-1-1-1.89-2.2-3.32-3.88l15.92-19.41c9.48,10,19.76,18.43,33.29,19.91a86,86,0,0,0,27.12-1.14c13.22-2.87,19.18-13.29,18.36-28.3-.59-10.84-8.78-19-20.95-21.58-13-2.74-26.15-5.23-38.86-9.05-15.84-4.76-25.49-16-27-32.62-.86-9.48-.83-19.41,1-28.69,3.55-17.88,15.21-29.24,33-33.35,6.38-1.48,8.71-4.12,7.94-10.43C255.21,180.67,255.58,176.94,255.58,172.3Z"></path>
</svg>
