<?xml version="1.0" encoding="UTF-8"?>
<svg xmlns="http://www.w3.org/2000/svg" id="Layer_1" data-name="Layer 1" viewBox="0 0 566.93 566.93">
  <defs>
    <style>.cls-1{stroke:#231f20;stroke-miterlimit:10;stroke-width:5px;}</style>
  </defs>
  <title>Icons</title>
  <path class="cls-1" d="M411.31,246.45V378.79c3-1.84,5.27-3.07,7.38-4.61,16.7-12.18,33.22-24.67,50.09-36.57,14.07-9.93,29.88-7.06,39.29,6.42,9.1,13,7.63,30.62-4.35,42.56Q459.14,431,414.11,474.88c-14.35,14-32.28,17.47-50.58,20.2-39.73,5.94-79.34,13-119.14,18.27A70.18,70.18,0,0,1,212,510c-27.48-10-54.36-22.06-81.49-33.27-2.47-1-5-1.9-7.49-2.84-5.24,21.26-11.93,26.76-32.09,26.78-2.7,0-5.41-.09-8.1,0-21.7.84-32.35-13.3-29.32-39.21.3-2.55,4-6.37,6.18-6.4s4.21,4.1,6.28,6.43c.16.18.06.63.08,1,.48,7.65-2.21,18.5,5.79,21,9.39,3,20.15,2.33,30.07,1.06,6.55-.83,7.17-8.38,7.15-15-.11-40.72,0-81.44,0-122.16,0-13.47.08-26.93,0-40.39-.09-11-3.59-14.79-13.46-15-4.8-.11-9.6-.06-14.4,0-11.26.11-14.91,4-15,16.66-.12,33.5,0,67-.06,100.49,0,3,.5,6.23-.49,8.75-.92,2.32-3.68,5.45-5.4,5.29C57.82,423,55,420.42,53.65,418c-1.11-1.91-.47-5.09-.47-7.71q0-51.24,0-102.46c0-20.19,8.91-29.94,27.55-30.34,3.6-.08,7.2,0,10.8,0,21.09.08,27.9,6.42,31.18,29.82L153.09,309V246.86c-6.47,6.49-11.82,11.87-17.17,17.25-12.66,12.76-25.52,13.54-35.61,2.15s-8.48-26.51,4.06-39.58c14.56-15.17,29-30.42,43.85-45.29a19.08,19.08,0,0,0,6.09-15.27c-.41-18.7-.26-37.43-.18-56.15.05-12.43,3.84-16.6,15-16.75,8.7-.12,17.4,0,26.1,0,14.63,0,17.14,2.53,18.42,19.63,2.4-2.13,4.43-3.7,6.23-5.55,14.68-15,29.28-30.13,44-45.14,11.94-12.18,23.81-12.22,35.81,0q45.74,46.7,91.33,93.54c3.66,3.74,7.68,7.88,3.14,13.2s-8.63,1-12.2-2.7Q337.3,120.4,292.68,74.58c-9-9.2-12.72-9.38-21.26-.57q-78,80.34-155.87,160.76c-9,9.34-10.75,15.9-5.89,21.45,5,5.76,10.71,4.17,19.91-5.31q72.06-74.26,144.06-148.61c6.27-6.53,10.41-6.16,16.49.12q66.4,68.64,133.25,136.76,7.56,7.74,15.17,15.41c5.07,5.13,10.83,6.8,15.76.72s2.75-12.21-2.2-17.31q-15.72-16.2-31.53-32.3c-1.75-1.8-4.3-3.3-5-5.51-.94-2.93-1.63-7.5-.22-9.35s6.78-2.44,8.26-1c14.46,14.27,29.1,28.46,42.36,44,7.8,9.14,5.64,23.22-2.49,32.15s-19.84,10.31-29.5,3c-3.91-3-7.3-6.77-10.84-10.3S416.27,251.6,411.31,246.45ZM345.68,400.79c-2.31-19.35-10.88-29.16-27.05-31.45-12.47-1.76-25-3.18-37.5-4.41-32.08-3.13-63.27-8.91-91.61-27.68-18.09-12-38.89-14.25-59.71-15.11-5.7-.23-7.94,1.57-7.9,8.24q.36,60.06,0,120.13c0,5.51,1.7,8,6.4,9.91,30.53,12.42,60.85,25.44,91.45,37.61a37,37,0,0,0,18.44,2c40.61-6,81.09-13.11,121.73-18.71,22.15-3.05,41.74-10.11,57.26-28.75,7.44-8.92,16.41-16.3,24.66-24.42q26.42-26,52.76-52.07c5-4.94,8.58-11.58,4.79-18.26-2.79-4.92-8.07-9.57-13.06-11.11-3.65-1.12-9.15,2.17-13,4.93-28,20.18-55.73,40.83-83.72,61-3.55,2.56-8.08,4.8-12.18,4.86-9.86.16-19.75-.84-29.6-1.79-45.64-4.37-91.26-8.92-136.9-13.29-5.15-.49-10.37-1.24-9.85-8.31.49-6.71,5.79-6.31,10.42-5.87q39.82,3.75,79.65,7.51C309.06,397.47,326.93,399.08,345.68,400.79ZM282.52,114.43a13.45,13.45,0,0,0-2.54,1.36q-55.05,56.64-110,113.44a13.68,13.68,0,0,0-3.36,8.39c-.26,23-.3,46,.09,68.93,0,2.47,2.8,5.95,5.09,7.14,12.12,6.3,24.45,12.13,36.79,17.93,9.49,4.45,19.09,8.61,30,13.51,0-27.24,0-52.14,0-77,0-14.45,3.83-18.66,17.18-18.76q26.52-.2,53.06-.1c12.15.05,16.15,4.46,16.18,17.66.08,26.92.19,53.83,0,80.75,0,5.64,1.46,8.13,6.52,10.7,6.82,3.45,14.05,8.39,18.3,14.9,5.32,8.15,7.8,18.54,12.12,29.55,3.81,0,9.19.24,14.54-.05,10.28-.56,21-13.05,21-24.13-.08-45.95-.08-91.91-.42-137.86,0-4.12-1.19-9.51-3.72-12.13C356.69,190.4,319.66,152.56,282.52,114.43Zm-30.4,150.18c0,26.38-.12,51.61.24,76.84,0,2,3.11,4.63,5.28,5.63,2.66,1.22,5.86,1.09,8.83,1.44,15,1.78,30,3.52,45.29,5.31V264.61ZM198.85,108.47H168.29v51.91c8.1-8.28,14.48-16.06,22-22.16C199.86,130.45,201.7,120.87,198.85,108.47Z"></path>
</svg>
