<?xml version="1.0" encoding="UTF-8"?>
<svg xmlns="http://www.w3.org/2000/svg" id="Layer_1" data-name="Layer 1" viewBox="0 0 566.93 566.93">
  <defs>
    <style>.cls-1{stroke:#231f20;stroke-miterlimit:10;stroke-width:6px;}</style>
  </defs>
  <title>Icons</title>
  <path class="cls-1" d="M52.9,283.43c0-39.94.16-79.89-.15-119.82-.06-7.94,2.52-12.47,9.7-16.32Q168.31,90.61,273.72,33.08c7.44-4.07,12.87-3.67,20,.23Q398.74,90.55,504.11,147c7.59,4.06,10.09,8.87,10.06,17.19q-.37,119.29,0,238.61c0,8.35-2.62,13.1-10.14,17.13Q398.64,476.38,293.68,533.66c-7.2,3.92-12.64,4.2-20,.16Q168.25,476.27,62.37,419.61c-7.21-3.87-9.68-8.45-9.62-16.36C53.06,363.31,52.9,323.37,52.9,283.43ZM289.65,520.84a30.31,30.31,0,0,0,4.11-1.33c67.39-36.37,134.82-72.67,202-109.47,3.35-1.84,6-8.16,6-12.4.36-74,.26-147.94.24-221.91,0-2.58-.28-5.16-.42-7.79-1.65.17-2.41.05-2.95.34q-102,55-203.94,110.21c-2.4,1.3-4.79,5.21-4.8,7.91C289.6,364.18,289.65,442,289.65,520.84ZM206.92,243c-.21,4.3-.44,6.95-.44,9.59,0,25.35.14,50.69-.21,76-.05,3.55-2.68,7.07-4.11,10.6-3.21-2.16-7-3.8-9.49-6.61-4.09-4.66-7.34-10.08-10.92-15.19-12.41-17.72-12.41-17.72-32.92-11.32-10.27,3.21-13.06,1.22-13.12-9.8-.1-18.75.06-37.5-.07-56.24-.07-11.76,3.43-25.84-1.81-34.61s-19.31-12.33-29.61-18c-12.6-6.92-25.3-13.65-39.29-21.18v11.26c0,72.91.15,145.83-.22,218.74,0,8.15,2.58,12.34,9.59,16.09q96.68,51.75,193,104.06c2.92,1.58,6,2.86,9.93,4.72,0-79.33,0-157.4-.12-235.48,0-2.07-1.18-5.17-2.77-6.05C252.37,267.44,230.2,255.56,206.92,243ZM353.53,79.71c-22-11.93-42.14-22.59-62-33.79-5.75-3.24-10.13-3.24-16,0q-97.09,53-194.47,105.36c-2.5,1.35-4.82,3-8.27,5.21,9.75,5.32,18.18,10,26.68,14.55,14,7.51,28.12,20.89,42.12,20.78,14.43-.1,28.85-13.19,43.12-20.88C240.45,140.87,296.15,110.72,353.53,79.71Zm141,76.12c-21.87-11.79-42.09-22.41-62-33.6-5.51-3.1-9.55-3.06-15.11,0-45.55,24.9-91.3,49.41-137,74.07-21.89,11.83-43.73,23.75-66.91,36.34,20.92,11.31,40.84,21.66,60.29,32.82,6.79,3.89,11.84,4.13,18.91.27,64.06-35,128.36-69.62,192.58-104.36C488,159.92,490.5,158.26,494.51,155.83Zm-82.4-44.46C398.57,104,386.49,98,375,91.06c-6.16-3.7-10.81-3.45-17.09,0Q261.6,143.57,165,195.52c-2.91,1.57-5.73,3.32-9.68,5.62,13.43,7.26,25.77,13.54,37.69,20.55,5.44,3.2,9.58,3.14,15.14.07,31.86-17.59,63.95-34.74,96-52ZM192,310.57l2.22-.44c0-23.43,0-46.86-.08-70.28,0-1.52-.72-3.81-1.84-4.44-14.25-8-28.63-15.73-43.71-23.94v81.47c5.31-1.72,10-2.78,14.37-4.76,7.6-3.5,12.88-2,17.15,5.43C183.5,299.57,188,304.94,192,310.57Z"></path>
  <path class="cls-1" d="M82.55,368.92c3.08,1.43,5.31,2.33,7.42,3.46,23.82,12.79,47.72,25.43,71.3,38.65,3.12,1.75,7.17,7.45,6.34,9.57-2.49,6.37-7.61,3.37-12.05,1-24.07-13.06-48.24-25.93-72.2-39.19a13.32,13.32,0,0,1-5.6-7.63C77.38,373.36,80.79,371,82.55,368.92Z"></path>
  <path class="cls-1" d="M112.55,418.37c-4.31-2.1-8-3.8-11.64-5.7-6.69-3.54-13.56-6.84-19.85-11-1.9-1.26-3.52-5.64-2.72-7.49s5.57-3.79,7.29-3c10.24,4.87,20.19,10.38,30,16.14,1.46.86,2.4,4.38,1.93,6.25S114.46,416.65,112.55,418.37Z"></path>
</svg>
