<?xml version="1.0" encoding="UTF-8"?>
<svg xmlns="http://www.w3.org/2000/svg" id="Layer_1" data-name="Layer 1" viewBox="0 0 566.93 566.93">
  <defs>
    <style>.cls-1{stroke:#231f20;stroke-miterlimit:10;}</style>
  </defs>
  <title>Icons</title>
  <path class="cls-1" d="M500.84,337.27V219.88l-22.18,9.47C431.29,249.62,384,270,336.49,290c-6.56,2.76-8.93,5.88-8.88,13.19.37,53.28.2,106.56.2,159.83,0,34-15.33,54.37-48.45,63.49-25.81,7.11-50.27,3.76-72.39-11.74-31.28-21.92-31.58-63.18-.36-85,25.92-18.14,54-19.82,83.22-8.51,2.38.92,4.69,2,7.05,3,.25.11.62-.08,2.08-.33v-9.85c0-60.65.18-121.31-.17-182-.07-10.88,3.94-16.9,14-21.14,63.66-26.91,127.12-54.31,190.65-81.52,18.8-8,26.65-2.95,26.66,17.22V376.75c0,33.39-15.38,53.83-47.9,62.95-26.15,7.34-50.92,4-73.27-11.8-31.15-22-31.06-63.21.3-85,25.7-17.89,53.52-19.4,82.4-8.59,2.68,1,5.28,2.19,7.93,3.26C499.78,337.63,500.15,337.42,500.84,337.27Zm-173-76.37c1.11.31,1.49.56,1.72.46q83.73-35.69,167.4-71.55c1.84-.79,3.94-3.42,4.06-5.32.48-7.13.19-14.32.19-22.68-57.54,24.71-113.59,48.73-169.55,73-1.74.76-3.52,3.57-3.65,5.53C327.55,247.22,327.82,254.19,327.82,260.9ZM458,414.45c12.37-.36,24-3.3,33.83-11.38,12.49-10.32,12.36-24.85,0-35.32-17.62-14.92-50.24-14.9-67.93,0-12.36,10.44-12.44,25,.08,35.31C433.75,411.13,445.4,414.12,458,414.45ZM255.17,504c11.84-4.74,23.55-7.57,33.14-13.71,14.3-9.16,13.9-25.55.79-36.25-17.75-14.49-49.5-14.42-67.19.16-12.79,10.54-13.38,26.49.41,35.62C231.81,496.1,243.47,499.11,255.17,504Z"></path>
  <path class="cls-1" d="M152.56,249.83v-11.3q0-91-.06-181.91c0-7.78.61-14.8,8.89-18.42,8.43-3.69,14,.82,19.29,6.47C207.33,73,231.79,103,250.46,137.38c2.29,4.21,4.32,8.58,6.28,13,19.09,42.75,13.43,76.07-18.67,110.13-7.89,8.38-15.8,9.78-22.6,4-7.14-6.08-6.61-14.23,1.22-23.46,3.72-4.39,7.13-9.06,10.52-13.72,12.95-17.79,15-36.56,6.61-57.14-9.15-22.55-34-62-52.41-80v198c0,33.38-15.37,53.83-47.89,62.92C105.9,358.82,79.84,355,57.25,337c-28.51-22.75-26.83-61.74,3.22-82.67,25.68-17.88,53.48-19.42,82.37-8.67C145.77,246.72,148.58,248.1,152.56,249.83Zm-43.07,76,1.09,2.48c10.7-4.46,22.37-7.44,31.86-13.72,13.79-9.13,13.21-25.05.47-35.64-17.82-14.82-50.44-14.61-67.92.42-12.23,10.51-12.13,25.12.52,35.31C85.38,322.64,97,325.62,109.49,325.85Z"></path>
</svg>
