<?xml version="1.0" encoding="UTF-8"?>
<svg xmlns="http://www.w3.org/2000/svg" xmlns:xlink="http://www.w3.org/1999/xlink" version="1.1" id="Layer_1" x="0px" y="0px" viewBox="0 0 2009.7 466.2" style="enable-background:new 0 0 2009.7 466.2;" xml:space="preserve">
<style type="text/css">
	.st0{fill:#050505;}
	.st1{fill:#25BDC1;}
</style>
<g>
	<g>
		<g>
			<g>
				<g>
					<g>
						<path class="st0" d="M584.2,293.1h-42.7V46.2h42.7V293.1z"></path>
						<path class="st0" d="M637.5,131.9c17.4-18.3,38.3-27.5,62.8-27.5s45.4,9.2,62.8,27.5c17.4,18.3,26.1,40.6,26.1,66.6v94.2        h-41.3v-94.2c0-14.6-4.6-27.1-13.9-37.6c-9.3-10.5-20.5-15.7-33.7-15.7c-13.2,0-24.4,5.2-33.7,15.7        c-9.3,10.5-13.9,23-13.9,37.6v94.5h-41.3v-94.5C611.4,172.5,620.1,150.3,637.5,131.9z"></path>
						<path class="st0" d="M837.1,131.9c17.4-18.3,38.3-27.5,62.8-27.5c24.5,0,45.4,9.2,62.8,27.5c17.4,18.3,26.1,40.6,26.1,66.6        v94.2h-41.3v-94.2c0-14.6-4.6-27.1-13.9-37.6c-9.3-10.5-20.5-15.7-33.7-15.7s-24.4,5.2-33.7,15.7c-9.3,10.5-13.9,23-13.9,37.6        v94.5H811v-94.5C811,172.5,819.7,150.3,837.1,131.9z"></path>
						<path class="st0" d="M1032.5,131.9c17.4-18.3,38.3-27.5,62.8-27.5c24.4,0,45.4,9.2,62.8,27.5c17.4,18.3,26.1,40.6,26.1,66.6        s-8.7,48.3-26.1,66.6c-17.4,18.3-38.3,27.5-62.8,27.5c-24.5,0-45.4-9.2-62.8-27.5c-17.4-18.3-26.1-40.6-26.1-66.6        S1015.1,150.3,1032.5,131.9z M1061.6,236.1c9.3,10.5,20.5,15.7,33.7,15.7c13.2,0,24.4-5.2,33.7-15.7        c9.3-10.5,13.9-23,13.9-37.6c0-14.6-4.6-27.1-13.9-37.6c-9.3-10.5-20.5-15.7-33.7-15.7c-13.2,0-24.4,5.2-33.7,15.7        c-9.3,10.5-13.9,23-13.9,37.6C1047.6,213.2,1052.3,225.7,1061.6,236.1z"></path>
						<path class="st0" d="M1371.4,257.5v35.6h-164.7V46.2h42.7v211.3H1371.4z"></path>
						<path class="st0" d="M1401,131.9c17.4-18.3,38.3-27.5,62.8-27.5c24.5,0,45.4,9.2,62.8,27.5c17.4,18.3,26.1,40.6,26.1,66.6        s-8.7,48.3-26.1,66.6c-17.4,18.3-38.3,27.5-62.8,27.5c-24.5,0-45.4-9.2-62.8-27.5c-17.4-18.3-26.1-40.6-26.1-66.6        S1383.6,150.3,1401,131.9z M1430.1,236.1c9.3,10.5,20.5,15.7,33.7,15.7s24.4-5.2,33.7-15.7c9.3-10.5,13.9-23,13.9-37.6        c0-14.6-4.6-27.1-13.9-37.6c-9.3-10.5-20.5-15.7-33.7-15.7s-24.4,5.2-33.7,15.7c-9.3,10.5-13.9,23-13.9,37.6        C1416.1,213.2,1420.8,225.7,1430.1,236.1z"></path>
						<path class="st0" d="M1700.8,111.5h40.9v173.9c0,23.3-7.5,41.8-22.4,55.7c-14.9,13.9-34.9,20.8-59.8,20.8        c-1.9,0-3.9-0.1-6-0.3v-35.6c2.6,0.2,4.8,0.3,6.7,0.3c12.7,0,22.6-3.7,29.8-11.1c7.2-7.4,10.8-17.7,10.8-30.9v-2.8        c-14.1,9.2-29.4,13.7-45.9,13.7c-24.5,0-45.4-9.2-62.8-27.5s-26.1-40.6-26.1-66.6s8.7-48.3,26.1-66.6        c17.4-18.3,38.3-27.5,62.8-27.5c16.5,0,31.7,4.6,45.9,13.7L1700.8,111.5L1700.8,111.5z M1653.8,255.7c13.2,0,24.3-5.3,33.5-16        c9.2-10.7,13.7-23.6,13.7-38.8s-4.6-28.1-13.7-38.8c-9.2-10.7-20.3-16.1-33.5-16.1s-24.3,5.4-33.5,16.1        c-9.2,10.7-13.7,23.7-13.7,39c0,4.9,0.5,9.8,1.6,14.5c1.1,4.7,2.6,9.1,4.8,13c2.1,4,4.6,7.7,7.4,11.1c2.8,3.4,6,6.3,9.5,8.6        c3.5,2.4,7.3,4.2,11.5,5.5C1645.4,255.1,1649.6,255.7,1653.8,255.7z"></path>
						<path class="st0" d="M1792.1,93.8c-4.5,0-8.5-1.1-12.2-3.2c-3.6-2.1-6.5-5-8.7-8.6c-2.1-3.6-3.2-7.6-3.2-11.8        c0-6.6,2.4-12.2,7.1-16.9c4.7-4.7,10.3-7.1,16.7-7.1c6.5,0,12,2.4,16.7,7.1s7.1,10.3,7.1,16.7s-2.4,12-7.1,16.7        C1804,91.5,1798.5,93.8,1792.1,93.8z M1812.2,293.1h-40.9v-189h40.9V293.1z"></path>
						<path class="st0" d="M1922.9,254.3c6.6,0,12.8-1.4,18.7-4.2s11-6.7,15.3-11.6s7.7-10.6,10-16.9h42.7        c-4.5,21.4-14.8,39-31,52.9c-16.2,13.9-34.8,20.8-55.7,20.8c-24.5,0-45.4-9.2-62.8-27.5S1834,227.1,1834,201        s8.7-48.3,26.1-66.6c17.4-18.3,38.3-27.5,62.8-27.5c20.9,0,39.5,6.9,55.7,20.8c16.2,13.9,26.6,31.5,31,52.9H1967        c-2.4-6.4-5.7-12-10-16.9c-4.4-4.9-9.5-8.8-15.3-11.6c-5.9-2.8-12.1-4.2-18.7-4.2c-8.7,0-16.7,2.4-24,7.2        c-7.3,4.8-13,11.3-17.3,19.4s-6.3,17-6.3,26.6c0,9.7,2.1,18.5,6.3,26.6c4.2,8.1,10,14.6,17.3,19.4        C1906.2,251.9,1914.2,254.3,1922.9,254.3z"></path>
					</g>
				</g>
			</g>
		</g>
		<g>
			<path class="st1" d="M592.3,359.4c8.4,0,14.9,1.7,19.7,5.1c4.8,3.4,7.2,8.7,7.2,15.8c0,4.5-1,8.3-3,11.5c-2,3.2-4.8,5.7-8.3,7.6     c-3.6,1.8-7.8,2.9-12.6,3.2l-1.6-5.9c5.6,0.2,10.6,1.1,15.1,3c4.4,1.8,8,4.4,10.6,7.7c2.6,3.3,3.9,7.2,3.9,11.7     c0,4.1-0.8,7.7-2.2,10.6s-3.6,5.4-6.2,7.2c-2.6,1.9-5.6,3.3-8.9,4.1c-3.3,0.9-6.7,1.3-10.3,1.3h-24.7v-83.2L592.3,359.4     L592.3,359.4z M594.6,395.7c4.6,0,7.9-1.3,10-3.8c2.1-2.5,3.1-5.6,3.1-9.2c0-4.5-1.3-7.7-4-9.7c-2.7-2-6.3-3-10.8-3h-10.8v25.6     L594.6,395.7L594.6,395.7z M595.1,432.2c3.1,0,6-0.4,8.5-1.4c2.5-0.9,4.5-2.4,6-4.3c1.5-2,2.2-4.4,2.2-7.2c0-3.2-0.9-5.7-2.6-7.6     c-1.7-1.8-3.9-3.2-6.6-4s-5.4-1.2-8.3-1.2h-12.3v25.7L595.1,432.2L595.1,432.2z"></path>
			<path class="st1" d="M666,444.4c-4.5,0-8.1-1.3-10.9-4c-2.8-2.6-4.3-6.1-4.4-10.3v-35.2h10.8v31.4c0.1,2.5,0.9,4.6,2.3,6.3     c1.4,1.7,3.5,2.5,6.4,2.6c2.6,0,5-0.8,7.1-2.4c2.1-1.6,3.8-3.7,5.1-6.4c1.3-2.7,2-5.8,2-9.3v-22.2h10.7v47.6h-9.8l-0.9-11.7     l0.7,2.2c-1,2.1-2.4,4.1-4.3,5.8c-1.8,1.7-4,3.1-6.6,4.1C671.7,443.9,669,444.4,666,444.4z"></path>
			<path class="st1" d="M738.5,443.5c-3.4,0-6.6-0.6-9.8-1.8c-3.2-1.2-5.8-3-7.9-5.3l4.5-6.2c2.1,1.9,4.1,3.4,6.2,4.3     c2.1,1,4.1,1.5,6.2,1.5c1.5,0,2.9-0.2,4.3-0.6c1.3-0.4,2.4-1,3.2-2c0.8-0.9,1.2-2.1,1.2-3.6c0-1.8-0.6-3.1-1.7-4.1     c-1.1-1-2.5-1.7-4.2-2.4c-1.7-0.6-3.5-1.2-5.5-1.7c-3.9-1.3-6.9-3.1-9-5.4c-2.1-2.3-3.1-5.1-3.1-8.4c0-2.5,0.6-4.9,1.9-7.1     c1.3-2.2,3.2-4,5.7-5.4c2.5-1.4,5.6-2.1,9.2-2.1c3.3,0,6.3,0.4,8.9,1.2c2.6,0.8,5.1,2.2,7.4,4.1l-4.3,6.7c-1.4-1.5-3-2.6-4.9-3.3     c-1.9-0.7-3.6-1.1-5.1-1.1c-1.4,0-2.7,0.2-3.8,0.6c-1.2,0.4-2.1,1-2.9,1.8s-1.1,1.8-1.1,3c-0.1,1.6,0.4,2.9,1.6,3.9     c1.1,1,2.5,1.7,4.2,2.4c1.7,0.6,3.4,1.2,5.2,1.8c2.3,0.7,4.4,1.6,6.2,2.8c1.8,1.1,3.3,2.6,4.4,4.3c1.1,1.7,1.7,3.8,1.7,6.3     c0,2.8-0.7,5.5-2,7.9c-1.3,2.4-3.4,4.3-6.1,5.7C746.2,442.8,742.7,443.5,738.5,443.5z"></path>
			<path class="st1" d="M782.7,377.7c0-1.7,0.7-3.1,2-4.3c1.3-1.1,2.8-1.7,4.4-1.7s3.1,0.6,4.4,1.7c1.3,1.1,2,2.6,2,4.3     c0,1.8-0.7,3.2-2,4.3c-1.3,1.1-2.8,1.7-4.4,1.7s-3.1-0.6-4.4-1.7C783.4,380.9,782.7,379.4,782.7,377.7z M783.4,394.9h10.8v47.6     h-10.8V394.9z"></path>
			<path class="st1" d="M833.9,394.9l0.8,11.6l-0.3-1.8c1.5-3.5,3.9-6.3,7.4-8.5c3.5-2.1,7.5-3.2,12.1-3.2c4.4,0,8.1,1.3,11,4     c2.9,2.6,4.4,6.1,4.4,10.3v35.2h-10.8V411c-0.1-2.5-0.8-4.6-2.2-6.3c-1.4-1.6-3.6-2.5-6.6-2.5c-2.7,0-5.2,0.8-7.4,2.3     s-4,3.6-5.3,6.3c-1.3,2.7-1.9,5.8-1.9,9.3v22.3h-10.8v-47.6L833.9,394.9L833.9,394.9z"></path>
			<path class="st1" d="M921.4,443.7c-5.4,0-10.1-1.1-14-3.3c-3.9-2.2-6.9-5.2-9.1-9s-3.2-8.2-3.2-13.1c0-4.7,1.2-8.9,3.6-12.8     c2.4-3.8,5.6-6.9,9.6-9.2c4-2.3,8.4-3.5,13.4-3.5c6.3,0,11.5,1.8,15.6,5.5c4.1,3.7,7,8.7,8.5,15.2l-39.3,13.8l-2.5-6.3l32.1-11.8     l-2.2,1.6c-0.9-2.5-2.5-4.7-4.6-6.6c-2.1-1.8-4.9-2.8-8.4-2.8c-2.9,0-5.5,0.7-7.8,2.1c-2.3,1.4-4,3.3-5.4,5.7     c-1.3,2.4-2,5.2-2,8.5s0.7,6.1,2,8.6c1.3,2.5,3.2,4.5,5.6,5.9c2.4,1.4,5.2,2.1,8.2,2.1c2.1,0,4.1-0.4,6-1.1c2-0.8,3.8-1.8,5.6-3     l4.8,7.9c-2.4,1.6-5.1,2.9-8,3.9C927.2,443.2,924.3,443.7,921.4,443.7z"></path>
			<path class="st1" d="M984,443.5c-3.4,0-6.6-0.6-9.8-1.8c-3.2-1.2-5.8-3-7.9-5.3l4.5-6.2c2.1,1.9,4.1,3.4,6.2,4.3     c2.1,1,4.1,1.5,6.2,1.5c1.5,0,2.9-0.2,4.3-0.6c1.3-0.4,2.4-1,3.2-2c0.8-0.9,1.2-2.1,1.2-3.6c0-1.8-0.6-3.1-1.7-4.1     c-1.1-1-2.5-1.7-4.2-2.4c-1.7-0.6-3.5-1.2-5.5-1.7c-3.9-1.3-6.9-3.1-9-5.4c-2.1-2.3-3.1-5.1-3.1-8.4c0-2.5,0.6-4.9,1.9-7.1     c1.3-2.2,3.2-4,5.7-5.4c2.5-1.4,5.6-2.1,9.2-2.1c3.3,0,6.3,0.4,8.9,1.2c2.6,0.8,5.1,2.2,7.4,4.1l-4.3,6.7c-1.4-1.5-3-2.6-4.9-3.3     s-3.6-1.1-5.1-1.1c-1.4,0-2.7,0.2-3.8,0.6c-1.2,0.4-2.1,1-2.9,1.8c-0.7,0.8-1.1,1.8-1.1,3c-0.1,1.6,0.4,2.9,1.6,3.9     c1.1,1,2.5,1.7,4.2,2.4c1.7,0.6,3.4,1.2,5.2,1.8c2.3,0.7,4.4,1.6,6.2,2.8c1.8,1.1,3.3,2.6,4.4,4.3c1.1,1.7,1.7,3.8,1.7,6.3     c0,2.8-0.7,5.5-2,7.9c-1.3,2.4-3.4,4.3-6.1,5.7C991.7,442.8,988.2,443.5,984,443.5z"></path>
			<path class="st1" d="M1042.3,443.5c-3.4,0-6.6-0.6-9.8-1.8c-3.2-1.2-5.8-3-7.9-5.3l4.5-6.2c2.1,1.9,4.1,3.4,6.2,4.3     c2.1,1,4.1,1.5,6.2,1.5c1.5,0,2.9-0.2,4.3-0.6c1.3-0.4,2.4-1,3.2-2c0.8-0.9,1.2-2.1,1.2-3.6c0-1.8-0.6-3.1-1.7-4.1     c-1.1-1-2.5-1.7-4.2-2.4c-1.7-0.6-3.5-1.2-5.5-1.7c-3.9-1.3-6.9-3.1-9-5.4c-2.1-2.3-3.1-5.1-3.1-8.4c0-2.5,0.6-4.9,1.9-7.1     c1.3-2.2,3.2-4,5.7-5.4c2.5-1.4,5.6-2.1,9.2-2.1c3.3,0,6.3,0.4,8.9,1.2c2.6,0.8,5.1,2.2,7.4,4.1l-4.3,6.7c-1.4-1.5-3-2.6-4.9-3.3     s-3.6-1.1-5.1-1.1c-1.4,0-2.7,0.2-3.8,0.6c-1.2,0.4-2.1,1-2.9,1.8s-1.1,1.8-1.1,3c-0.1,1.6,0.4,2.9,1.6,3.9     c1.1,1,2.5,1.7,4.2,2.4c1.7,0.6,3.4,1.2,5.2,1.8c2.3,0.7,4.4,1.6,6.2,2.8c1.8,1.1,3.3,2.6,4.4,4.3c1.1,1.7,1.7,3.8,1.7,6.3     c0,2.8-0.7,5.5-2,7.9c-1.3,2.4-3.4,4.3-6.1,5.7C1050,442.8,1046.6,443.5,1042.3,443.5z"></path>
			<path class="st1" d="M1131.6,359.4h55.3v10.7h-22.3v72.5h-11.2v-72.5h-21.9V359.4z"></path>
			<path class="st1" d="M1223.3,443.7c-5.5,0-10.1-1.1-14-3.3c-3.9-2.2-7-5.2-9.1-9c-2.1-3.8-3.2-8.2-3.2-13.1     c0-4.7,1.2-8.9,3.6-12.8c2.4-3.8,5.6-6.9,9.6-9.2c4-2.3,8.4-3.5,13.4-3.5c6.3,0,11.5,1.8,15.6,5.5c4.1,3.7,7,8.7,8.5,15.2     l-39.3,13.8l-2.5-6.3l32.1-11.8l-2.2,1.6c-0.9-2.5-2.5-4.7-4.6-6.6c-2.1-1.8-4.9-2.8-8.4-2.8c-2.9,0-5.5,0.7-7.8,2.1     c-2.3,1.4-4,3.3-5.4,5.7c-1.3,2.4-2,5.2-2,8.5s0.7,6.1,2,8.6c1.3,2.5,3.2,4.5,5.6,5.9c2.4,1.4,5.2,2.1,8.2,2.1     c2.1,0,4.1-0.4,6-1.1c2-0.8,3.8-1.8,5.6-3l4.8,7.9c-2.4,1.6-5.1,2.9-8,3.9C1229,443.2,1226.1,443.7,1223.3,443.7z"></path>
			<path class="st1" d="M1311.2,438.1c-2.1,1.8-4.7,3.1-7.7,4.1c-3,1-6,1.5-9,1.5c-5.1,0-9.7-1-13.6-3.1c-3.9-2.1-7-5-9.3-8.8     c-2.2-3.8-3.3-8.2-3.3-13.2c0-5.1,1.2-9.4,3.6-13.2s5.5-6.6,9.3-8.6c3.8-2,7.9-3,12.4-3c3.8,0,7.2,0.5,10.2,1.6     c3,1,5.6,2.5,7.9,4.4l-5.4,6.9c-1.3-1-3-1.9-5-2.8c-2-0.9-4.3-1.3-6.7-1.3c-2.8,0-5.4,0.7-7.8,2.1c-2.3,1.4-4.2,3.3-5.5,5.7     c-1.3,2.4-2,5.2-2,8.2c0,3,0.7,5.7,2.1,8.2c1.4,2.5,3.3,4.4,5.7,5.9c2.5,1.5,5.3,2.2,8.5,2.2c2,0,3.9-0.3,5.6-0.9     c1.7-0.6,3.3-1.5,4.7-2.5L1311.2,438.1z"></path>
			<path class="st1" d="M1336.4,442.5v-89h10.6V406l-0.2-2c1.6-3.1,4.1-5.7,7.4-7.8c3.3-2.1,7.3-3.1,11.9-3.1c4.4,0,8.1,1.3,11,4     c2.9,2.6,4.4,6.1,4.4,10.3v35.2h-10.8V411c-0.1-2.5-0.8-4.6-2.2-6.3c-1.4-1.6-3.6-2.5-6.6-2.5c-2.7,0-5.2,0.8-7.4,2.4     c-2.3,1.6-4,3.7-5.3,6.4c-1.3,2.7-1.9,5.7-1.9,9.2v22.3L1336.4,442.5L1336.4,442.5z"></path>
			<path class="st1" d="M1421.3,394.9l0.8,11.6l-0.3-1.8c1.5-3.5,3.9-6.3,7.4-8.5c3.5-2.1,7.5-3.2,12.1-3.2c4.4,0,8.1,1.3,11,4     c2.9,2.6,4.4,6.1,4.4,10.3v35.2h-10.8V411c-0.1-2.5-0.8-4.6-2.2-6.3c-1.4-1.6-3.6-2.5-6.6-2.5c-2.7,0-5.2,0.8-7.4,2.3     c-2.3,1.5-4,3.6-5.3,6.3c-1.3,2.7-1.9,5.8-1.9,9.3v22.3h-10.8v-47.6L1421.3,394.9L1421.3,394.9z"></path>
			<path class="st1" d="M1482.5,418.3c0-4.7,1.1-9,3.4-12.9c2.2-3.8,5.4-6.9,9.4-9.1c4-2.2,8.6-3.3,13.7-3.3c5.1,0,9.7,1.1,13.6,3.3     c3.9,2.2,7,5.3,9.1,9.1c2.2,3.8,3.3,8.1,3.3,12.9c0,4.7-1.1,9-3.3,12.9c-2.2,3.8-5.2,6.9-9.1,9.1c-3.9,2.2-8.5,3.4-13.7,3.4     c-5.1,0-9.7-1-13.6-3.2c-3.9-2.1-7.1-5.1-9.4-8.9C1483.6,427.9,1482.5,423.4,1482.5,418.3z M1493.3,418.4c0,3.1,0.7,5.8,2.1,8.3     s3.2,4.5,5.5,5.9c2.3,1.5,4.9,2.2,7.8,2.2c3,0,5.6-0.7,7.9-2.2c2.3-1.5,4.1-3.4,5.5-5.9c1.3-2.5,2-5.3,2-8.3c0-3.1-0.7-5.8-2-8.3     c-1.3-2.5-3.2-4.5-5.5-6c-2.3-1.5-4.9-2.2-7.9-2.2c-2.9,0-5.5,0.8-7.9,2.3c-2.3,1.5-4.2,3.5-5.5,6     C1494,412.7,1493.3,415.4,1493.3,418.4z"></path>
			<path class="st1" d="M1560.8,353.5h10.8v89h-10.8V353.5z"></path>
			<path class="st1" d="M1597.4,418.3c0-4.7,1.1-9,3.4-12.9c2.2-3.8,5.4-6.9,9.4-9.1c4-2.2,8.6-3.3,13.7-3.3c5.1,0,9.7,1.1,13.6,3.3     c3.9,2.2,7,5.3,9.1,9.1c2.2,3.8,3.3,8.1,3.3,12.9c0,4.7-1.1,9-3.3,12.9c-2.2,3.8-5.2,6.9-9.1,9.1s-8.5,3.4-13.7,3.4     c-5.1,0-9.7-1-13.6-3.2c-3.9-2.1-7.1-5.1-9.4-8.9C1598.5,427.9,1597.4,423.4,1597.4,418.3z M1608.2,418.4c0,3.1,0.7,5.8,2.1,8.3     c1.4,2.5,3.2,4.5,5.5,5.9c2.3,1.5,4.9,2.2,7.8,2.2c3,0,5.6-0.7,7.9-2.2c2.3-1.5,4.1-3.4,5.5-5.9c1.3-2.5,2-5.3,2-8.3     c0-3.1-0.7-5.8-2-8.3c-1.3-2.5-3.2-4.5-5.5-6c-2.3-1.5-4.9-2.2-7.9-2.2c-2.9,0-5.5,0.8-7.9,2.3c-2.3,1.5-4.2,3.5-5.5,6     C1608.9,412.7,1608.2,415.4,1608.2,418.4z"></path>
			<path class="st1" d="M1698.9,466.2c-3.5,0-6.6-0.4-9.4-1.3c-2.7-0.8-5.2-2-7.4-3.5c-2.2-1.5-4.3-3.1-6.4-4.8l6.3-7.4     c2.5,2.3,5.1,4.1,7.7,5.4c2.6,1.3,5.5,2,8.8,2c3.6,0,6.6-0.6,9.1-1.8c2.5-1.2,4.4-2.8,5.6-4.9c1.3-2.1,1.9-4.5,2-7.2l0.1-12.9     l0.9,2.1c-1.4,3.3-3.9,6.1-7.5,8.3c-3.6,2.2-8,3.4-13.1,3.4c-4.3,0-8.3-1.1-12-3.3c-3.7-2.2-6.6-5.2-8.9-9     c-2.2-3.8-3.3-8.1-3.3-12.8c0-5,1.1-9.4,3.5-13.2s5.4-6.9,9.1-9c3.8-2.2,7.9-3.3,12.4-3.3c4.2,0,8.1,0.9,11.6,2.6     c3.5,1.7,6.1,3.9,7.8,6.6l-0.7,2l1-9.2h9.9v48c0,4.3-1.1,8.2-3.3,11.7c-2.2,3.5-5.3,6.3-9.4,8.5     C1709.3,465.2,1704.5,466.2,1698.9,466.2z M1682.4,418.3c0,3.1,0.8,5.9,2.2,8.4c1.5,2.5,3.5,4.5,6,6c2.5,1.5,5.2,2.2,8.2,2.2     c2.8,0,5.4-0.5,7.6-1.6c2.3-1,4.2-2.5,5.7-4.3c1.5-1.8,2.6-3.9,3.2-6.1v-9.6c-0.7-2.3-1.8-4.3-3.5-6c-1.6-1.7-3.5-3-5.7-4     c-2.2-1-4.7-1.5-7.4-1.5c-3,0-5.7,0.7-8.2,2.1c-2.5,1.4-4.5,3.4-6,5.8C1683.2,412.2,1682.4,415,1682.4,418.3z"></path>
			<path class="st1" d="M1755.4,377.7c0-1.7,0.7-3.1,2-4.3c1.3-1.1,2.8-1.7,4.4-1.7c1.6,0,3.1,0.6,4.4,1.7c1.3,1.1,2,2.6,2,4.3     c0,1.8-0.7,3.2-2,4.3s-2.8,1.7-4.4,1.7c-1.6,0-3.1-0.6-4.4-1.7C1756,380.9,1755.4,379.4,1755.4,377.7z M1756,394.9h10.8v47.6     H1756V394.9z"></path>
			<path class="st1" d="M1819,443.7c-5.5,0-10.1-1.1-14-3.3c-3.9-2.2-7-5.2-9.1-9c-2.1-3.8-3.2-8.2-3.2-13.1c0-4.7,1.2-8.9,3.6-12.8     c2.4-3.8,5.6-6.9,9.6-9.2c4-2.3,8.4-3.5,13.4-3.5c6.3,0,11.5,1.8,15.6,5.5c4.1,3.7,7,8.7,8.5,15.2l-39.3,13.8l-2.5-6.3l32.1-11.8     l-2.2,1.6c-0.9-2.5-2.5-4.7-4.6-6.6c-2.1-1.8-4.9-2.8-8.4-2.8c-2.9,0-5.5,0.7-7.8,2.1c-2.3,1.4-4,3.3-5.4,5.7     c-1.3,2.4-2,5.2-2,8.5s0.7,6.1,2,8.6c1.3,2.5,3.2,4.5,5.6,5.9c2.4,1.4,5.2,2.1,8.2,2.1c2.1,0,4.1-0.4,6-1.1c2-0.8,3.8-1.8,5.6-3     l4.8,7.9c-2.4,1.6-5.1,2.9-8,3.9C1824.7,443.2,1821.8,443.7,1819,443.7z"></path>
			<path class="st1" d="M1881.5,443.5c-3.4,0-6.7-0.6-9.8-1.8c-3.2-1.2-5.8-3-7.9-5.3l4.5-6.2c2.1,1.9,4.1,3.4,6.2,4.3     c2.1,1,4.1,1.5,6.2,1.5c1.5,0,2.9-0.2,4.3-0.6c1.3-0.4,2.4-1,3.2-2c0.8-0.9,1.2-2.1,1.2-3.6c0-1.8-0.6-3.1-1.7-4.1     c-1.1-1-2.5-1.7-4.2-2.4c-1.7-0.6-3.5-1.2-5.5-1.7c-3.9-1.3-6.9-3.1-9-5.4c-2.1-2.3-3.1-5.1-3.1-8.4c0-2.5,0.6-4.9,1.9-7.1     c1.3-2.2,3.2-4,5.7-5.4c2.5-1.4,5.6-2.1,9.2-2.1c3.3,0,6.3,0.4,8.9,1.2c2.6,0.8,5.1,2.2,7.4,4.1l-4.3,6.7c-1.4-1.5-3-2.6-4.9-3.3     s-3.6-1.1-5.1-1.1c-1.4,0-2.7,0.2-3.8,0.6c-1.2,0.4-2.1,1-2.9,1.8c-0.7,0.8-1.1,1.8-1.1,3c-0.1,1.6,0.4,2.9,1.6,3.9     c1.1,1,2.5,1.7,4.2,2.4c1.7,0.6,3.4,1.2,5.2,1.8c2.3,0.7,4.4,1.6,6.2,2.8c1.8,1.1,3.3,2.6,4.4,4.3c1.1,1.7,1.7,3.8,1.7,6.3     c0,2.8-0.7,5.5-2,7.9c-1.3,2.4-3.4,4.3-6.1,5.7C1889.2,442.8,1885.8,443.5,1881.5,443.5z"></path>
		</g>
	</g>
	<g>
		<path class="st1" d="M36.3,232.5c49.3,76.3,115.5,107.6,201.5,97.3c84.3-10.1,141.7-58.7,185.4-131.4    c4.1,92.9-54.9,164-141.3,173.3c-11.2,1.2-22.9-2.9-34.3-2.8c-7.4,0.1-16.1,1.8-21.6,6.1c-2.7,2.1-1.8,14.6,1.6,17.4    c4.6,3.8,13.7,5,20,3.5c52.4-12.9,104.5-26.7,163-41.8c-41.7,41.5-84.5,69-137.5,79.5c-31.9,6.3-63.7,10-91.7-11.2    c-9.3-7-15-18.6-23.5-27c-5.3-5.3-12.3-10.7-19.1-11.7c-3.8-0.5-13.2,9-12.4,12.2c1.5,6.8,6.9,14.1,12.8,18.4    c21.2,15.4,43.2,29.7,70.7,48.2C110.1,463.1,18.3,338.8,36.3,232.5z"></path>
		<path class="st1" d="M225.5,0C285.8,17.6,339.3,48.9,367,106.3c17.6,36.6,19.1,80.9,23.6,124.5c-51.3-72.2-119.1-103.2-204.5-95.2    C101.4,143.6,43.4,191.6,0.2,266C-3.6,168.2,61.7,96.5,153.9,92.7c7.1-0.3,14.3,4.1,21.5,4.1c7.3,0,16-1,21.5-5.1    c2.9-2.1,2.5-15.4-0.5-17.3c-5.9-3.7-15.1-5.4-21.9-3.7C122.8,83.1,71.5,96.5,12.8,111.4c44.6-44,89.9-71.9,146-80.9    c31.5-5.1,62.3-5.6,88.3,16.4c7.2,6.1,11.3,15.6,17.9,22.5c5.2,5.4,11.5,11.3,18.3,12.8c3.5,0.8,13.2-8,12.7-11.5    c-0.9-7-5.4-15.3-11.1-19.4c-21.2-15.2-43.4-28.9-65.2-43.1C221.6,5.4,223.6,2.7,225.5,0z"></path>
		<path class="st1" d="M219.7,151.5c46.1,0.2,81.2,35.4,81.2,81.4c0,46.9-37.1,83.5-83.5,82.4c-45.5-1-80.3-37.3-79.9-83.4    C137.9,186.1,173.5,151.3,219.7,151.5z M219.4,197.9c-18.8,0-35.6,16.9-35.3,35.6c0.3,17.6,16.1,33.6,33.8,34.2    c18.9,0.7,36.1-15.3,36.5-34.1C254.9,215.1,238,197.9,219.4,197.9z"></path>
	</g>
</g>
</svg>
