<?xml version="1.0" encoding="UTF-8"?>
<svg xmlns="http://www.w3.org/2000/svg" xmlns:xlink="http://www.w3.org/1999/xlink" version="1.1" id="Layer_1" x="0px" y="0px" viewBox="0 0 1010 270" style="enable-background:new 0 0 1010 270;" xml:space="preserve">
<g>
	<g>
		<g>
			<g>
				<g>
					<g>
						<path style="fill:#050505;" d="M299.33,164.33h-20.87V43.61h20.87V164.33z"></path>
						<path style="fill:#050505;" d="M325.37,85.52c8.51-8.97,18.74-13.45,30.7-13.45c11.96,0,22.19,4.48,30.7,13.45        c8.51,8.97,12.76,19.83,12.76,32.59v46.04h-20.18v-46.04c0-7.13-2.27-13.25-6.81-18.37c-4.54-5.11-10.03-7.67-16.47-7.67        c-6.44,0-11.93,2.56-16.47,7.67c-4.54,5.12-6.81,11.24-6.81,18.37v46.22H312.6v-46.22C312.6,105.35,316.86,94.49,325.37,85.52        z"></path>
						<path style="fill:#050505;" d="M422.97,85.52c8.51-8.97,18.74-13.45,30.7-13.45c11.96,0,22.19,4.48,30.7,13.45        c8.51,8.97,12.76,19.83,12.76,32.59v46.04h-20.18v-46.04c0-7.13-2.27-13.25-6.81-18.37c-4.54-5.11-10.03-7.67-16.47-7.67        c-6.44,0-11.93,2.56-16.47,7.67c-4.54,5.12-6.81,11.24-6.81,18.37v46.22h-20.18v-46.22        C410.21,105.35,414.46,94.49,422.97,85.52z"></path>
						<path style="fill:#050505;" d="M518.5,85.52c8.51-8.97,18.74-13.45,30.7-13.45c11.95,0,22.18,4.48,30.69,13.45        c8.51,8.97,12.76,19.83,12.76,32.59c0,12.76-4.25,23.63-12.76,32.59c-8.51,8.97-18.74,13.45-30.69,13.45        c-11.96,0-22.19-4.49-30.7-13.45c-8.51-8.97-12.76-19.83-12.76-32.59C505.74,105.35,509.99,94.49,518.5,85.52z M532.73,136.48        c4.54,5.12,10.03,7.67,16.47,7.67c6.44,0,11.93-2.56,16.47-7.67c4.54-5.11,6.81-11.24,6.81-18.37        c0-7.13-2.27-13.25-6.81-18.37c-4.54-5.11-10.03-7.67-16.47-7.67c-6.44,0-11.93,2.56-16.47,7.67        c-4.54,5.12-6.81,11.24-6.81,18.37C525.92,125.24,528.19,131.36,532.73,136.48z"></path>
						<path style="fill:#050505;" d="M684.22,146.91v17.42h-80.54V43.61h20.87v103.3H684.22z"></path>
						<path style="fill:#050505;" d="M698.71,85.52c8.51-8.97,18.74-13.45,30.7-13.45s22.19,4.48,30.7,13.45        c8.51,8.97,12.76,19.83,12.76,32.59c0,12.76-4.25,23.63-12.76,32.59c-8.51,8.97-18.74,13.45-30.7,13.45        s-22.19-4.49-30.7-13.45c-8.51-8.97-12.76-19.83-12.76-32.59C685.95,105.35,690.2,94.49,698.71,85.52z M712.94,136.48        c4.54,5.12,10.03,7.67,16.47,7.67s11.93-2.56,16.47-7.67c4.54-5.11,6.81-11.24,6.81-18.37c0-7.13-2.27-13.25-6.81-18.37        c-4.54-5.11-10.03-7.67-16.47-7.67s-11.93,2.56-16.47,7.67c-4.54,5.12-6.81,11.24-6.81,18.37        C706.12,125.24,708.4,131.36,712.94,136.48z"></path>
						<path style="fill:#050505;" d="M845.29,75.52h20.01v85.02c0,11.38-3.65,20.46-10.95,27.24c-7.3,6.78-17.05,10.18-29.23,10.18        c-0.92,0-1.89-0.06-2.93-0.17v-17.42c1.26,0.12,2.35,0.17,3.28,0.17c6.21,0,11.06-1.81,14.57-5.43        c3.51-3.62,5.26-8.65,5.26-15.09v-1.38c-6.89,4.48-14.37,6.72-22.42,6.72c-11.96,0-22.19-4.48-30.7-13.45        c-8.51-8.97-12.76-19.83-12.76-32.59c0-12.76,4.25-23.63,12.76-32.59c8.51-8.97,18.74-13.45,30.7-13.45        c8.05,0,15.52,2.24,22.42,6.72V75.52z M822.35,146.05c6.44,0,11.9-2.61,16.39-7.84c4.48-5.23,6.72-11.55,6.72-18.97        c0-7.42-2.24-13.74-6.72-18.97c-4.48-5.23-9.95-7.85-16.39-7.85s-11.9,2.62-16.38,7.85c-4.48,5.23-6.72,11.58-6.72,19.06        c0,2.41,0.26,4.77,0.77,7.07c0.52,2.3,1.29,4.43,2.33,6.38c1.04,1.96,2.24,3.77,3.62,5.43c1.38,1.67,2.93,3.08,4.66,4.22        c1.72,1.15,3.59,2.04,5.61,2.67C818.24,145.73,820.28,146.05,822.35,146.05z"></path>
						<path style="fill:#050505;" d="M889.95,66.9c-2.18,0-4.17-0.52-5.95-1.55c-1.78-1.03-3.19-2.44-4.23-4.22        c-1.03-1.78-1.55-3.71-1.55-5.78c0-3.22,1.15-5.98,3.45-8.28c2.3-2.3,5.03-3.45,8.19-3.45c3.16,0,5.89,1.15,8.19,3.45        c2.3,2.3,3.45,5.03,3.45,8.19c0,3.16-1.15,5.89-3.45,8.19C895.75,65.75,893.06,66.9,889.95,66.9z M899.78,164.33h-20.01V71.9        h20.01V164.33z"></path>
						<path style="fill:#050505;" d="M953.93,145.36c3.22,0,6.26-0.69,9.14-2.07c2.88-1.38,5.37-3.28,7.5-5.69        c2.13-2.41,3.77-5.17,4.91-8.28h20.87c-2.19,10.46-7.24,19.08-15.18,25.86c-7.93,6.79-17.02,10.18-27.25,10.18        c-11.96,0-22.19-4.48-30.7-13.45c-8.51-8.97-12.76-19.83-12.76-32.59c0-12.76,4.25-23.63,12.76-32.59        c8.51-8.97,18.74-13.45,30.7-13.45c10.23,0,19.31,3.39,27.25,10.18c7.93,6.78,12.99,15.41,15.18,25.87h-20.87        c-1.15-3.11-2.79-5.86-4.91-8.28c-2.13-2.42-4.63-4.31-7.5-5.69c-2.88-1.38-5.92-2.07-9.14-2.07c-4.25,0-8.16,1.18-11.72,3.54        c-3.57,2.36-6.38,5.52-8.45,9.49c-2.07,3.97-3.1,8.31-3.1,13.02c0,4.72,1.04,9.05,3.1,13.02c2.07,3.97,4.88,7.13,8.45,9.49        C945.76,144.18,949.67,145.36,953.93,145.36z"></path>
					</g>
				</g>
			</g>
		</g>
		<g>
			<path style="fill:#25BDC1;" d="M303.27,196.73c4.09,0,7.3,0.83,9.65,2.5c2.34,1.67,3.52,4.25,3.52,7.73     c0,2.18-0.49,4.05-1.46,5.63c-0.98,1.58-2.33,2.81-4.08,3.71c-1.74,0.9-3.8,1.43-6.16,1.58l-0.79-2.87     c2.74,0.08,5.19,0.56,7.37,1.46c2.17,0.9,3.9,2.15,5.18,3.77c1.27,1.61,1.91,3.52,1.91,5.74c0,2.02-0.37,3.76-1.1,5.2     c-0.73,1.44-1.74,2.63-3.04,3.54c-1.29,0.92-2.74,1.59-4.33,2.02c-1.59,0.43-3.27,0.65-5.04,0.65h-12.09v-40.67H303.27z      M304.4,214.51c2.25,0,3.88-0.62,4.89-1.86c1.01-1.24,1.52-2.74,1.52-4.5c0-2.18-0.66-3.75-1.97-4.73     c-1.31-0.97-3.07-1.46-5.29-1.46h-5.29v12.54H304.4z M304.62,232.34c1.54,0,2.93-0.22,4.16-0.68c1.24-0.45,2.22-1.15,2.95-2.11     c0.73-0.96,1.1-2.13,1.1-3.52c0-1.58-0.42-2.81-1.27-3.72c-0.84-0.9-1.92-1.55-3.23-1.94c-1.31-0.39-2.66-0.59-4.05-0.59h-6.02     v12.55H304.62z"></path>
			<path style="fill:#25BDC1;" d="M339.33,238.3c-2.18,0-3.95-0.64-5.32-1.94c-1.37-1.29-2.09-2.97-2.17-5.03v-17.21h5.29v15.36     c0.07,1.24,0.45,2.26,1.13,3.07c0.67,0.81,1.72,1.23,3.15,1.27c1.27,0,2.43-0.39,3.46-1.16c1.03-0.77,1.87-1.82,2.5-3.15     c0.64-1.33,0.96-2.84,0.96-4.53v-10.86h5.23v23.29h-4.78l-0.45-5.74l0.34,1.07c-0.49,1.05-1.18,2-2.08,2.84     c-0.9,0.84-1.98,1.51-3.24,2C342.1,238.06,340.76,238.3,339.33,238.3z"></path>
			<path style="fill:#25BDC1;" d="M374.77,237.86c-1.65,0-3.25-0.29-4.81-0.87c-1.56-0.58-2.84-1.45-3.85-2.61l2.19-3.04     c1.01,0.94,2.02,1.64,3.04,2.11c1.01,0.47,2.02,0.71,3.04,0.71c0.75,0,1.44-0.09,2.08-0.28c0.64-0.19,1.15-0.51,1.55-0.96     c0.39-0.45,0.59-1.03,0.59-1.75c0-0.86-0.27-1.52-0.82-2s-1.23-0.85-2.05-1.16c-0.83-0.3-1.73-0.58-2.7-0.84     c-1.91-0.64-3.38-1.52-4.39-2.64c-1.01-1.12-1.52-2.49-1.52-4.11c0-1.24,0.31-2.39,0.93-3.46c0.62-1.07,1.55-1.95,2.78-2.64     c1.24-0.7,2.74-1.04,4.5-1.04c1.61,0,3.06,0.2,4.33,0.59c1.27,0.39,2.47,1.06,3.6,2l-2.08,3.26c-0.68-0.71-1.47-1.25-2.39-1.6     c-0.92-0.35-1.75-0.54-2.5-0.54c-0.68,0-1.3,0.11-1.88,0.31c-0.58,0.21-1.05,0.51-1.41,0.9c-0.36,0.39-0.53,0.89-0.53,1.49     c-0.04,0.79,0.22,1.42,0.76,1.89c0.54,0.47,1.23,0.85,2.05,1.15c0.83,0.3,1.67,0.6,2.53,0.9c1.12,0.34,2.14,0.79,3.04,1.35     c0.9,0.56,1.62,1.26,2.17,2.08c0.54,0.83,0.81,1.86,0.81,3.1c0,1.39-0.33,2.67-0.98,3.85c-0.66,1.18-1.65,2.12-2.98,2.81     C378.53,237.51,376.83,237.86,374.77,237.86z"></path>
			<path style="fill:#25BDC1;" d="M396.37,205.68c0-0.83,0.33-1.52,0.98-2.08c0.66-0.56,1.38-0.84,2.17-0.84s1.5,0.28,2.14,0.84     c0.64,0.56,0.96,1.26,0.96,2.08c0,0.86-0.32,1.56-0.96,2.11c-0.64,0.55-1.35,0.82-2.14,0.82s-1.51-0.27-2.17-0.82     C396.7,207.24,396.37,206.54,396.37,205.68z M396.71,214.12H402v23.29h-5.29V214.12z"></path>
			<path style="fill:#25BDC1;" d="M421.41,214.12l0.39,5.68l-0.17-0.9c0.71-1.73,1.91-3.1,3.6-4.14c1.69-1.03,3.66-1.55,5.91-1.55     c2.17,0,3.97,0.64,5.37,1.94c1.41,1.29,2.13,2.97,2.17,5.03v17.21h-5.29v-15.41c-0.04-1.24-0.4-2.26-1.1-3.07     c-0.7-0.8-1.77-1.21-3.24-1.21c-1.31,0-2.52,0.38-3.63,1.13c-1.11,0.75-1.97,1.78-2.59,3.1c-0.62,1.31-0.93,2.83-0.93,4.56v10.91     h-5.29v-23.29H421.41z"></path>
			<path style="fill:#25BDC1;" d="M464.21,237.97c-2.66,0-4.95-0.53-6.86-1.6c-1.91-1.07-3.39-2.53-4.44-4.39     c-1.05-1.86-1.58-3.99-1.58-6.39c0-2.28,0.59-4.37,1.77-6.24c1.18-1.88,2.75-3.37,4.7-4.5c1.95-1.12,4.12-1.69,6.53-1.69     c3.07,0,5.63,0.9,7.65,2.7c2.02,1.8,3.41,4.27,4.16,7.42l-19.24,6.75l-1.24-3.1l15.7-5.79l-1.07,0.79     c-0.45-1.24-1.2-2.31-2.25-3.21c-1.05-0.9-2.42-1.35-4.11-1.35c-1.43,0-2.69,0.34-3.8,1.01c-1.11,0.67-1.98,1.6-2.62,2.78     c-0.64,1.18-0.96,2.56-0.96,4.14c0,1.58,0.33,2.98,0.98,4.22c0.66,1.24,1.58,2.2,2.76,2.9c1.18,0.7,2.52,1.04,4.02,1.04     c1.01,0,2-0.18,2.95-0.56c0.96-0.37,1.87-0.86,2.73-1.46l2.36,3.88c-1.16,0.79-2.47,1.43-3.91,1.91     C467.01,237.72,465.6,237.97,464.21,237.97z"></path>
			<path style="fill:#25BDC1;" d="M494.81,237.86c-1.65,0-3.25-0.29-4.81-0.87c-1.56-0.58-2.84-1.45-3.85-2.61l2.19-3.04     c1.01,0.94,2.02,1.64,3.04,2.11c1.01,0.47,2.02,0.71,3.04,0.71c0.75,0,1.44-0.09,2.08-0.28c0.64-0.19,1.15-0.51,1.55-0.96     c0.39-0.45,0.59-1.03,0.59-1.75c0-0.86-0.27-1.52-0.82-2s-1.23-0.85-2.05-1.16c-0.83-0.3-1.73-0.58-2.7-0.84     c-1.91-0.64-3.38-1.52-4.39-2.64c-1.01-1.12-1.52-2.49-1.52-4.11c0-1.24,0.31-2.39,0.93-3.46c0.62-1.07,1.55-1.95,2.78-2.64     c1.24-0.7,2.74-1.04,4.5-1.04c1.61,0,3.06,0.2,4.33,0.59c1.27,0.39,2.47,1.06,3.6,2l-2.08,3.26c-0.68-0.71-1.47-1.25-2.39-1.6     c-0.92-0.35-1.75-0.54-2.5-0.54c-0.68,0-1.3,0.11-1.88,0.31c-0.58,0.21-1.05,0.51-1.41,0.9c-0.36,0.39-0.53,0.89-0.53,1.49     c-0.04,0.79,0.22,1.42,0.76,1.89c0.54,0.47,1.23,0.85,2.05,1.15c0.83,0.3,1.67,0.6,2.53,0.9c1.12,0.34,2.14,0.79,3.04,1.35     c0.9,0.56,1.62,1.26,2.17,2.08c0.54,0.83,0.81,1.86,0.81,3.1c0,1.39-0.33,2.67-0.98,3.85c-0.66,1.18-1.65,2.12-2.98,2.81     C498.57,237.51,496.88,237.86,494.81,237.86z"></path>
			<path style="fill:#25BDC1;" d="M523.33,237.86c-1.65,0-3.25-0.29-4.81-0.87c-1.56-0.58-2.84-1.45-3.85-2.61l2.19-3.04     c1.01,0.94,2.02,1.64,3.04,2.11c1.01,0.47,2.02,0.71,3.04,0.71c0.75,0,1.44-0.09,2.08-0.28c0.64-0.19,1.15-0.51,1.55-0.96     c0.39-0.45,0.59-1.03,0.59-1.75c0-0.86-0.27-1.52-0.82-2s-1.23-0.85-2.05-1.16c-0.83-0.3-1.73-0.58-2.7-0.84     c-1.91-0.64-3.38-1.52-4.39-2.64c-1.01-1.12-1.52-2.49-1.52-4.11c0-1.24,0.31-2.39,0.93-3.46c0.62-1.07,1.55-1.95,2.78-2.64     c1.24-0.7,2.74-1.04,4.5-1.04c1.61,0,3.06,0.2,4.33,0.59c1.27,0.39,2.47,1.06,3.6,2l-2.08,3.26c-0.68-0.71-1.47-1.25-2.39-1.6     c-0.92-0.35-1.75-0.54-2.5-0.54c-0.68,0-1.3,0.11-1.88,0.31c-0.58,0.21-1.05,0.51-1.41,0.9c-0.36,0.39-0.53,0.89-0.53,1.49     c-0.04,0.79,0.22,1.42,0.76,1.89c0.54,0.47,1.23,0.85,2.05,1.15c0.83,0.3,1.67,0.6,2.53,0.9c1.12,0.34,2.14,0.79,3.04,1.35     c0.9,0.56,1.62,1.26,2.17,2.08c0.54,0.83,0.81,1.86,0.81,3.1c0,1.39-0.33,2.67-0.98,3.85c-0.66,1.18-1.65,2.12-2.98,2.81     C527.09,237.51,525.4,237.86,523.33,237.86z"></path>
			<path style="fill:#25BDC1;" d="M566.98,196.73h27.06v5.23h-10.91v35.44h-5.46v-35.44h-10.69V196.73z"></path>
			<path style="fill:#25BDC1;" d="M611.82,237.97c-2.67,0-4.95-0.53-6.86-1.6c-1.92-1.07-3.4-2.53-4.45-4.39     c-1.05-1.86-1.58-3.99-1.58-6.39c0-2.28,0.59-4.37,1.77-6.24c1.18-1.88,2.74-3.37,4.7-4.5c1.95-1.12,4.12-1.69,6.53-1.69     c3.07,0,5.62,0.9,7.65,2.7c2.02,1.8,3.41,4.27,4.16,7.42l-19.24,6.75l-1.24-3.1l15.7-5.79l-1.07,0.79     c-0.45-1.24-1.2-2.31-2.25-3.21c-1.05-0.9-2.42-1.35-4.11-1.35c-1.43,0-2.69,0.34-3.79,1.01c-1.11,0.67-1.98,1.6-2.62,2.78     c-0.64,1.18-0.96,2.56-0.96,4.14c0,1.58,0.33,2.98,0.98,4.22c0.66,1.24,1.58,2.2,2.76,2.9c1.18,0.7,2.52,1.04,4.02,1.04     c1.01,0,2-0.18,2.95-0.56c0.96-0.37,1.87-0.86,2.73-1.46l2.36,3.88c-1.16,0.79-2.47,1.43-3.91,1.91     C614.62,237.72,613.21,237.97,611.82,237.97z"></path>
			<path style="fill:#25BDC1;" d="M654.79,235.21c-1.05,0.86-2.31,1.54-3.77,2.02c-1.46,0.49-2.93,0.73-4.39,0.73     c-2.51,0-4.74-0.51-6.67-1.52c-1.93-1.01-3.44-2.44-4.53-4.28c-1.09-1.84-1.63-3.99-1.63-6.47c0-2.47,0.58-4.62,1.74-6.44     c1.16-1.82,2.67-3.23,4.53-4.22c1.86-0.99,3.87-1.49,6.05-1.49c1.84,0,3.5,0.25,4.98,0.76c1.48,0.5,2.76,1.23,3.85,2.17     l-2.64,3.37c-0.64-0.49-1.46-0.95-2.45-1.38c-0.99-0.43-2.09-0.64-3.29-0.64c-1.39,0-2.65,0.34-3.79,1.04     c-1.14,0.7-2.05,1.63-2.7,2.81c-0.66,1.18-0.98,2.52-0.98,4.02c0,1.46,0.34,2.8,1.01,4c0.67,1.2,1.61,2.15,2.81,2.87     c1.2,0.71,2.59,1.07,4.16,1.07c0.97,0,1.89-0.15,2.73-0.45c0.84-0.3,1.6-0.71,2.28-1.24L654.79,235.21z"></path>
			<path style="fill:#25BDC1;" d="M667.12,237.41v-43.54h5.17v25.65l-0.11-0.96c0.79-1.54,2-2.81,3.63-3.83     c1.63-1.01,3.57-1.52,5.82-1.52c2.17,0,3.97,0.64,5.37,1.94c1.41,1.29,2.13,2.97,2.17,5.03v17.21h-5.29v-15.41     c-0.04-1.24-0.4-2.26-1.1-3.07c-0.7-0.8-1.77-1.21-3.23-1.21c-1.31,0-2.52,0.39-3.63,1.16c-1.11,0.77-1.97,1.81-2.59,3.12     c-0.62,1.31-0.93,2.81-0.93,4.5v10.91H667.12z"></path>
			<path style="fill:#25BDC1;" d="M708.63,214.12l0.39,5.68l-0.17-0.9c0.71-1.73,1.91-3.1,3.6-4.14c1.69-1.03,3.66-1.55,5.91-1.55     c2.17,0,3.97,0.64,5.37,1.94c1.41,1.29,2.13,2.97,2.17,5.03v17.21h-5.29v-15.41c-0.04-1.24-0.4-2.26-1.1-3.07     c-0.7-0.8-1.77-1.21-3.23-1.21c-1.31,0-2.52,0.38-3.63,1.13c-1.11,0.75-1.97,1.78-2.59,3.1c-0.62,1.31-0.93,2.83-0.93,4.56v10.91     h-5.29v-23.29H708.63z"></path>
			<path style="fill:#25BDC1;" d="M738.55,225.54c0-2.32,0.55-4.42,1.66-6.3c1.1-1.88,2.64-3.36,4.61-4.44     c1.97-1.09,4.21-1.63,6.72-1.63c2.51,0,4.73,0.54,6.64,1.63c1.91,1.09,3.4,2.57,4.47,4.44c1.07,1.88,1.6,3.98,1.6,6.3     c0,2.32-0.53,4.42-1.6,6.3c-1.07,1.88-2.56,3.37-4.47,4.47c-1.92,1.1-4.15,1.66-6.7,1.66c-2.51,0-4.74-0.51-6.67-1.55     c-1.93-1.03-3.46-2.48-4.58-4.33C739.12,230.23,738.55,228.05,738.55,225.54z M743.84,225.59c0,1.5,0.34,2.86,1.01,4.08     c0.67,1.22,1.58,2.18,2.7,2.9c1.13,0.71,2.4,1.07,3.83,1.07c1.46,0,2.76-0.35,3.88-1.07c1.12-0.71,2.01-1.68,2.67-2.9     c0.66-1.22,0.98-2.58,0.98-4.08c0-1.5-0.33-2.86-0.98-4.08c-0.66-1.22-1.55-2.19-2.67-2.93c-1.13-0.73-2.42-1.1-3.88-1.1     c-1.43,0-2.71,0.38-3.85,1.13c-1.14,0.75-2.05,1.73-2.7,2.95C744.17,222.79,743.84,224.13,743.84,225.59z"></path>
			<path style="fill:#25BDC1;" d="M776.86,193.87h5.29v43.54h-5.29V193.87z"></path>
			<path style="fill:#25BDC1;" d="M794.75,225.54c0-2.32,0.55-4.42,1.66-6.3c1.1-1.88,2.64-3.36,4.61-4.44     c1.97-1.09,4.21-1.63,6.72-1.63s4.73,0.54,6.64,1.63c1.91,1.09,3.4,2.57,4.47,4.44c1.07,1.88,1.6,3.98,1.6,6.3     c0,2.32-0.54,4.42-1.6,6.3c-1.07,1.88-2.56,3.37-4.47,4.47c-1.91,1.1-4.14,1.66-6.7,1.66c-2.51,0-4.73-0.51-6.67-1.55     c-1.93-1.03-3.46-2.48-4.58-4.33C795.31,230.23,794.75,228.05,794.75,225.54z M800.04,225.59c0,1.5,0.34,2.86,1.01,4.08     c0.68,1.22,1.58,2.18,2.7,2.9c1.13,0.71,2.4,1.07,3.82,1.07c1.46,0,2.76-0.35,3.88-1.07c1.13-0.71,2.02-1.68,2.67-2.9     c0.66-1.22,0.98-2.58,0.98-4.08c0-1.5-0.33-2.86-0.98-4.08c-0.66-1.22-1.55-2.19-2.67-2.93c-1.12-0.73-2.42-1.1-3.88-1.1     c-1.42,0-2.71,0.38-3.85,1.13c-1.14,0.75-2.04,1.73-2.7,2.95C800.37,222.79,800.04,224.13,800.04,225.59z"></path>
			<path style="fill:#25BDC1;" d="M844.36,248.99c-1.72,0-3.25-0.21-4.58-0.62c-1.33-0.41-2.53-0.97-3.6-1.69     c-1.07-0.71-2.11-1.5-3.12-2.36l3.09-3.6c1.24,1.13,2.49,2.01,3.77,2.64s2.7,0.96,4.28,0.96c1.76,0,3.25-0.29,4.47-0.87     c1.22-0.58,2.14-1.38,2.76-2.39c0.62-1.01,0.95-2.19,0.98-3.54l0.05-6.3l0.45,1.01c-0.67,1.61-1.89,2.98-3.65,4.08     c-1.76,1.1-3.9,1.66-6.41,1.66c-2.1,0-4.05-0.54-5.85-1.63c-1.8-1.09-3.24-2.56-4.33-4.42c-1.09-1.86-1.63-3.95-1.63-6.27     c0-2.44,0.56-4.6,1.69-6.47c1.13-1.87,2.62-3.35,4.47-4.41c1.86-1.07,3.87-1.6,6.05-1.6c2.06,0,3.95,0.42,5.66,1.27     c1.71,0.84,2.97,1.92,3.79,3.23l-0.34,0.96l0.51-4.5h4.84v23.46c0,2.1-0.54,4.01-1.6,5.74c-1.07,1.72-2.61,3.1-4.61,4.14     C849.47,248.48,847.1,248.99,844.36,248.99z M836.32,225.54c0,1.5,0.37,2.87,1.1,4.11c0.73,1.24,1.71,2.21,2.92,2.93     c1.22,0.71,2.56,1.07,4.02,1.07c1.39,0,2.64-0.25,3.74-0.76c1.11-0.51,2.03-1.21,2.78-2.11c0.75-0.9,1.27-1.89,1.58-2.98v-4.67     c-0.34-1.13-0.9-2.1-1.69-2.93c-0.79-0.83-1.72-1.48-2.81-1.97c-1.09-0.49-2.28-0.73-3.6-0.73c-1.46,0-2.8,0.35-4.02,1.04     c-1.22,0.7-2.19,1.64-2.92,2.84C836.69,222.57,836.32,223.96,836.32,225.54z"></path>
			<path style="fill:#25BDC1;" d="M871.99,205.68c0-0.83,0.33-1.52,0.98-2.08c0.66-0.56,1.38-0.84,2.17-0.84     c0.79,0,1.5,0.28,2.14,0.84c0.64,0.56,0.96,1.26,0.96,2.08c0,0.86-0.32,1.56-0.96,2.11c-0.64,0.55-1.35,0.82-2.14,0.82     c-0.79,0-1.51-0.27-2.17-0.82C872.31,207.24,871.99,206.54,871.99,205.68z M872.32,214.12h5.29v23.29h-5.29V214.12z"></path>
			<path style="fill:#25BDC1;" d="M903.09,237.97c-2.67,0-4.95-0.53-6.86-1.6c-1.92-1.07-3.4-2.53-4.45-4.39     c-1.05-1.86-1.58-3.99-1.58-6.39c0-2.28,0.59-4.37,1.77-6.24c1.18-1.88,2.74-3.37,4.7-4.5c1.95-1.12,4.12-1.69,6.53-1.69     c3.07,0,5.62,0.9,7.65,2.7c2.02,1.8,3.41,4.27,4.16,7.42l-19.24,6.75l-1.24-3.1l15.7-5.79l-1.07,0.79     c-0.45-1.24-1.2-2.31-2.25-3.21c-1.05-0.9-2.42-1.35-4.11-1.35c-1.43,0-2.69,0.34-3.79,1.01c-1.11,0.67-1.98,1.6-2.62,2.78     c-0.64,1.18-0.96,2.56-0.96,4.14c0,1.58,0.33,2.98,0.98,4.22s1.58,2.2,2.76,2.9c1.18,0.7,2.52,1.04,4.02,1.04     c1.01,0,2-0.18,2.95-0.56c0.96-0.37,1.87-0.86,2.73-1.46l2.36,3.88c-1.16,0.79-2.47,1.43-3.91,1.91     C905.9,237.72,904.48,237.97,903.09,237.97z"></path>
			<path style="fill:#25BDC1;" d="M933.69,237.86c-1.65,0-3.26-0.29-4.81-0.87c-1.55-0.58-2.84-1.45-3.85-2.61l2.19-3.04     c1.01,0.94,2.02,1.64,3.04,2.11c1.01,0.47,2.02,0.71,3.04,0.71c0.75,0,1.44-0.09,2.08-0.28c0.64-0.19,1.15-0.51,1.55-0.96     c0.39-0.45,0.59-1.03,0.59-1.75c0-0.86-0.27-1.52-0.81-2s-1.23-0.85-2.05-1.16c-0.83-0.3-1.73-0.58-2.7-0.84     c-1.91-0.64-3.37-1.52-4.39-2.64c-1.01-1.12-1.52-2.49-1.52-4.11c0-1.24,0.31-2.39,0.93-3.46c0.62-1.07,1.55-1.95,2.78-2.64     c1.24-0.7,2.74-1.04,4.5-1.04c1.61,0,3.06,0.2,4.33,0.59c1.27,0.39,2.48,1.06,3.6,2l-2.08,3.26c-0.68-0.71-1.47-1.25-2.39-1.6     c-0.92-0.35-1.75-0.54-2.5-0.54c-0.67,0-1.3,0.11-1.88,0.31c-0.58,0.21-1.05,0.51-1.41,0.9c-0.35,0.39-0.53,0.89-0.53,1.49     c-0.04,0.79,0.21,1.42,0.76,1.89c0.54,0.47,1.23,0.85,2.05,1.15c0.83,0.3,1.67,0.6,2.53,0.9c1.12,0.34,2.14,0.79,3.03,1.35     c0.9,0.56,1.62,1.26,2.17,2.08c0.54,0.83,0.81,1.86,0.81,3.1c0,1.39-0.33,2.67-0.98,3.85c-0.66,1.18-1.65,2.12-2.98,2.81     C937.45,237.51,935.76,237.86,933.69,237.86z"></path>
		</g>
	</g>
	<g>
		<path style="fill:#25BDC1;" d="M31.39,134.7c24.1,37.3,56.46,52.6,98.51,47.58c41.24-4.92,69.27-28.71,90.66-64.23    c2.02,45.43-26.85,80.18-69.11,84.76c-5.48,0.59-11.19-1.44-16.79-1.37c-3.62,0.04-7.88,0.86-10.55,2.97    c-1.33,1.05-0.87,7.16,0.8,8.53c2.26,1.86,6.72,2.46,9.77,1.71c25.61-6.31,51.12-13.05,79.7-20.45    c-20.38,20.31-41.32,33.75-67.23,38.88c-15.58,3.09-31.15,4.87-44.83-5.47c-4.55-3.44-7.34-9.1-11.47-13.21    c-2.58-2.57-6.01-5.24-9.36-5.71c-1.85-0.26-6.44,4.38-6.08,5.99c0.73,3.33,3.38,6.91,6.24,9c10.36,7.54,21.13,14.5,34.56,23.58    C67.47,247.44,22.6,186.68,31.39,134.7z"></path>
		<path style="fill:#25BDC1;" d="M123.92,21.01c29.47,8.62,55.65,23.91,69.19,51.98c8.63,17.88,9.34,39.58,11.53,60.9    c-25.08-35.29-58.23-50.45-100.01-46.53c-41.38,3.88-69.78,27.34-90.91,63.71c-1.83-47.83,30.1-82.87,75.18-84.73    c3.46-0.14,6.99,2.02,10.49,2.01c3.59-0.01,7.83-0.5,10.51-2.49c1.4-1.04,1.2-7.53-0.25-8.44c-2.87-1.81-7.38-2.64-10.73-1.83    C73.7,61.64,48.59,68.19,19.89,75.5c21.8-21.53,43.94-35.16,71.38-39.55c15.4-2.47,30.45-2.76,43.2,8.02    c3.51,2.96,5.53,7.62,8.77,10.99c2.52,2.63,5.63,5.52,8.93,6.26c1.71,0.38,6.46-3.92,6.23-5.63c-0.46-3.4-2.66-7.5-5.45-9.49    c-10.35-7.43-21.22-14.12-31.9-21.09C122,23.67,122.96,22.34,123.92,21.01z"></path>
		<path style="fill:#25BDC1;" d="M121.09,95.08c22.53,0.1,39.69,17.31,39.7,39.81c0,22.91-18.13,40.81-40.81,40.29    c-22.25-0.51-39.27-18.26-39.09-40.78C81.07,111.99,98.46,94.98,121.09,95.08z M120.91,117.78c-9.18,0-17.39,8.28-17.24,17.39    c0.14,8.6,7.86,16.42,16.54,16.74c9.23,0.34,17.64-7.5,17.86-16.67C138.29,126.19,130.02,117.78,120.91,117.78z"></path>
	</g>
</g>
</svg>
